<svg width="157" height="131" viewBox="0 0 157 131" fill="none" xmlns="http://www.w3.org/2000/svg">
<path d="M111.831 115.761L109.524 117.097L107.965 114.385C107.014 113.393 106.245 112.098 105.881 110.783L104.323 108.071L106.63 106.735C107.297 106.29 108.269 106.331 109.321 106.938C111.365 108.111 113.004 110.985 113.004 113.333C113.004 114.567 112.559 115.397 111.831 115.781V115.761Z" fill="#1F2023"/>
<path d="M106.934 108.314C104.91 107.14 103.25 108.092 103.25 110.439C103.25 112.787 104.91 115.66 106.934 116.834C108.978 118.008 110.617 117.057 110.617 114.709C110.617 112.362 108.978 109.488 106.934 108.314Z" fill="#323338"/>
<path d="M106.933 108.941C105.213 107.95 103.797 108.759 103.797 110.763C103.797 112.766 105.213 115.195 106.933 116.186C108.674 117.178 110.07 116.368 110.07 114.365C110.07 112.361 108.674 109.933 106.933 108.941Z" fill="#AAAEB2"/>
<path d="M106.934 110.864C106.124 110.398 105.477 110.783 105.477 111.714C105.477 112.645 106.124 113.778 106.934 114.243C107.743 114.709 108.411 114.345 108.411 113.393C108.411 112.442 107.763 111.309 106.934 110.843V110.864Z" fill="#898B8D"/>
<path d="M107.622 112.058C107.622 111.572 107.318 111.37 106.934 111.592L98.7782 116.308C98.3937 116.53 98.0901 117.097 98.0901 117.562C98.0901 118.028 98.3937 118.25 98.7782 118.028L106.934 113.333C107.318 113.11 107.622 112.544 107.622 112.078V112.058Z" fill="#0B0B27"/>
<path d="M103.858 114.911C104.444 114.911 104.91 114.527 104.91 114.061V104.125C104.91 103.659 104.444 103.275 103.858 103.275C103.271 103.275 102.805 103.659 102.805 104.125V114.061C102.805 114.527 103.271 114.911 103.858 114.911Z" fill="#9DA4BE"/>
<path d="M103.311 120.739L101.004 122.075L99.4455 119.363C98.4944 118.371 97.7456 117.076 97.3611 115.741L95.8028 113.029L98.1098 111.693C98.7777 111.248 99.7491 111.288 100.801 111.896C102.845 113.069 104.485 115.923 104.485 118.29C104.485 119.525 104.039 120.375 103.311 120.739Z" fill="#1F2023"/>
<path d="M98.4134 113.292C96.3694 112.118 94.7302 113.07 94.7302 115.417C94.7302 117.765 96.3897 120.638 98.4134 121.812C100.457 122.986 102.097 122.035 102.097 119.687C102.097 117.34 100.437 114.466 98.4134 113.292Z" fill="#323338"/>
<path d="M98.4135 113.94C96.6934 112.948 95.2768 113.758 95.2768 115.741C95.2768 117.724 96.6934 120.173 98.4135 121.165C100.154 122.156 101.55 121.347 101.55 119.343C101.55 117.34 100.154 114.911 98.4135 113.92V113.94Z" fill="#AAAEB2"/>
<path d="M98.4136 115.863C97.6041 115.397 96.9363 115.782 96.9363 116.712C96.9363 117.643 97.5839 118.777 98.4136 119.242C99.2231 119.708 99.8707 119.343 99.8707 118.392C99.8707 117.441 99.2231 116.328 98.4136 115.863Z" fill="#898B8D"/>
<path d="M10.7462 73.7081V75.8532L89.3882 121.266V119.1L10.7462 73.7081Z" fill="#ECAC00"/>
<path d="M89.3881 121.266L93.3749 118.939V116.793L89.3881 119.101V121.266Z" fill="#D29900"/>
<path d="M89.3882 119.101L93.375 116.794L14.733 71.3812L10.7462 73.7085L89.3882 119.101Z" fill="#FFB81D"/>
<path d="M35.2737 59.8455V62.0109L113.916 107.403V105.258L35.2737 59.8455Z" fill="#ECAC00"/>
<path d="M113.916 107.403L117.882 105.096L117.903 102.951L113.916 105.258V107.403Z" fill="#D29900"/>
<path d="M113.916 105.258L117.902 102.951L39.2402 57.5387L35.2737 59.8457L113.916 105.258Z" fill="#FFB81D"/>
<path d="M70.4662 121.549L6.81999 84.5759L0.0202637 88.502L63.6665 125.475L70.4662 121.549Z" fill="#916826"/>
<path d="M0.0405053 88.4612L0.0202637 93.986L6.81999 97.912L6.84023 92.3872L0.0405053 88.4612Z" fill="#D09346"/>
<path d="M6.81995 97.9117L14.7732 93.2976L14.7934 87.7728L6.84019 92.3869L6.81995 97.9117Z" fill="#88571B"/>
<path d="M28.0083 104.752L27.988 110.277L34.7878 114.203L34.808 108.678L28.0083 104.752Z" fill="#D09346"/>
<path d="M34.7877 114.203L42.741 109.589L42.7612 104.064L34.808 108.678L34.7877 114.203Z" fill="#88571B"/>
<path d="M56.8668 121.549L56.8466 127.074L63.6665 131V125.475L56.8668 121.549Z" fill="#D09346"/>
<path d="M128.365 88.1169L64.7188 51.1435L64.739 56.648L128.365 93.6417V88.1169Z" fill="#88571B"/>
<path d="M135.165 84.1909L71.5185 47.2174L64.7188 51.1435L128.365 88.117L135.165 84.1909Z" fill="#916826"/>
<path d="M96.0055 106.796L32.3593 69.8228L32.3795 75.3273L96.0257 112.321L96.0055 106.796Z" fill="#88571B"/>
<path d="M102.805 102.87L39.159 65.8969L32.3593 69.823L96.0055 106.796L102.805 102.87Z" fill="#916826"/>
<path d="M135.145 79.8805L71.4984 42.907V44.1617L135.145 81.1554V79.8805Z" fill="#7E511C"/>
<path d="M135.145 81.1553L71.4983 44.1616L0 85.4456L63.6462 122.419L135.145 81.1553Z" fill="#865A1F"/>
<path d="M135.145 78.1806L135.165 89.7158L128.365 93.6419V88.1171L102.805 102.87L102.826 108.395L96.0259 112.321L96.0056 106.796L70.4662 121.549V127.074L63.6665 131V125.475L63.6462 122.419V119.465L135.145 78.1806Z" fill="#BB8038"/>
<path d="M0 82.4706V85.4455L0.0202416 88.5013L11.8186 95.3415L12.4257 95.7058L25.6406 103.376L26.2477 103.74L38.9365 111.127L39.5639 111.471L52.0503 118.736L52.6776 119.1L63.6665 125.475L63.6462 122.419V119.464L52.6776 113.09L52.0503 112.725L39.5639 105.46L38.9365 105.096L26.2477 97.7295L25.6406 97.3652L12.4257 89.6953L11.8186 89.331L0 82.4706Z" fill="#D09346"/>
<path d="M0 82.4708L11.8186 89.3515L12.4055 89.6753L25.6406 97.3655L26.2275 97.7095L38.9972 105.137L39.5841 105.481L52.0503 112.726L52.6574 113.07L63.6462 119.465L135.145 78.1805L124.135 71.7856L123.549 71.4415L111.082 64.1966L110.495 63.8525L97.7258 56.4254L97.1389 56.1017L83.9037 48.4115L83.3169 48.0675L71.4983 41.207L0 82.4708Z" fill="#E7B266"/>
<path d="M11.8184 89.3516L12.4053 89.6754L83.9036 48.4116L83.3167 48.0676L11.8184 89.3516Z" fill="#D09346"/>
<path d="M25.6405 97.3655L26.2274 97.7095L97.7257 56.4255L97.1388 56.1017L25.6405 97.3655Z" fill="#D09346"/>
<path d="M38.9971 105.137L39.584 105.481L111.082 64.1968L110.495 63.8527L38.9971 105.137Z" fill="#D09346"/>
<path d="M52.0504 112.726L52.6575 113.07L124.136 71.7857L123.549 71.4417L52.0504 112.726Z" fill="#D09346"/>
<path d="M75.5051 73.223L97.6649 60.3319L95.9852 59.3605L73.8051 72.2516L75.5051 73.223Z" fill="#A58566"/>
<path d="M73.8863 47.0561L96.0461 34.1852L85.9274 28.3367L63.7676 41.2278L73.8863 47.0561Z" fill="#D7AE82"/>
<path d="M73.8051 72.2513L95.9852 59.3602L96.0459 34.185L73.8861 47.0559L73.8051 72.2513Z" fill="#6A5640"/>
<path d="M75.566 48.0273L97.746 35.1564L96.0461 34.185L73.8863 47.0559L75.566 48.0273Z" fill="#AC7941"/>
<path d="M73.8861 47.0562L73.8051 72.2516L75.5051 73.223L75.5658 48.0276L73.8861 47.0562Z" fill="#885628"/>
<path d="M75.5052 73.2227L97.665 60.3315L97.7459 35.1564L75.5659 48.0273L75.5052 73.2227Z" fill="#5F4123"/>
<path d="M63.7677 41.2274L63.707 66.4025L85.6038 79.0508L85.6847 53.8756L75.5661 48.0271L75.5054 73.2225L73.8054 72.2511L73.8864 47.0557L63.7677 41.2274Z" fill="#C19B77"/>
<path d="M85.6847 53.8758L107.844 40.9847L97.7461 35.1564L75.566 48.0273L85.6847 53.8758Z" fill="#D7AE82"/>
<path d="M85.6038 79.0513L107.784 66.1804L107.845 40.985L85.6848 53.8761L85.6038 79.0513Z" fill="#AA8057"/>
<path d="M82.0219 58.3487C80.8683 57.6809 79.9172 56.0619 79.9172 54.706C79.9172 53.3501 80.8683 52.8239 82.0219 53.4918C83.1754 54.1596 84.1265 55.7988 84.1265 57.1345C84.1265 58.4701 83.1754 59.0166 82.0219 58.3487ZM82.0219 57.519C82.7706 57.944 83.398 57.5999 83.398 56.7297C83.398 55.8595 82.7706 54.787 82.0219 54.362C81.2731 53.9168 80.6457 54.281 80.6457 55.1512C80.6457 56.0214 81.2528 57.094 82.0219 57.519Z" fill="#513B29"/>
<path d="M96.1481 71.1791V67.4555C96.1481 67.1924 96.3504 66.8686 96.6135 66.7067L100.337 64.5615C100.6 64.3996 100.803 64.5008 100.803 64.7639V68.4876C100.803 68.7506 100.6 69.0744 100.337 69.2363L96.6135 71.3815C96.3504 71.5434 96.1481 71.4422 96.1481 71.1791ZM96.6338 66.8483C96.4516 66.9495 96.2897 67.1924 96.2897 67.3745V71.0779C96.2897 71.2601 96.4516 71.341 96.6338 71.2196L100.357 69.0744C100.54 68.9732 100.701 68.7304 100.701 68.5483V64.8246C100.701 64.6425 100.56 64.5817 100.357 64.6829L96.6338 66.8281V66.8483Z" fill="#1C1C1C"/>
<path d="M99.3048 65.4926L99.9929 65.9986L99.4869 66.3021V68.6901L99.1025 68.9127V66.5247L98.6168 66.8081L99.3048 65.4926Z" fill="#1C1C1C"/>
<path d="M97.7265 66.4034L98.4146 66.9093L97.9289 67.2129V69.6009L97.5444 69.8235V67.4355L97.0385 67.7188L97.7265 66.4034Z" fill="#1C1C1C"/>
<path d="M97.0385 70.7545L99.9931 69.0546V68.6498L97.0385 70.3498V70.7545Z" fill="#1C1C1C"/>
<path d="M90.3801 74.5181V70.8147C90.3801 70.5516 90.5825 70.2278 90.8455 70.0659L94.549 67.9207C94.8121 67.7791 95.0144 67.86 95.0144 68.1231V71.8265C95.0144 72.0896 94.8121 72.4337 94.549 72.5753L90.8455 74.7205C90.5825 74.8824 90.3801 74.7812 90.3801 74.5181ZM90.8455 70.1873C90.6634 70.2885 90.5015 70.5314 90.5015 70.7135V74.4372C90.5015 74.6193 90.6432 74.68 90.8455 74.5788L94.549 72.4337C94.7311 72.3325 94.893 72.0896 94.893 71.9075V68.1838C94.893 68.0017 94.7311 67.941 94.549 68.0422L90.8455 70.1873Z" fill="#1C1C1C"/>
<path d="M92.1611 73.3447L92.6064 73.0817V71.6246C91.8171 72.0091 92.1206 69.6211 92.1206 69.6211L93.3551 68.9128C93.3551 68.9128 93.4968 70.7949 92.829 71.4627V72.9603L93.2742 72.6972C93.2742 72.6972 93.3754 72.6972 93.3754 72.7377C93.3754 72.7781 93.3349 72.8793 93.2742 72.8996L92.1611 73.5471C92.1611 73.5471 92.0599 73.5471 92.0599 73.4864C92.0599 73.4257 92.1004 73.3448 92.1611 73.3245V73.3447Z" fill="#1C1C1C"/>
<path d="M101.713 67.9611V64.2374C101.713 63.9743 101.915 63.6505 102.178 63.4886L105.902 61.3435C106.165 61.1816 106.368 61.2828 106.368 61.5459V65.2695C106.368 65.5326 106.165 65.8564 105.902 66.0183L102.178 68.1634C101.915 68.3051 101.713 68.2241 101.713 67.9611ZM102.178 63.6505C101.996 63.7517 101.834 63.9945 101.834 64.1767V67.9004C101.834 68.0825 101.996 68.1432 102.178 68.042L105.902 65.8969C106.084 65.7957 106.246 65.5528 106.246 65.3707V61.647C106.246 61.4649 106.104 61.4042 105.902 61.5054L102.178 63.6505Z" fill="#1C1C1C"/>
<path d="M105.659 63.7927L102.442 65.6342C102.442 65.6342 103.069 64.1367 104.081 63.5296C105.093 62.9427 105.639 63.7724 105.639 63.7724L105.659 63.7927Z" fill="#1C1C1C"/>
<path d="M104.061 66.7063C104.162 66.6456 104.243 66.5646 104.324 66.4634C104.465 66.2206 104.465 65.9575 104.465 65.9575C104.465 65.917 104.425 65.917 104.405 65.9373C104.364 65.9575 104.344 65.998 104.344 66.0384C104.344 66.0384 104.344 66.2611 104.243 66.4432C104.202 66.5242 104.142 66.5646 104.081 66.6051C104 66.6456 103.939 66.6658 103.878 66.6456C103.757 66.5849 103.777 66.3015 103.777 66.3015V64.9052C103.777 64.9052 103.757 64.8647 103.717 64.8849C103.676 64.8849 103.656 64.9456 103.656 64.9659V66.3623C103.656 66.3623 103.636 66.686 103.777 66.767C103.858 66.8075 103.939 66.767 104.061 66.7265V66.7063Z" fill="#1C1C1C"/>
<path d="M105.659 62.7198C105.659 62.7198 105.861 63.0436 105.659 63.165C105.457 63.2864 105.659 62.7198 105.659 62.7198Z" fill="#1C1C1C"/>
<path d="M104.809 62.6186C104.809 62.6186 105.012 62.9424 104.809 63.0638C104.607 63.1852 104.809 62.6186 104.809 62.6186Z" fill="#1C1C1C"/>
<path d="M103.473 63.327C103.473 63.327 103.676 63.6508 103.473 63.7722C103.271 63.8936 103.473 63.327 103.473 63.327Z" fill="#1C1C1C"/>
<path d="M102.603 64.4807C102.603 64.4807 102.806 64.8045 102.603 64.9259C102.401 65.0473 102.603 64.4807 102.603 64.4807Z" fill="#1C1C1C"/>
<path d="M102.968 63.3676C102.968 63.3676 103.17 63.6914 102.968 63.8128C102.765 63.9342 102.968 63.3676 102.968 63.3676Z" fill="#1C1C1C"/>
<path d="M104.121 62.6997C104.121 62.6997 104.324 63.0235 104.121 63.145C103.919 63.2664 104.121 62.6997 104.121 62.6997Z" fill="#1C1C1C"/>
<path d="M105.396 61.9713C105.396 61.9713 105.599 62.2951 105.396 62.4165C105.194 62.5379 105.396 61.9713 105.396 61.9713Z" fill="#1C1C1C"/>
<path d="M86.4134 57.7417L90.6227 55.2929V52.1764L86.4134 54.6049V57.7417Z" fill="white"/>
<path d="M53.2644 86.1544L75.4243 73.2633L73.7446 72.2919L51.5645 85.183L53.2644 86.1544Z" fill="#A58566"/>
<path d="M51.6458 60.0079L73.8056 47.1167L63.687 41.2884L41.5272 54.1593L51.6458 60.0079Z" fill="#D7AE82"/>
<path d="M51.5645 85.183L73.7446 72.2919L73.8053 47.1167L51.6455 60.0079L51.5645 85.183Z" fill="#6A5640"/>
<path d="M53.3254 60.9792L75.5054 48.0881L73.8055 47.1167L51.6457 60.0079L53.3254 60.9792Z" fill="#AC7941"/>
<path d="M51.6455 60.0077L51.5645 85.1829L53.2644 86.1542L53.3252 60.9791L51.6455 60.0077Z" fill="#885628"/>
<path d="M53.2643 86.1544L75.4242 73.2632L75.5051 48.0881L53.3251 60.9792L53.2643 86.1544Z" fill="#5F4123"/>
<path d="M41.5269 54.1593L41.4662 79.3345L63.3629 91.9828L63.4439 66.8076L53.3252 60.9793L53.2645 86.1544L51.5646 85.1831L51.6455 60.0079L41.5269 54.1593Z" fill="#C19B77"/>
<path d="M63.4441 66.8075L85.6039 53.9366L75.5055 48.0881L53.3254 60.9792L63.4441 66.8075Z" fill="#D7AE82"/>
<path d="M63.363 91.9825L85.543 79.1116L85.6037 53.9364L63.4439 66.8073L63.363 91.9825Z" fill="#AA8057"/>
<path d="M59.781 71.2797C58.6275 70.6118 57.6763 68.9726 57.6763 67.6369C57.6763 66.3013 58.6275 65.7549 59.781 66.4227C60.9345 67.0905 61.8857 68.7297 61.8857 70.0654C61.8857 71.4011 60.9345 71.9475 59.781 71.2797ZM59.781 70.4499C60.5298 70.8749 61.1571 70.5309 61.1571 69.6607C61.1571 68.7905 60.55 67.7179 59.781 67.2929C59.0322 66.8679 58.4049 67.212 58.4049 68.0822C58.4049 68.9524 59.012 70.0249 59.781 70.4499Z" fill="#513B29"/>
<path d="M73.9268 84.1106V80.3869C73.9268 80.1238 74.1291 79.8 74.3922 79.6381L78.0956 77.493C78.3587 77.3513 78.5611 77.4323 78.5611 77.6954V81.419C78.5611 81.6821 78.3587 82.0059 78.0956 82.1678L74.3922 84.313C74.1291 84.4546 73.9268 84.3737 73.9268 84.1106ZM74.3922 79.8C74.2101 79.9012 74.0482 80.1441 74.0482 80.3262V84.0499C74.0482 84.232 74.1898 84.2927 74.3922 84.1915L78.0956 82.0464C78.2778 81.9452 78.4397 81.7023 78.4397 81.5202V77.7966C78.4397 77.6144 78.2778 77.5335 78.0956 77.6549L74.3922 79.8Z" fill="#1C1C1C"/>
<path d="M77.0637 78.4241L77.7518 78.9502L77.2661 79.2336V81.6216L76.8816 81.8442V79.4562L76.3757 79.7395L77.0637 78.4241Z" fill="#1C1C1C"/>
<path d="M75.4852 79.3343L76.1733 79.8604L75.6673 80.1438V82.5318L75.3031 82.7544V80.3664L74.7971 80.6497L75.4852 79.3343Z" fill="#1C1C1C"/>
<path d="M74.7971 83.7059L77.7518 81.9858V81.581L74.7971 83.3012V83.7059Z" fill="#1C1C1C"/>
<path d="M68.139 87.4496V83.7462C68.139 83.4831 68.3616 83.1391 68.6044 82.9974L72.3078 80.8523C72.5709 80.6904 72.7733 80.7916 72.7733 81.0547V84.7783C72.7733 85.0414 72.5709 85.3652 72.3078 85.5271L68.6044 87.6722C68.3413 87.8341 68.139 87.733 68.139 87.4699V87.4496ZM68.6044 83.1189C68.4223 83.22 68.2604 83.4629 68.2604 83.645V87.3485C68.2604 87.5306 68.4223 87.5913 68.6044 87.4901L72.3078 85.345C72.49 85.2438 72.6519 85.0009 72.6519 84.8188V81.0951C72.6519 80.913 72.5102 80.8523 72.3078 80.9535L68.6044 83.0986V83.1189Z" fill="#1C1C1C"/>
<path d="M69.9198 86.2963L70.365 86.0332V84.5761C69.5556 84.9606 69.8794 82.5726 69.8794 82.5726L71.1138 81.8643C71.1138 81.8643 71.2352 83.7666 70.5674 84.4344V85.932L71.0126 85.6689C71.0126 85.6689 71.1138 85.6689 71.1138 85.7094C71.1138 85.7498 71.0733 85.851 71.0126 85.8713L69.8996 86.5189C69.8996 86.5189 69.7984 86.5189 69.7984 86.4784C69.7984 86.4177 69.8389 86.3367 69.8996 86.3165L69.9198 86.2963Z" fill="#1C1C1C"/>
<path d="M79.4719 80.9128V77.1891C79.4719 76.9261 79.6743 76.582 79.9374 76.4404L83.661 74.2952C83.9241 74.1535 84.1265 74.2345 84.1265 74.4976V78.2212C84.1265 78.4843 83.9241 78.8081 83.661 78.97L79.9374 81.1152C79.6743 81.2568 79.4719 81.1759 79.4719 80.9128ZM79.9374 76.582C79.7552 76.6832 79.5933 76.926 79.5933 77.1082V80.8319C79.5933 81.014 79.735 81.0747 79.9374 80.9735L83.661 78.8284C83.8432 78.7272 84.0051 78.4843 84.0051 78.3022V74.5988C84.0051 74.4166 83.8634 74.3559 83.661 74.4571L79.9374 76.6022V76.582Z" fill="#1C1C1C"/>
<path d="M83.4182 76.7235L80.2004 78.5651C80.2004 78.5651 80.8278 77.0473 81.8397 76.4807C82.8515 75.8938 83.3979 76.7235 83.3979 76.7235H83.4182Z" fill="#1C1C1C"/>
<path d="M81.8196 79.6381C81.9208 79.5774 82.0017 79.4964 82.0624 79.3952C82.2041 79.1524 82.2041 78.8893 82.2041 78.8691C82.2041 78.8488 82.1839 78.8286 82.1434 78.8691C82.1029 78.8691 82.0827 78.9298 82.0827 78.9703C82.0827 78.9703 82.0827 79.1929 81.9815 79.375C81.941 79.456 81.8803 79.4964 81.8196 79.5369C81.7386 79.5976 81.6577 79.5976 81.6172 79.5774C81.4958 79.5167 81.516 79.2333 81.516 79.2333V77.837C81.516 77.837 81.4958 77.7965 81.4553 77.8167C81.4148 77.8167 81.3946 77.8774 81.3946 77.8977V79.294C81.3946 79.294 81.3744 79.6178 81.516 79.6988C81.597 79.7393 81.6779 79.719 81.7994 79.6583L81.8196 79.6381Z" fill="#1C1C1C"/>
<path d="M83.4184 75.6713C83.4184 75.6713 83.6207 75.9951 83.4184 76.1165C83.216 76.238 83.4184 75.6713 83.4184 75.6713Z" fill="#1C1C1C"/>
<path d="M82.5682 75.5499C82.5682 75.5499 82.7706 75.8737 82.5682 75.9951C82.3658 76.1165 82.5682 75.5499 82.5682 75.5499Z" fill="#1C1C1C"/>
<path d="M81.2325 76.2585C81.2325 76.2585 81.4349 76.5823 81.2325 76.7038C81.0301 76.8252 81.2325 76.2585 81.2325 76.2585Z" fill="#1C1C1C"/>
<path d="M80.3626 77.432C80.3626 77.432 80.565 77.7558 80.3626 77.8772C80.1602 77.9986 80.3626 77.432 80.3626 77.432Z" fill="#1C1C1C"/>
<path d="M80.747 76.2991C80.747 76.2991 80.9494 76.6229 80.747 76.7444C80.5446 76.8658 80.747 76.2991 80.747 76.2991Z" fill="#1C1C1C"/>
<path d="M81.8803 75.6308C81.8803 75.6308 82.0827 75.9546 81.8803 76.076C81.678 76.1974 81.8803 75.6308 81.8803 75.6308Z" fill="#1C1C1C"/>
<path d="M83.1549 74.9023C83.1549 74.9023 83.3573 75.2261 83.1549 75.3475C82.9526 75.469 83.1549 74.9023 83.1549 74.9023Z" fill="#1C1C1C"/>
<path d="M64.1722 70.6726L68.4018 68.2441V65.1073L64.1722 67.5358V70.6726Z" fill="white"/>
<path d="M31.0239 99.1064L53.1838 86.2153L51.5041 85.2439L29.3442 98.135L31.0239 99.1064Z" fill="#A58566"/>
<path d="M29.405 72.9598L51.5648 60.0687L41.4664 54.2201L19.2863 67.1113L29.405 72.9598Z" fill="#D7AE82"/>
<path d="M29.3442 98.1348L51.5041 85.2436L51.5648 60.0685L29.405 72.9596L29.3442 98.1348Z" fill="#6A5640"/>
<path d="M31.0847 73.931L53.2647 61.0399L51.5648 60.0685L29.405 72.9596L31.0847 73.931Z" fill="#AC7941"/>
<path d="M29.405 72.9597L29.3442 98.1348L31.0239 99.1062L31.0846 73.931L29.405 72.9597Z" fill="#885628"/>
<path d="M31.0237 99.1066L53.1836 86.2155L53.2645 61.0403L31.0845 73.9314L31.0237 99.1066Z" fill="#5F4123"/>
<path d="M19.2862 67.1113L19.2255 92.2864L41.1424 104.955L41.2031 79.7596L31.0845 73.9312L31.0238 99.1064L29.3441 98.135L29.4048 72.9599L19.2862 67.1113Z" fill="#C19B77"/>
<path d="M41.2031 79.7598L63.3629 66.8889L53.2645 61.0403L31.0845 73.9314L41.2031 79.7598Z" fill="#D7AE82"/>
<path d="M41.1424 104.955L63.3022 92.0638L63.3629 66.8887L41.2031 79.7596L41.1424 104.955Z" fill="#AA8057"/>
<path d="M37.5404 84.2319C36.3869 83.5641 35.4357 81.9248 35.4357 80.5892C35.4357 79.2535 36.3869 78.7071 37.5404 79.375C38.6939 80.0428 39.6451 81.682 39.6451 83.0177C39.6451 84.3533 38.6939 84.8997 37.5404 84.2319ZM37.5404 83.4022C38.2892 83.8474 38.9165 83.4831 38.9165 82.6129C38.9165 81.7427 38.3094 80.6701 37.5404 80.2452C36.7916 79.8202 36.1643 80.1642 36.1643 81.0344C36.1643 81.9046 36.7714 82.9772 37.5404 83.4022Z" fill="#513B29"/>
<path d="M51.6862 97.0623V93.3386C51.6862 93.0755 51.9088 92.7518 52.1516 92.5899L55.855 90.4447C56.1181 90.3031 56.3407 90.384 56.3407 90.6471V94.3707C56.3407 94.6338 56.1181 94.9576 55.855 95.1195L52.1516 97.2647C51.8885 97.4266 51.6862 97.3254 51.6862 97.0623ZM52.1516 92.7518C51.9695 92.8529 51.8076 93.0958 51.8076 93.2779V97.0016C51.8076 97.1837 51.9695 97.2444 52.1516 97.1432L55.855 94.9981C56.0372 94.8969 56.1991 94.654 56.1991 94.4719V90.7483C56.1991 90.5661 56.0574 90.5054 55.855 90.6066L52.1516 92.7518Z" fill="#1C1C1C"/>
<path d="M54.8231 91.3755L55.5112 91.9017L55.0255 92.1851V94.573L54.641 94.7957V92.4077L54.1351 92.691L54.8231 91.3755Z" fill="#1C1C1C"/>
<path d="M53.2448 92.2863L53.9531 92.8125L53.4472 93.0958V95.4838L53.0627 95.7064V93.3184L52.5568 93.6018L53.2448 92.2863Z" fill="#1C1C1C"/>
<path d="M52.5568 96.6577L55.5114 94.9375V94.5328L52.5568 96.253V96.6577Z" fill="#1C1C1C"/>
<path d="M45.8983 100.401V96.6774C45.8983 96.4143 46.1209 96.0905 46.3637 95.9286L50.0874 93.7834C50.3505 93.6418 50.5528 93.7227 50.5528 93.9858V97.7095C50.5528 97.9725 50.3505 98.2963 50.0874 98.4582L46.3637 100.603C46.1006 100.765 45.8983 100.664 45.8983 100.401ZM46.3637 96.0702C46.1816 96.1714 46.0197 96.4143 46.0197 96.5964V100.32C46.0197 100.502 46.1816 100.563 46.3637 100.462L50.0874 98.3166C50.2695 98.2154 50.4314 97.9725 50.4314 97.7904V94.0667C50.4314 93.8846 50.2897 93.8239 50.0874 93.9251L46.3637 96.0702Z" fill="#1C1C1C"/>
<path d="M47.6791 99.248L48.1244 98.9849V97.5279C47.3149 97.9124 47.6387 95.5244 47.6387 95.5244L48.8731 94.816C48.8731 94.816 49.0148 96.7184 48.347 97.3862V98.8838L48.7922 98.6207C48.7922 98.6207 48.8934 98.6207 48.8934 98.6611C48.8934 98.7219 48.8529 98.8028 48.7922 98.823L47.6791 99.4706C47.6791 99.4706 47.578 99.4706 47.578 99.4301C47.578 99.3694 47.6184 99.2885 47.6791 99.2683V99.248Z" fill="#1C1C1C"/>
<path d="M57.2313 93.8645V90.1409C57.2313 89.8778 57.4337 89.554 57.6968 89.3921L61.4002 87.247C61.6633 87.0851 61.8656 87.1862 61.8656 87.4493V91.173C61.8656 91.4361 61.6633 91.7599 61.4002 91.9218L57.6968 94.0669C57.4337 94.2086 57.2313 94.1276 57.2313 93.8645ZM57.717 89.5338C57.5349 89.635 57.373 89.8778 57.373 90.06V93.7634C57.373 93.9455 57.5349 94.0062 57.717 93.905L61.4204 91.7599C61.6026 91.6587 61.7645 91.4159 61.7645 91.2337V87.51C61.7645 87.3279 61.6026 87.2672 61.4204 87.3684L57.717 89.5135V89.5338Z" fill="#1C1C1C"/>
<path d="M61.1775 89.6755L57.9598 91.5171C57.9598 91.5171 58.5871 89.9993 59.599 89.4326C60.6109 88.8457 61.1573 89.6755 61.1573 89.6755H61.1775Z" fill="#1C1C1C"/>
<path d="M59.579 92.5893C59.6801 92.5286 59.7611 92.4477 59.8218 92.3465C59.9635 92.1036 59.9635 91.8405 59.9635 91.8405C59.9635 91.8001 59.9432 91.8001 59.9028 91.8405C59.8825 91.8608 59.842 91.9013 59.842 91.9417C59.842 91.9417 59.842 92.1643 59.7409 92.3465C59.7004 92.4274 59.6397 92.4679 59.579 92.5084C59.498 92.5489 59.4171 92.5691 59.3766 92.5489C59.2552 92.4882 59.2754 92.2048 59.2754 92.2048V90.8085C59.2754 90.8085 59.2552 90.768 59.2147 90.7882C59.1742 90.7882 59.154 90.8489 59.154 90.8894V92.2858C59.154 92.2858 59.1135 92.6096 59.2754 92.6905C59.3563 92.731 59.4373 92.7108 59.5587 92.6501L59.579 92.5893Z" fill="#1C1C1C"/>
<path d="M61.1774 88.6233C61.1774 88.6233 61.3798 88.9471 61.1774 89.0685C60.975 89.19 61.1774 88.6233 61.1774 88.6233Z" fill="#1C1C1C"/>
<path d="M60.3275 88.5016C60.3275 88.5016 60.5299 88.8254 60.3275 88.9468C60.1251 89.0682 60.3275 88.5016 60.3275 88.5016Z" fill="#1C1C1C"/>
<path d="M59.0124 89.21C59.0124 89.21 59.2147 89.5338 59.0124 89.6552C58.81 89.7767 59.0124 89.21 59.0124 89.21Z" fill="#1C1C1C"/>
<path d="M58.1216 90.3637C58.1216 90.3637 58.324 90.6875 58.1216 90.8089C57.9192 90.9303 58.1216 90.3637 58.1216 90.3637Z" fill="#1C1C1C"/>
<path d="M58.5063 89.2506C58.5063 89.2506 58.7086 89.5744 58.5063 89.6958C58.3039 89.8172 58.5063 89.2506 58.5063 89.2506Z" fill="#1C1C1C"/>
<path d="M59.6394 88.5827C59.6394 88.5827 59.8418 88.9065 59.6394 89.0279C59.437 89.1493 59.6394 88.5827 59.6394 88.5827Z" fill="#1C1C1C"/>
<path d="M60.9142 87.8543C60.9142 87.8543 61.1166 88.178 60.9142 88.2995C60.7119 88.4209 60.9142 87.8543 60.9142 87.8543Z" fill="#1C1C1C"/>
<path d="M41.9315 83.6251L46.1611 81.1966V78.0598L41.9315 80.4883V83.6251Z" fill="white"/>
<path d="M98.7381 86.1544L120.918 73.2835L119.218 72.3121L97.0584 85.183L98.7381 86.1544Z" fill="#A58566"/>
<path d="M97.1393 60.0078L119.299 47.1166L109.18 41.2883L87.0206 54.1592L97.1393 60.0078Z" fill="#D7AE82"/>
<path d="M97.0584 85.1829L119.218 72.312L119.299 47.1166L97.1394 60.0078L97.0584 85.1829Z" fill="#6A5640"/>
<path d="M98.819 60.9791L120.979 48.088L119.299 47.1166L97.1393 60.0078L98.819 60.9791Z" fill="#AC7941"/>
<path d="M97.1394 60.0076L97.0584 85.1828L98.7381 86.1542L98.8191 60.979L97.1394 60.0076Z" fill="#885628"/>
<path d="M98.7379 86.1543L120.918 73.2834L120.979 48.088L98.8189 60.9791L98.7379 86.1543Z" fill="#5F4123"/>
<path d="M87.0205 54.1592L86.9395 79.3344L108.856 92.0029L108.937 66.8075L98.8188 60.9792L98.7378 86.1544L97.0582 85.183L97.1391 60.0078L87.0205 54.1592Z" fill="#C19B77"/>
<path d="M108.938 66.8075L131.098 53.9366L120.979 48.088L98.8191 60.9791L108.938 66.8075Z" fill="#D7AE82"/>
<path d="M108.857 92.0026L131.017 79.1115L131.098 53.9363L108.938 66.8072L108.857 92.0026Z" fill="#AA8057"/>
<path d="M105.254 71.2998C104.101 70.632 103.15 68.9928 103.15 67.6571C103.15 66.3215 104.101 65.7751 105.254 66.4429C106.408 67.1107 107.359 68.7499 107.359 70.0856C107.359 71.4212 106.408 71.9677 105.254 71.2998ZM105.254 70.4499C106.003 70.8749 106.63 70.5308 106.63 69.6606C106.63 68.7904 106.023 67.7178 105.254 67.2929C104.506 66.8679 103.878 67.2119 103.878 68.0821C103.878 68.9523 104.506 70.0046 105.254 70.4499Z" fill="#513B29"/>
<path d="M119.4 84.1105V80.3869C119.4 80.1238 119.623 79.8 119.866 79.6381L123.589 77.4929C123.852 77.3513 124.055 77.4322 124.055 77.6953V81.419C124.055 81.682 123.852 82.0058 123.589 82.1677L119.866 84.3129C119.602 84.4546 119.4 84.3736 119.4 84.1105ZM119.866 79.8C119.683 79.9012 119.522 80.144 119.522 80.3262V84.0498C119.522 84.2319 119.663 84.2926 119.866 84.1915L123.589 82.0463C123.771 81.9451 123.933 81.7023 123.933 81.5202V77.7965C123.933 77.6144 123.792 77.5536 123.589 77.6548L119.866 79.8Z" fill="#1C1C1C"/>
<path d="M122.557 78.424L123.245 78.9502L122.739 79.2335V81.6417L122.355 81.8643V79.4561L121.869 79.7394L122.557 78.424Z" fill="#1C1C1C"/>
<path d="M120.978 79.3342L121.666 79.8604L121.161 80.1437V82.5317L120.776 82.7543V80.3663L120.29 80.6699L120.978 79.3342Z" fill="#1C1C1C"/>
<path d="M120.29 83.7059L123.245 81.9857V81.581L120.29 83.3011V83.7059Z" fill="#1C1C1C"/>
<path d="M113.632 87.4495V83.7258C113.632 83.4627 113.835 83.139 114.098 82.9771L117.801 80.8319C118.064 80.6903 118.267 80.7712 118.267 81.0343V84.7377C118.267 85.0008 118.064 85.3246 117.801 85.4865L114.098 87.6316C113.835 87.7935 113.632 87.6923 113.632 87.4293V87.4495ZM114.098 83.1187C113.916 83.2199 113.754 83.4628 113.754 83.6651V87.3685C113.754 87.5507 113.916 87.6316 114.098 87.5102L117.801 85.365C117.983 85.2639 118.145 85.021 118.145 84.8389V81.1152C118.145 80.9331 118.004 80.8724 117.801 80.9736L114.098 83.1187Z" fill="#1C1C1C"/>
<path d="M115.393 86.2961L115.838 86.033V84.5759C115.049 84.9604 115.352 82.5725 115.352 82.5725L116.587 81.8641C116.587 81.8641 116.729 83.7664 116.041 84.4343V85.9318L116.486 85.6688C116.486 85.6688 116.587 85.6687 116.587 85.7092C116.587 85.7699 116.546 85.8509 116.486 85.8711L115.373 86.5187C115.373 86.5187 115.271 86.5187 115.271 86.4782C115.271 86.4175 115.312 86.3366 115.373 86.3163L115.393 86.2961Z" fill="#1C1C1C"/>
<path d="M124.966 80.9128V77.2094C124.966 76.9463 125.188 76.6225 125.431 76.4606L129.155 74.3154C129.418 74.1738 129.62 74.2547 129.62 74.5178V78.2415C129.62 78.5046 129.418 78.8283 129.155 78.9902L125.431 81.1354C125.168 81.2771 124.966 81.1961 124.966 80.933V80.9128ZM125.431 76.582C125.249 76.6832 125.087 76.926 125.087 77.1082V80.8318C125.087 81.014 125.249 81.0747 125.431 80.9735L129.155 78.8283C129.337 78.7272 129.499 78.4843 129.499 78.3022V74.5785C129.499 74.3964 129.357 74.3357 129.155 74.4369L125.431 76.582Z" fill="#1C1C1C"/>
<path d="M128.892 76.7437L125.674 78.5853C125.674 78.5853 126.301 77.0877 127.313 76.4806C128.345 75.8937 128.872 76.7235 128.872 76.7235L128.892 76.7437Z" fill="#1C1C1C"/>
<path d="M127.313 79.6379C127.414 79.5772 127.495 79.4962 127.576 79.395C127.718 79.1522 127.697 78.8891 127.697 78.8891C127.697 78.8689 127.677 78.8486 127.637 78.8891C127.596 78.8891 127.576 78.9498 127.576 78.9903C127.576 78.9903 127.576 79.2129 127.475 79.395C127.434 79.476 127.374 79.5165 127.313 79.5569C127.232 79.5974 127.151 79.6177 127.111 79.5974C126.989 79.5367 127.009 79.2534 127.009 79.2534V77.857C127.009 77.857 126.989 77.8165 126.949 77.8367C126.908 77.8367 126.888 77.8975 126.888 77.9379V79.3141C126.888 79.3141 126.868 79.6379 127.009 79.7188C127.09 79.7593 127.171 79.7391 127.293 79.6783L127.313 79.6379Z" fill="#1C1C1C"/>
<path d="M128.891 75.6713C128.891 75.6713 129.094 75.9951 128.891 76.1165C128.689 76.2379 128.891 75.6713 128.891 75.6713Z" fill="#1C1C1C"/>
<path d="M128.062 75.5498C128.062 75.5498 128.264 75.8736 128.062 75.9951C127.859 76.1165 128.062 75.5498 128.062 75.5498Z" fill="#1C1C1C"/>
<path d="M126.726 76.2585C126.726 76.2585 126.928 76.5823 126.726 76.7037C126.523 76.8252 126.726 76.2585 126.726 76.2585Z" fill="#1C1C1C"/>
<path d="M125.856 77.4319C125.856 77.4319 126.058 77.7557 125.856 77.8772C125.654 77.9986 125.856 77.4319 125.856 77.4319Z" fill="#1C1C1C"/>
<path d="M126.22 76.2991C126.22 76.2991 126.422 76.6229 126.22 76.7443C126.018 76.8657 126.22 76.2991 126.22 76.2991Z" fill="#1C1C1C"/>
<path d="M127.374 75.6307C127.374 75.6307 127.576 75.9545 127.374 76.076C127.171 76.1974 127.374 75.6307 127.374 75.6307Z" fill="#1C1C1C"/>
<path d="M128.629 74.9223C128.629 74.9223 128.831 75.2461 128.629 75.3675C128.426 75.4889 128.629 74.9223 128.629 74.9223Z" fill="#1C1C1C"/>
<path d="M109.646 70.6725L113.875 68.244V65.1072L109.646 67.5559V70.6725Z" fill="white"/>
<path d="M76.5168 99.086L98.6766 86.2151L96.9969 85.2437L74.8168 98.1146L76.5168 99.086Z" fill="#A58566"/>
<path d="M74.898 72.9389L97.0578 60.068L86.9392 54.2194L64.7794 67.1106L74.898 72.9389Z" fill="#D7AE82"/>
<path d="M74.8168 98.1141L96.9969 85.2432L97.0576 60.068L74.8978 72.9389L74.8168 98.1141Z" fill="#6A5640"/>
<path d="M76.5777 73.9103L98.7375 61.0394L97.0578 60.068L74.898 72.9389L76.5777 73.9103Z" fill="#AC7941"/>
<path d="M74.8978 72.9392L74.8168 98.1144L76.5168 99.0858L76.5775 73.9106L74.8978 72.9392Z" fill="#885628"/>
<path d="M76.5172 99.0857L98.677 86.2148L98.7377 61.0396L76.5779 73.9105L76.5172 99.0857Z" fill="#5F4123"/>
<path d="M64.7791 67.1109L64.6982 92.286L86.6151 104.934L86.6961 79.7592L76.5775 73.9106L76.5168 99.0857L74.8168 98.1144L74.8978 72.9392L64.7791 67.1109Z" fill="#C19B77"/>
<path d="M86.6964 79.7591L108.856 66.8679L98.7376 61.0396L76.5778 73.9105L86.6964 79.7591Z" fill="#D7AE82"/>
<path d="M86.6153 104.934L108.795 92.0431L108.856 66.868L86.6963 79.7591L86.6153 104.934Z" fill="#AA8057"/>
<path d="M83.0128 84.2314C81.8593 83.5636 80.9081 81.9244 80.9081 80.5887C80.9081 79.2531 81.8593 78.7067 83.0128 79.3745C84.1663 80.0423 85.1175 81.6816 85.1175 83.0172C85.1175 84.3529 84.1663 84.8993 83.0128 84.2314ZM83.0128 83.3815C83.7616 83.8065 84.389 83.4624 84.389 82.5922C84.389 81.722 83.7616 80.6495 83.0128 80.2245C82.264 79.7995 81.6367 80.1435 81.6367 81.0137C81.6367 81.8839 82.2438 82.9565 83.0128 83.3815Z" fill="#513B29"/>
<path d="M97.1595 97.0621V93.3385C97.1595 93.0754 97.3821 92.7516 97.6249 92.5897L101.328 90.4445C101.591 90.2827 101.794 90.3838 101.794 90.6469V94.3706C101.794 94.6336 101.591 94.9575 101.328 95.1194L97.6249 97.2645C97.3618 97.4264 97.1595 97.3252 97.1595 97.0621ZM97.6452 92.7313C97.4631 92.8325 97.3012 93.0754 97.3012 93.2575V96.961C97.3012 97.1431 97.4428 97.2038 97.6452 97.1026L101.349 94.9575C101.531 94.8563 101.693 94.6134 101.693 94.4313V90.7076C101.693 90.5255 101.531 90.4648 101.349 90.566L97.6452 92.7111V92.7313Z" fill="#1C1C1C"/>
<path d="M100.316 91.3554L101.004 91.8816L100.499 92.1851V94.5731L100.114 94.7957V92.4078L99.6284 92.6911L100.316 91.3554Z" fill="#1C1C1C"/>
<path d="M98.7378 92.2659L99.4259 92.792L98.9199 93.0956V95.4836L98.5557 95.7062V93.298L98.0497 93.6015L98.7378 92.2659Z" fill="#1C1C1C"/>
<path d="M98.0497 96.6376L101.004 94.9377V94.5329L98.0497 96.2329V96.6376Z" fill="#1C1C1C"/>
<path d="M91.3917 100.401V96.6774C91.3917 96.4143 91.5941 96.0905 91.8572 95.9286L95.5809 93.7835C95.8439 93.6418 96.0463 93.7228 96.0463 93.9859V97.7095C96.0463 97.9726 95.8237 98.2964 95.5809 98.4583L91.8572 100.603C91.5941 100.745 91.3917 100.664 91.3917 100.401ZM91.8572 96.0703C91.6751 96.1715 91.5132 96.4143 91.5132 96.5965V100.32C91.5132 100.502 91.6548 100.563 91.8572 100.462L95.5809 98.3166C95.763 98.2155 95.9249 97.9726 95.9249 97.7905V94.0668C95.9249 93.8847 95.763 93.8037 95.5809 93.9252L91.8572 96.0703Z" fill="#1C1C1C"/>
<path d="M93.1727 99.2275L93.6179 98.9644V97.5073C92.8084 97.8918 93.1322 95.5038 93.1322 95.5038L94.3667 94.7955C94.3667 94.7955 94.5084 96.6978 93.8203 97.3657V98.8632L94.2655 98.6001C94.2655 98.6001 94.3667 98.6001 94.3667 98.6406C94.3667 98.6811 94.3262 98.7823 94.2655 98.8025L93.1525 99.4501C93.1525 99.4501 93.0513 99.4501 93.0513 99.3894C93.0513 99.3287 93.0918 99.2477 93.1525 99.2275H93.1727Z" fill="#1C1C1C"/>
<path d="M102.724 93.8441V90.1407C102.724 89.8776 102.927 89.5336 103.19 89.3919L106.913 87.2468C107.177 87.0849 107.379 87.186 107.379 87.4491V91.1728C107.379 91.4359 107.177 91.7597 106.913 91.9216L103.19 94.0667C102.927 94.2286 102.724 94.1274 102.724 93.8643V93.8441ZM103.19 89.5133C103.008 89.6145 102.866 89.8574 102.866 90.0395V93.7429C102.866 93.925 103.008 93.9858 103.19 93.8846L106.913 91.7394C107.096 91.6383 107.258 91.3954 107.258 91.2133V87.4896C107.258 87.3075 107.096 87.2468 106.913 87.348L103.19 89.4931V89.5133Z" fill="#1C1C1C"/>
<path d="M106.651 89.6758L103.433 91.5174C103.433 91.5174 104.061 90.0198 105.072 89.4329C106.084 88.846 106.631 89.6758 106.631 89.6758H106.651Z" fill="#1C1C1C"/>
<path d="M105.072 92.5894C105.173 92.5287 105.254 92.4477 105.315 92.3465C105.457 92.1037 105.457 91.8406 105.436 91.8406C105.436 91.8203 105.416 91.8001 105.376 91.8406C105.335 91.8608 105.315 91.9013 105.315 91.9418C105.315 91.9418 105.315 92.1644 105.214 92.3465C105.173 92.4072 105.113 92.4679 105.052 92.5084C104.971 92.5489 104.89 92.5691 104.849 92.5489C104.728 92.4882 104.748 92.2049 104.748 92.2049V90.8085C104.748 90.8085 104.728 90.768 104.688 90.7883C104.647 90.8085 104.627 90.849 104.627 90.8895V92.2858C104.627 92.2858 104.607 92.6096 104.748 92.6906C104.829 92.731 104.91 92.7108 105.032 92.6501L105.072 92.5894Z" fill="#1C1C1C"/>
<path d="M106.651 88.6028C106.651 88.6028 106.853 88.9266 106.651 89.048C106.448 89.1694 106.651 88.6028 106.651 88.6028Z" fill="#1C1C1C"/>
<path d="M105.821 88.5016C105.821 88.5016 106.023 88.8254 105.821 88.9468C105.619 89.0683 105.821 88.5016 105.821 88.5016Z" fill="#1C1C1C"/>
<path d="M104.485 89.2101C104.485 89.2101 104.687 89.5339 104.485 89.6553C104.283 89.7767 104.485 89.2101 104.485 89.2101Z" fill="#1C1C1C"/>
<path d="M103.615 90.3637C103.615 90.3637 103.817 90.6875 103.615 90.8089C103.412 90.9304 103.615 90.3637 103.615 90.3637Z" fill="#1C1C1C"/>
<path d="M103.979 89.2506C103.979 89.2506 104.181 89.5744 103.979 89.6958C103.777 89.8173 103.979 89.2506 103.979 89.2506Z" fill="#1C1C1C"/>
<path d="M105.133 88.5825C105.133 88.5825 105.335 88.9063 105.133 89.0277C104.93 89.1491 105.133 88.5825 105.133 88.5825Z" fill="#1C1C1C"/>
<path d="M106.387 87.8543C106.387 87.8543 106.59 88.1781 106.387 88.2995C106.185 88.4209 106.387 87.8543 106.387 87.8543Z" fill="#1C1C1C"/>
<path d="M87.4051 83.6246L91.6347 81.1759V78.0391L87.4051 80.4878V83.6246Z" fill="white"/>
<path d="M54.2763 112.058L76.4361 99.1672L74.7564 98.1958L52.5966 111.067L54.2763 112.058Z" fill="#A58566"/>
<path d="M52.6575 85.8914L74.8173 73.0003L64.6986 67.172L42.5388 80.0429L52.6575 85.8914Z" fill="#D7AE82"/>
<path d="M52.5966 111.066L74.7564 98.1955L74.8171 73L52.6573 85.8912L52.5966 111.066Z" fill="#6A5640"/>
<path d="M54.3372 86.8626L76.5172 73.9714L74.8173 73L52.6575 85.8912L54.3372 86.8626Z" fill="#AC7941"/>
<path d="M52.6573 85.8913L52.5966 111.066L54.2763 112.058L54.337 86.8626L52.6573 85.8913Z" fill="#885628"/>
<path d="M54.2761 112.058L76.4359 99.167L76.5169 73.9716L54.3368 86.8628L54.2761 112.058Z" fill="#5F4123"/>
<path d="M42.5386 80.0429L42.4778 105.238L64.3746 117.887L64.4555 92.6912L54.3369 86.8628L54.2762 112.058L52.5965 111.067L52.6572 85.8914L42.5386 80.0429Z" fill="#C19B77"/>
<path d="M64.4559 92.6911L86.6156 79.8202L76.5173 73.9716L54.3372 86.8628L64.4559 92.6911Z" fill="#D7AE82"/>
<path d="M64.3745 117.886L86.5545 104.995L86.6152 79.82L64.4554 92.6909L64.3745 117.886Z" fill="#AA8057"/>
<path d="M60.7928 97.1835C59.6393 96.5157 58.6881 94.8765 58.6881 93.5408C58.6881 92.2051 59.6393 91.6587 60.7928 92.3266C61.9463 92.9944 62.8975 94.6336 62.8975 95.9693C62.8975 97.3049 61.9463 97.8514 60.7928 97.1835ZM60.7928 96.3335C61.5416 96.7585 62.1689 96.4145 62.1689 95.5443C62.1689 94.6741 61.5618 93.6015 60.7928 93.1765C60.044 92.7515 59.4167 93.0956 59.4167 93.9658C59.4167 94.836 60.0238 95.9085 60.7928 96.3335Z" fill="#513B29"/>
<path d="M74.9185 110.014V106.29C74.9185 106.027 75.1209 105.703 75.384 105.541L79.1076 103.396C79.3707 103.234 79.5731 103.335 79.5731 103.599V107.322C79.5731 107.585 79.3505 107.909 79.1076 108.071L75.384 110.216C75.1209 110.358 74.9185 110.277 74.9185 110.014ZM75.4042 105.683C75.2221 105.784 75.0602 106.027 75.0602 106.209V109.933C75.0602 110.115 75.2221 110.176 75.4042 110.074L79.1279 107.929C79.31 107.828 79.4719 107.585 79.4719 107.403V103.679C79.4719 103.497 79.31 103.437 79.1279 103.538L75.4042 105.683Z" fill="#1C1C1C"/>
<path d="M78.0754 104.307L78.7635 104.833L78.2575 105.136V107.524L77.8933 107.747V105.339L77.3873 105.642L78.0754 104.307Z" fill="#1C1C1C"/>
<path d="M76.4969 105.217L77.1849 105.744L76.6992 106.027V108.435L76.3147 108.658V106.25L75.8088 106.553L76.4969 105.217Z" fill="#1C1C1C"/>
<path d="M75.8088 109.589L78.7634 107.889V107.464L75.8088 109.184V109.589Z" fill="#1C1C1C"/>
<path d="M69.1508 113.333V109.609C69.1508 109.346 69.3734 109.022 69.6163 108.86L73.3399 106.715C73.603 106.574 73.8054 106.655 73.8054 106.918V110.641C73.8054 110.904 73.603 111.228 73.3399 111.39L69.6163 113.535C69.3532 113.697 69.1508 113.596 69.1508 113.333ZM69.6163 109.022C69.4341 109.124 69.2722 109.366 69.2722 109.549V113.272C69.2722 113.454 69.4341 113.515 69.6163 113.414L73.3399 111.269C73.5221 111.168 73.684 110.925 73.684 110.743V107.019C73.684 106.837 73.5221 106.776 73.3399 106.877L69.6163 109.022Z" fill="#1C1C1C"/>
<path d="M70.9315 112.18L71.3767 111.917V110.46C70.5874 110.844 70.891 108.456 70.891 108.456L72.1254 107.748C72.1254 107.748 72.2671 109.65 71.5993 110.298V111.795L72.0445 111.532C72.0445 111.532 72.1457 111.532 72.1457 111.573C72.1457 111.613 72.1052 111.714 72.0445 111.735L70.9315 112.382C70.9315 112.382 70.8303 112.382 70.8303 112.342C70.8303 112.281 70.8707 112.2 70.9315 112.18Z" fill="#1C1C1C"/>
<path d="M80.4837 106.796V103.073C80.4837 102.81 80.6861 102.486 80.9492 102.324L84.6728 100.179C84.9359 100.037 85.1383 100.118 85.1383 100.381V104.105C85.1383 104.368 84.9157 104.692 84.6728 104.854L80.9492 106.999C80.6861 107.14 80.4837 107.06 80.4837 106.796ZM80.9694 102.466C80.7873 102.567 80.6254 102.81 80.6254 102.992V106.695C80.6254 106.877 80.767 106.938 80.9694 106.837L84.6931 104.692C84.8752 104.591 85.0371 104.348 85.0371 104.166V100.442C85.0371 100.26 84.8752 100.199 84.6931 100.3L80.9694 102.445V102.466Z" fill="#1C1C1C"/>
<path d="M84.4304 102.627L81.2127 104.489C81.2127 104.489 81.8401 102.971 82.8519 102.385C83.8638 101.798 84.4102 102.627 84.4102 102.627H84.4304Z" fill="#1C1C1C"/>
<path d="M82.8314 105.542C82.9326 105.481 83.0135 105.4 83.0945 105.299C83.2362 105.056 83.2362 104.793 83.2362 104.793C83.2362 104.753 83.1957 104.753 83.1754 104.773C83.135 104.793 83.1147 104.833 83.1147 104.874C83.1147 104.874 83.1147 105.097 83.0135 105.279C82.9731 105.339 82.9124 105.4 82.8516 105.441C82.7707 105.481 82.71 105.501 82.6493 105.481C82.5278 105.42 82.5481 105.137 82.5481 105.137V103.741C82.5481 103.741 82.5278 103.7 82.4874 103.72C82.4469 103.741 82.4267 103.781 82.4267 103.822V105.218C82.4267 105.218 82.4064 105.542 82.5481 105.623C82.629 105.663 82.71 105.643 82.8314 105.582V105.542Z" fill="#1C1C1C"/>
<path d="M84.4301 101.555C84.4301 101.555 84.6325 101.879 84.4301 102C84.2277 102.122 84.4301 101.555 84.4301 101.555Z" fill="#1C1C1C"/>
<path d="M83.5805 101.454C83.5805 101.454 83.7829 101.778 83.5805 101.899C83.3781 102.021 83.5805 101.454 83.5805 101.454Z" fill="#1C1C1C"/>
<path d="M82.2442 102.162C82.2442 102.162 82.4466 102.486 82.2442 102.607C82.0419 102.729 82.2442 102.162 82.2442 102.162Z" fill="#1C1C1C"/>
<path d="M81.3743 103.316C81.3743 103.316 81.5767 103.639 81.3743 103.761C81.1719 103.882 81.3743 103.316 81.3743 103.316Z" fill="#1C1C1C"/>
<path d="M81.7384 102.203C81.7384 102.203 81.9408 102.527 81.7384 102.648C81.5361 102.769 81.7384 102.203 81.7384 102.203Z" fill="#1C1C1C"/>
<path d="M82.8921 101.535C82.8921 101.535 83.0944 101.859 82.8921 101.98C82.6897 102.102 82.8921 101.535 82.8921 101.535Z" fill="#1C1C1C"/>
<path d="M84.1672 100.806C84.1672 100.806 84.3696 101.13 84.1672 101.251C83.9648 101.373 84.1672 100.806 84.1672 100.806Z" fill="#1C1C1C"/>
<path d="M65.1638 96.5764L69.4136 94.1277V90.9909L65.1638 93.4396V96.5764Z" fill="white"/>
<path d="M85.1181 54.9891L62.9583 42.1181L64.6379 41.1265L86.7978 54.0177L85.1181 54.9891Z" fill="#A58566"/>
<path d="M86.7369 28.8428L64.5568 15.9516L74.6755 10.1233L96.8555 22.9942L86.7369 28.8428Z" fill="#D7AE82"/>
<path d="M86.7976 54.0174L64.6378 41.1262L64.5568 15.9511L86.7369 28.8422L86.7976 54.0174Z" fill="#6A5640"/>
<path d="M85.0571 29.8136L62.8771 16.9225L64.5568 15.9511L86.7368 28.8422L85.0571 29.8136Z" fill="#AC7941"/>
<path d="M86.7368 28.8423L86.7975 54.0175L85.1178 54.9889L85.0571 29.8137L86.7368 28.8423Z" fill="#885628"/>
<path d="M85.1178 54.9893L62.958 42.1184L62.8771 16.923L85.0571 29.8141L85.1178 54.9893Z" fill="#5F4123"/>
<path d="M96.8554 22.9942L96.9161 48.1896L74.9991 60.8379L74.9384 35.6627L85.0571 29.8142L85.1178 54.9893L86.7975 54.0179L86.7367 28.8428L96.8554 22.9942Z" fill="#C19B77"/>
<path d="M74.9388 35.6627L52.779 22.7715L62.8774 16.923L85.0574 29.8141L74.9388 35.6627Z" fill="#D7AE82"/>
<path d="M74.9995 60.8376L52.8397 47.9465L52.779 22.7713L74.9388 35.6625L74.9995 60.8376Z" fill="#AA8057"/>
<path d="M76.5173 38.9203C76.5173 37.5847 77.4482 35.9454 78.622 35.2776C79.7755 34.6098 80.7266 35.1562 80.7266 36.4918C80.7266 37.8275 79.7755 39.4667 78.622 40.1345C77.4684 40.8024 76.5173 40.256 76.5173 38.9203ZM79.9778 36.9168C79.9778 36.0466 79.3707 35.6824 78.6017 36.1276C77.8529 36.5526 77.2256 37.6251 77.2256 38.4953C77.2256 39.3655 77.8327 39.7298 78.6017 39.2846C79.3505 38.8394 79.9778 37.787 79.9778 36.9168Z" fill="#513B29"/>
<path d="M63.99 53.1476L60.2664 51.0025C60.0033 50.8608 59.8009 50.5168 59.8009 50.2537V46.5503C59.8009 46.2872 60.0235 46.2062 60.2664 46.3479L63.99 48.493C64.2531 48.6347 64.4757 48.9788 64.4757 49.2418V52.9655C64.4757 53.2286 64.2531 53.3095 63.99 53.1679V53.1476ZM60.2664 46.4896C60.0842 46.3884 59.9223 46.4491 59.9223 46.6312V50.3549C59.9223 50.537 60.064 50.7799 60.2664 50.8811L63.99 53.0262C64.1722 53.1274 64.334 53.0667 64.334 52.8845V49.1609C64.334 48.9787 64.1722 48.7359 63.99 48.6347L60.2664 46.4896Z" fill="#1C1C1C"/>
<path d="M61.3189 47.2585L60.6106 47.7847L61.1165 48.068V50.4763L61.501 50.6786V48.2907L62.007 48.5942L61.3189 47.2585Z" fill="#1C1C1C"/>
<path d="M62.8971 48.1692L62.1888 48.6954L62.6948 48.9787V51.3667L63.0793 51.5893V49.2013L63.5852 49.4846L62.8971 48.1692Z" fill="#1C1C1C"/>
<path d="M63.5854 52.5405L60.6105 50.8204V50.4156L63.5854 52.1358V52.5405Z" fill="#1C1C1C"/>
<path d="M69.7778 56.4863L66.0541 54.3411C65.791 54.1792 65.5887 53.8554 65.5887 53.5924V49.8687C65.5887 49.6056 65.791 49.5247 66.0541 49.6663L69.7778 51.8115C70.0409 51.9531 70.2432 52.2972 70.2432 52.5603V56.2839C70.2432 56.547 70.0409 56.628 69.7778 56.4863ZM66.0541 49.8282C65.872 49.727 65.7101 49.7878 65.7101 49.9699V53.6936C65.7101 53.8757 65.8518 54.1185 66.0541 54.2197L69.7778 56.3649C69.9599 56.466 70.1218 56.4053 70.1218 56.2232V52.4996C70.1218 52.3174 69.9599 52.0746 69.7778 51.9734L66.0541 49.8282Z" fill="#1C1C1C"/>
<path d="M68.4625 55.1307L68.0172 54.8677V53.4106C68.8267 53.7951 68.5029 51.4071 68.5029 51.4071L67.2685 50.6988C67.2685 50.6988 67.1268 52.6011 67.7946 53.2487V54.7462L67.3494 54.4832C67.3494 54.4832 67.2482 54.4831 67.2482 54.5439C67.2482 54.6046 67.2887 54.6855 67.3494 54.7058L68.4625 55.3533C68.4625 55.3533 68.5637 55.3533 68.5637 55.2926C68.5637 55.2319 68.5232 55.151 68.4625 55.1307Z" fill="#1C1C1C"/>
<path d="M58.4247 49.9497L54.7011 47.8046C54.438 47.6427 54.2356 47.3189 54.2356 47.0558V43.3321C54.2356 43.0691 54.438 42.9881 54.7011 43.1298L58.4247 45.2749C58.6878 45.4368 58.8902 45.7606 58.8902 46.0237V49.7474C58.8902 50.0104 58.6676 50.0914 58.4247 49.9497ZM54.7213 43.2714C54.5392 43.1702 54.3773 43.231 54.3773 43.4131V47.1367C54.3773 47.3189 54.5392 47.5617 54.7213 47.6629L58.445 49.8081C58.6271 49.9093 58.789 49.8485 58.789 49.6664V45.9427C58.789 45.7606 58.6271 45.5178 58.445 45.4166L54.7213 43.2714Z" fill="#1C1C1C"/>
<path d="M54.9642 45.5786L58.1819 47.4404C58.1819 47.4404 57.5545 45.9429 56.5427 45.3358C55.5106 44.7489 54.9844 45.5786 54.9844 45.5786H54.9642Z" fill="#1C1C1C"/>
<path d="M56.5629 48.4725C56.4617 48.4117 56.3808 48.3308 56.2998 48.2296C56.1581 47.9868 56.1581 47.7237 56.1581 47.7237C56.1581 47.7034 56.1784 47.6832 56.2189 47.7237C56.2391 47.7237 56.2796 47.7844 56.2796 47.8249C56.2796 47.8249 56.2796 48.0475 56.3808 48.2296C56.4212 48.2903 56.4819 48.351 56.5427 48.3915C56.6236 48.4522 56.7046 48.4522 56.745 48.432C56.8664 48.3713 56.8462 48.0879 56.8462 48.0879V46.6916C56.8462 46.6916 56.8665 46.6511 56.9069 46.6713C56.9474 46.6713 56.9676 46.7321 56.9676 46.7523V48.1487C56.9676 48.1487 57.0081 48.4724 56.8462 48.5534C56.7653 48.5939 56.6843 48.5534 56.5629 48.4927V48.4725Z" fill="#1C1C1C"/>
<path d="M54.9643 44.5062C54.9643 44.5062 54.7619 44.83 54.9643 44.9514C55.1666 45.0728 54.9643 44.5062 54.9643 44.5062Z" fill="#1C1C1C"/>
<path d="M55.7939 44.3844C55.7939 44.3844 55.5916 44.7082 55.7939 44.8296C55.9963 44.9511 55.7939 44.3844 55.7939 44.3844Z" fill="#1C1C1C"/>
<path d="M57.1293 45.0931C57.1293 45.0931 56.9269 45.4169 57.1293 45.5384C57.3317 45.6598 57.1293 45.0931 57.1293 45.0931Z" fill="#1C1C1C"/>
<path d="M58.0201 46.2668C58.0201 46.2668 57.8177 46.5906 58.0201 46.712C58.2224 46.8334 58.0201 46.2668 58.0201 46.2668Z" fill="#1C1C1C"/>
<path d="M57.6354 45.1337C57.6354 45.1337 57.433 45.4575 57.6354 45.5789C57.8378 45.7003 57.6354 45.1337 57.6354 45.1337Z" fill="#1C1C1C"/>
<path d="M56.482 44.4859C56.482 44.4859 56.2797 44.8097 56.482 44.9311C56.6844 45.0525 56.482 44.4859 56.482 44.4859Z" fill="#1C1C1C"/>
<path d="M55.2275 43.7572C55.2275 43.7572 55.0251 44.081 55.2275 44.2024C55.4298 44.3238 55.2275 43.7572 55.2275 43.7572Z" fill="#1C1C1C"/>
<path d="M74.2101 39.5277L69.9805 37.079V33.9422L74.2101 36.3909V39.5277Z" fill="white"/>
<path d="M107.359 67.9203L85.1989 55.0494L86.8786 54.078L109.038 66.9489L107.359 67.9203Z" fill="#A58566"/>
<path d="M108.978 41.7737L86.7979 28.9028L96.9165 23.0542L119.097 35.9453L108.978 41.7737Z" fill="#D7AE82"/>
<path d="M109.039 66.9486L86.8788 54.0777L86.7979 28.9026L108.978 41.7735L109.039 66.9486Z" fill="#6A5640"/>
<path d="M107.278 42.7448L85.118 29.8537L86.7977 28.9026L108.978 41.7735L107.278 42.7448Z" fill="#AC7941"/>
<path d="M108.978 41.7737L109.038 66.9489L107.359 67.9203L107.278 42.7451L108.978 41.7737Z" fill="#885628"/>
<path d="M107.359 67.9204L85.199 55.0495L85.118 29.8541L107.278 42.7453L107.359 67.9204Z" fill="#5F4123"/>
<path d="M119.096 35.9457L119.157 61.1208L97.2401 73.7691L97.1794 48.594L107.278 42.7454L107.359 67.9206L109.038 66.9492L108.978 41.774L119.096 35.9457Z" fill="#C19B77"/>
<path d="M97.1792 48.5938L74.9991 35.7027L85.1178 29.8541L107.278 42.7453L97.1792 48.5938Z" fill="#D7AE82"/>
<path d="M97.2399 73.7688L75.0801 60.8777L74.9991 35.7025L97.1792 48.5936L97.2399 73.7688Z" fill="#AA8057"/>
<path d="M98.7377 51.8517C98.7377 50.5161 99.6889 48.8769 100.842 48.209C101.996 47.5412 102.947 48.0876 102.947 49.4233C102.947 50.7589 101.996 52.3982 100.842 53.066C99.6889 53.7338 98.7377 53.1874 98.7377 51.8517ZM102.219 49.8482C102.219 48.978 101.611 48.6138 100.842 49.059C100.094 49.5042 99.4663 50.5566 99.4663 51.4268C99.4663 52.297 100.094 52.6612 100.842 52.216C101.591 51.7708 102.219 50.6982 102.219 49.8482Z" fill="#513B29"/>
<path d="M86.2312 66.0989L82.5075 63.9538C82.2444 63.8121 82.0421 63.4681 82.0421 63.205V59.4813C82.0421 59.2183 82.2444 59.1373 82.5075 59.279L86.2312 61.4241C86.4943 61.586 86.6966 61.9098 86.6966 62.1729V65.8966C86.6966 66.1596 86.474 66.2406 86.2312 66.0989ZM82.5075 59.4206C82.3254 59.3195 82.1635 59.3801 82.1635 59.5623V63.286C82.1635 63.4681 82.3051 63.7109 82.5075 63.8121L86.2312 65.9573C86.4133 66.0585 86.5752 65.9978 86.5752 65.8156V62.1122C86.5752 61.9301 86.4133 61.6872 86.2312 61.586L82.5075 59.4409V59.4206Z" fill="#1C1C1C"/>
<path d="M83.5395 60.1898L82.8514 60.7159L83.3573 61.0195V63.4075L83.7418 63.6301V61.2219L84.2478 61.5254L83.5395 60.1898Z" fill="#1C1C1C"/>
<path d="M85.1178 61.1003L84.4297 61.6264L84.9357 61.93V64.318L85.3202 64.5406V62.1324L85.8261 62.4359L85.1178 61.1003Z" fill="#1C1C1C"/>
<path d="M85.8263 65.4719L82.8514 63.772V63.347L85.8263 65.0671V65.4719Z" fill="#1C1C1C"/>
<path d="M91.999 69.4177L88.2955 67.2725C88.0324 67.1308 87.8301 66.7868 87.8301 66.5237V62.8203C87.8301 62.5572 88.0527 62.4763 88.2955 62.618L91.999 64.7631C92.262 64.925 92.4644 65.2488 92.4644 65.5119V69.2153C92.4644 69.4784 92.262 69.5593 91.999 69.4177ZM88.2955 62.7596C88.1134 62.6584 87.9515 62.7191 87.9515 62.9013V66.6249C87.9515 66.8071 88.0932 67.0499 88.2955 67.1511L91.999 69.2962C92.1811 69.3974 92.343 69.3367 92.343 69.1546V65.4512C92.343 65.269 92.1811 65.0262 91.999 64.925L88.2955 62.7799V62.7596Z" fill="#1C1C1C"/>
<path d="M90.7035 68.0622L90.2583 67.7991V66.342C91.0677 66.7265 90.744 64.3385 90.744 64.3385L89.5095 63.61C89.5095 63.61 89.3678 65.5123 90.0559 66.1801V67.6777L89.6107 67.4146C89.6107 67.4146 89.5095 67.4146 89.5095 67.4753C89.5095 67.536 89.55 67.617 89.6107 67.6372L90.7237 68.2848C90.7237 68.2848 90.8249 68.2848 90.8249 68.2241C90.8249 68.1634 90.7844 68.1027 90.7237 68.0622H90.7035Z" fill="#1C1C1C"/>
<path d="M80.6658 62.8812L76.9624 60.736C76.6993 60.5741 76.4969 60.2503 76.4969 59.9873V56.2636C76.4969 56.0005 76.7195 55.9196 76.9624 56.0612L80.6658 58.2064C80.9288 58.3683 81.1312 58.6921 81.1312 58.9551V62.6788C81.1312 62.9419 80.9288 63.0228 80.6658 62.8812ZM76.9624 56.2029C76.7802 56.1017 76.6183 56.1624 76.6183 56.3445V60.0682C76.6183 60.2503 76.76 60.4932 76.9624 60.5944L80.6658 62.7395C80.8479 62.8407 81.0098 62.78 81.0098 62.5979V58.8742C81.0098 58.6921 80.8479 58.4492 80.6658 58.348L76.9624 56.2029Z" fill="#1C1C1C"/>
<path d="M77.2053 58.5099L80.4231 60.3515C80.4231 60.3515 79.7957 58.8539 78.7838 58.2468C77.772 57.66 77.2256 58.4897 77.2256 58.4897L77.2053 58.5099Z" fill="#1C1C1C"/>
<path d="M78.7839 61.424C78.7839 61.424 78.6018 61.2824 78.5208 61.1812C78.3792 60.9383 78.3792 60.6753 78.3994 60.6753C78.3994 60.6348 78.4196 60.6348 78.4601 60.6753C78.5006 60.6753 78.5208 60.736 78.5208 60.7562C78.5208 60.7562 78.5208 60.9788 78.622 61.161C78.6625 61.2217 78.7232 61.2824 78.7839 61.3229C78.8649 61.3633 78.9458 61.3836 78.9863 61.3633C79.1077 61.3026 79.0875 61.0193 79.0875 61.0193V59.6229C79.0875 59.6229 79.1077 59.5824 79.1482 59.6027C79.1887 59.6027 79.2089 59.6634 79.2089 59.6836V61.08C79.2089 61.08 79.2291 61.4038 79.0875 61.4847C79.0065 61.5252 78.9256 61.505 78.8042 61.4443L78.7839 61.424Z" fill="#1C1C1C"/>
<path d="M77.2052 57.4372C77.2052 57.4372 77.0028 57.761 77.2052 57.8824C77.4076 58.0039 77.2052 57.4372 77.2052 57.4372Z" fill="#1C1C1C"/>
<path d="M78.0351 57.3361C78.0351 57.3361 77.8327 57.6599 78.0351 57.7813C78.2374 57.9027 78.0351 57.3361 78.0351 57.3361Z" fill="#1C1C1C"/>
<path d="M79.3708 58.0445C79.3708 58.0445 79.1684 58.3683 79.3708 58.4897C79.5731 58.6111 79.3708 58.0445 79.3708 58.0445Z" fill="#1C1C1C"/>
<path d="M80.2409 59.1976C80.2409 59.1976 80.0386 59.5214 80.2409 59.6429C80.4433 59.7643 80.2409 59.1976 80.2409 59.1976Z" fill="#1C1C1C"/>
<path d="M79.8769 58.0851C79.8769 58.0851 79.6745 58.4089 79.8769 58.5303C80.0792 58.6517 79.8769 58.0851 79.8769 58.0851Z" fill="#1C1C1C"/>
<path d="M78.7232 57.417C78.7232 57.417 78.5208 57.7408 78.7232 57.8622C78.9256 57.9836 78.7232 57.417 78.7232 57.417Z" fill="#1C1C1C"/>
<path d="M77.4684 56.6882C77.4684 56.6882 77.266 57.012 77.4684 57.1335C77.6707 57.2549 77.4684 56.6882 77.4684 56.6882Z" fill="#1C1C1C"/>
<path d="M96.4508 52.4591L92.2213 50.0104V46.8737L96.4508 49.3224V52.4591Z" fill="white"/>
<path d="M63.0392 67.7791L40.8794 54.9082L42.5591 53.9368L64.7391 66.8077L63.0392 67.7791Z" fill="#A58566"/>
<path d="M64.6581 41.6325L42.4983 28.7414L52.6169 22.913L74.7767 35.7839L64.6581 41.6325Z" fill="#D7AE82"/>
<path d="M64.7391 66.8074L42.559 53.9365L42.4983 28.7411L64.6581 41.6323L64.7391 66.8074Z" fill="#6A5640"/>
<path d="M62.9783 42.6036L40.7983 29.7327L42.4982 28.7411L64.658 41.6323L62.9783 42.6036Z" fill="#AC7941"/>
<path d="M64.6581 41.6323L64.739 66.8075L63.0391 67.7789L62.9784 42.6037L64.6581 41.6323Z" fill="#885628"/>
<path d="M63.039 67.7793L40.8792 54.9084L40.7983 29.7333L62.9783 42.6042L63.039 67.7793Z" fill="#5F4123"/>
<path d="M74.7765 35.7842L74.8372 60.9796L52.9404 73.6279L52.8595 48.4528L62.9781 42.6042L63.0388 67.7793L64.7388 66.808L64.6578 41.6328L74.7765 35.7842Z" fill="#C19B77"/>
<path d="M52.8598 48.4528L30.7 35.5616L40.7984 29.7333L62.9785 42.6042L52.8598 48.4528Z" fill="#D7AE82"/>
<path d="M52.9408 73.6279L30.7607 60.7368L30.7 35.5616L52.8598 48.4527L52.9408 73.6279Z" fill="#AA8057"/>
<path d="M54.4384 51.7104C54.4384 50.3747 55.3895 48.7355 56.543 48.0677C57.6966 47.3998 58.6477 47.9462 58.6477 49.2819C58.6477 50.6175 57.6966 52.2568 56.543 52.9246C55.3895 53.5924 54.4384 53.046 54.4384 51.7104ZM57.8989 49.7069C57.8989 48.8367 57.2918 48.4724 56.5228 48.9176C55.774 49.3628 55.1467 50.4152 55.1467 51.2854C55.1467 52.1556 55.774 52.5198 56.5228 52.0746C57.2716 51.6496 57.8989 50.5771 57.8989 49.7069Z" fill="#513B29"/>
<path d="M41.9114 65.9376L38.208 63.7925C37.9449 63.6306 37.7426 63.3068 37.7426 63.0437V59.32C37.7426 59.0569 37.9449 58.976 38.208 59.1176L41.9114 61.2628C42.1745 61.4045 42.3769 61.7485 42.3769 62.0116V65.7352C42.3769 65.9983 42.1745 66.0793 41.9114 65.9376ZM38.208 59.2795C38.0259 59.1784 37.864 59.2391 37.864 59.4212V63.1449C37.864 63.327 38.0259 63.5699 38.208 63.6913L41.9114 65.8364C42.0936 65.9376 42.2555 65.8769 42.2555 65.6948V61.9711C42.2555 61.789 42.0936 61.5461 41.9114 61.445L38.208 59.2998V59.2795Z" fill="#1C1C1C"/>
<path d="M39.2404 60.0488L38.5523 60.575L39.038 60.8583V63.2665L39.4225 63.4689V61.0809L39.9284 61.3845L39.2404 60.0488Z" fill="#1C1C1C"/>
<path d="M40.8187 60.9595L40.1306 61.4857L40.6365 61.769V64.1772L41.0008 64.3998V61.9916L41.5068 62.2952L40.8187 60.9595Z" fill="#1C1C1C"/>
<path d="M41.5069 65.3309L38.5522 63.6107V63.206L41.5069 64.9261V65.3309Z" fill="#1C1C1C"/>
<path d="M47.679 69.2764L43.9756 67.1312C43.7125 66.9693 43.5101 66.6455 43.5101 66.3825V62.679C43.5101 62.416 43.7327 62.335 43.9756 62.4767L47.679 64.6218C47.9421 64.7635 48.1445 65.1075 48.1445 65.3706V69.0943C48.1445 69.3573 47.9421 69.4383 47.679 69.2966V69.2764ZM43.9756 62.6183C43.7935 62.5171 43.6316 62.5778 43.6316 62.76V66.4836C43.6316 66.6658 43.7935 66.9086 43.9756 67.0098L47.679 69.155C47.8612 69.2561 48.0231 69.1954 48.0231 69.0133V65.2896C48.0231 65.1075 47.8612 64.8647 47.679 64.7635L43.9756 62.6183Z" fill="#1C1C1C"/>
<path d="M46.3836 67.9208L45.9383 67.6577V66.1804C46.7478 66.5649 46.424 64.1769 46.424 64.1769L45.1896 63.4686C45.1896 63.4686 45.0479 65.3709 45.7157 66.0185V67.5161L45.2705 67.253C45.2705 67.253 45.1693 67.253 45.1693 67.3137C45.1693 67.3744 45.2098 67.4553 45.2705 67.4756L46.3836 68.1232C46.3836 68.1232 46.4847 68.1231 46.4847 68.0624C46.4847 68.0017 46.4443 67.9208 46.3836 67.9006V67.9208Z" fill="#1C1C1C"/>
<path d="M36.346 62.7398L32.6426 60.5946C32.3795 60.453 32.1569 60.1089 32.1569 59.8458V56.1222C32.1569 55.8591 32.3795 55.7781 32.6426 55.9198L36.346 58.065C36.6091 58.2269 36.8115 58.5507 36.8115 58.8137V62.5374C36.8115 62.8005 36.6091 62.8814 36.346 62.7398ZM32.6426 56.0615C32.4605 55.9603 32.2986 56.021 32.2986 56.2032V59.9268C32.2986 60.1089 32.4605 60.3518 32.6426 60.453L36.346 62.5981C36.5282 62.6993 36.6901 62.6386 36.6901 62.4565V58.7328C36.6901 58.5507 36.5484 58.3078 36.346 58.2066L32.6426 56.0615Z" fill="#1C1C1C"/>
<path d="M32.8856 58.3684L36.0831 60.2302C36.0831 60.2302 35.4557 58.7124 34.4438 58.1256C33.432 57.5387 32.8856 58.3684 32.8856 58.3684Z" fill="#1C1C1C"/>
<path d="M34.4843 61.2828C34.3831 61.222 34.3021 61.1411 34.2212 61.0399C34.0795 60.7971 34.0998 60.534 34.0998 60.534C34.0998 60.4935 34.12 60.4935 34.1605 60.5137C34.2009 60.534 34.2212 60.5744 34.2212 60.6149C34.2212 60.6149 34.2212 60.8375 34.3224 61.0197C34.3628 61.0804 34.4235 61.1411 34.4843 61.1816C34.5652 61.2423 34.6259 61.2423 34.6866 61.222C34.808 61.1613 34.7878 60.878 34.7878 60.878V59.4816C34.7878 59.4816 34.808 59.4411 34.8485 59.4614C34.889 59.4614 34.9092 59.5221 34.9092 59.5626V60.959C34.9092 60.959 34.9295 61.2827 34.7878 61.3637C34.7069 61.4042 34.6259 61.384 34.5045 61.3232L34.4843 61.2828Z" fill="#1C1C1C"/>
<path d="M32.8857 57.2965C32.8857 57.2965 32.6833 57.6203 32.8857 57.7417C33.088 57.8631 32.8857 57.2965 32.8857 57.2965Z" fill="#1C1C1C"/>
<path d="M33.7356 57.1948C33.7356 57.1948 33.5332 57.5186 33.7356 57.64C33.9379 57.7614 33.7356 57.1948 33.7356 57.1948Z" fill="#1C1C1C"/>
<path d="M35.0711 57.8832C35.0711 57.8832 34.8688 58.207 35.0711 58.3284C35.2735 58.4498 35.0711 57.8832 35.0711 57.8832Z" fill="#1C1C1C"/>
<path d="M35.9413 59.0566C35.9413 59.0566 35.739 59.3804 35.9413 59.5018C36.1437 59.6232 35.9413 59.0566 35.9413 59.0566Z" fill="#1C1C1C"/>
<path d="M35.5769 57.9237C35.5769 57.9237 35.3746 58.2475 35.5769 58.369C35.7793 58.4904 35.5769 57.9237 35.5769 57.9237Z" fill="#1C1C1C"/>
<path d="M34.4237 57.2759C34.4237 57.2759 34.2213 57.5997 34.4237 57.7211C34.6261 57.8426 34.4237 57.2759 34.4237 57.2759Z" fill="#1C1C1C"/>
<path d="M33.1486 56.5469C33.1486 56.5469 32.9462 56.8707 33.1486 56.9922C33.351 57.1136 33.1486 56.5469 33.1486 56.5469Z" fill="#1C1C1C"/>
<path d="M52.1311 52.3177L47.9016 49.869V46.7322L52.1311 49.181V52.3177Z" fill="white"/>
<path d="M85.2799 80.7309L63.1201 67.8397L64.7998 66.8683L86.9596 79.7392L85.2799 80.7309Z" fill="#A58566"/>
<path d="M86.8985 54.564L64.7387 41.6931L74.8371 35.8445L97.0172 48.7357L86.8985 54.564Z" fill="#D7AE82"/>
<path d="M86.9592 79.7389L64.7994 66.868L64.7387 41.6929L86.8985 54.5638L86.9592 79.7389Z" fill="#6A5640"/>
<path d="M85.2192 55.5352L63.0392 42.6643L64.7391 41.6929L86.8989 54.5638L85.2192 55.5352Z" fill="#AC7941"/>
<path d="M86.8986 54.5641L86.9594 79.7392L85.2796 80.7309L85.2189 55.5355L86.8986 54.5641Z" fill="#885628"/>
<path d="M85.2799 80.7305L63.1201 67.8394L63.0392 42.6642L85.2192 55.5351L85.2799 80.7305Z" fill="#5F4123"/>
<path d="M97.0175 48.736L97.0782 73.9112L75.1612 86.5595L75.1005 61.3843L85.2192 55.5357L85.2799 80.7311L86.9596 79.7395L86.8989 54.5643L97.0175 48.736Z" fill="#C19B77"/>
<path d="M75.1004 61.3837L52.9406 48.4925L63.0389 42.6642L85.219 55.5351L75.1004 61.3837Z" fill="#D7AE82"/>
<path d="M75.1611 86.5589L53.0013 73.688L52.9406 48.4926L75.1004 61.3837L75.1611 86.5589Z" fill="#AA8057"/>
<path d="M76.6586 64.6418C76.6586 63.3062 77.6097 61.6669 78.7632 60.9991C79.9168 60.3313 80.8679 60.8777 80.8679 62.2133C80.8679 63.549 79.9168 65.1882 78.7632 65.856C77.6097 66.5239 76.6586 65.9775 76.6586 64.6418ZM80.1394 62.6383C80.1394 61.7681 79.5323 61.4039 78.7632 61.8491C78.0145 62.2943 77.3871 63.3466 77.3871 64.2168C77.3871 65.087 77.9942 65.4513 78.7632 65.0061C79.512 64.5609 80.1394 63.5085 80.1394 62.6383Z" fill="#513B29"/>
<path d="M64.1521 78.8892L60.4487 76.7441C60.1856 76.5822 59.9832 76.2584 59.9832 75.9953V72.2716C59.9832 72.0086 60.1856 71.9276 60.4487 72.0693L64.1521 74.2144C64.4152 74.3561 64.6176 74.7001 64.6176 74.9632V78.6869C64.6176 78.9499 64.4152 79.0309 64.1521 78.8892ZM60.4487 72.2109C60.2665 72.1097 60.1046 72.1705 60.1046 72.3526V76.0763C60.1046 76.2584 60.2665 76.5012 60.4487 76.6024L64.1521 78.7476C64.3342 78.8488 64.4961 78.7881 64.4961 78.6059V74.8823C64.4961 74.7001 64.3545 74.4573 64.1521 74.3561L60.4487 72.2109Z" fill="#1C1C1C"/>
<path d="M61.4809 73.0001L60.7928 73.5263L61.2786 73.8096V76.1976L61.663 76.4202V74.012L62.169 74.3156L61.4809 73.0001Z" fill="#1C1C1C"/>
<path d="M63.0596 73.9109L62.3513 74.4169L62.8572 74.7204V77.1084L63.2417 77.331V74.943L63.7476 75.2263L63.0596 73.9109Z" fill="#1C1C1C"/>
<path d="M63.7475 78.2621L60.7929 76.5621V76.1574L63.7475 77.8573V78.2621Z" fill="#1C1C1C"/>
<path d="M69.9398 82.228L66.2161 80.0828C65.953 79.9412 65.7507 79.5971 65.7507 79.3341V75.6104C65.7507 75.3473 65.953 75.2664 66.2161 75.408L69.9398 77.5532C70.2029 77.6948 70.4052 78.0389 70.4052 78.302V82.0054C70.4052 82.2685 70.2029 82.3494 69.9398 82.2077V82.228ZM66.2161 75.5497C66.034 75.4485 65.8721 75.5092 65.8721 75.6913V79.3948C65.8721 79.5769 66.0137 79.8197 66.2161 79.9209L69.9398 82.0661C70.1219 82.1673 70.2838 82.1066 70.2838 81.9244V78.221C70.2838 78.0389 70.1422 77.796 69.9398 77.6948L66.2161 75.5497Z" fill="#1C1C1C"/>
<path d="M68.6246 80.8523L68.1794 80.5893V79.1322C68.9888 79.5167 68.665 77.1287 68.665 77.1287L67.4306 76.4204C67.4306 76.4204 67.2889 78.3025 67.977 78.9703V80.4678L67.5318 80.2047C67.5318 80.2047 67.4306 80.2047 67.4306 80.2452C67.4306 80.2857 67.471 80.3869 67.5318 80.4071L68.6448 81.0547C68.6448 81.0547 68.746 81.0547 68.746 81.0142C68.746 80.9738 68.7055 80.8726 68.6448 80.8523H68.6246Z" fill="#1C1C1C"/>
<path d="M58.5868 75.6715L54.8632 73.5263C54.6001 73.3644 54.3977 73.0406 54.3977 72.7775V69.0539C54.3977 68.7908 54.6001 68.7099 54.8632 68.8515L58.5868 70.9967C58.8499 71.1383 59.0523 71.4823 59.0523 71.7454V75.4691C59.0523 75.7322 58.8297 75.8131 58.5868 75.6715ZM54.8834 69.0134C54.7013 68.9122 54.5394 68.9729 54.5394 69.1551V72.8787C54.5394 73.0608 54.681 73.3037 54.8834 73.4049L58.607 75.55C58.7892 75.6512 58.9511 75.5905 58.9511 75.4084V71.6847C58.9511 71.5026 58.8094 71.2597 58.607 71.1586L54.8834 69.0134Z" fill="#1C1C1C"/>
<path d="M55.1262 71.3L58.3237 73.1618C58.3237 73.1618 57.6963 71.644 56.6845 71.0572C55.6524 70.4703 55.1262 71.3 55.1262 71.3Z" fill="#1C1C1C"/>
<path d="M56.7247 74.2141C56.6235 74.1534 56.5426 74.0725 56.4819 73.9713C56.3402 73.7284 56.3402 73.4654 56.3402 73.4654C56.3402 73.4451 56.3604 73.4249 56.4009 73.4654C56.4414 73.4654 56.4616 73.526 56.4616 73.5665C56.4616 73.5665 56.4616 73.7892 56.5628 73.9713C56.6033 74.0522 56.664 74.0927 56.7247 74.1332C56.8057 74.1939 56.8866 74.1939 56.9271 74.1736C57.0485 74.1129 57.0283 73.8296 57.0283 73.8296V72.4332C57.0283 72.4332 57.0485 72.3928 57.089 72.4332C57.1295 72.4332 57.1497 72.494 57.1497 72.5142V73.9106C57.1497 73.9106 57.1699 74.2344 57.0283 74.3153C56.9473 74.3558 56.8664 74.3356 56.7449 74.2748L56.7247 74.2141Z" fill="#1C1C1C"/>
<path d="M55.1263 70.2273C55.1263 70.2273 54.9239 70.5511 55.1263 70.6725C55.3287 70.7939 55.1263 70.2273 55.1263 70.2273Z" fill="#1C1C1C"/>
<path d="M55.9559 70.1261C55.9559 70.1261 55.7535 70.4499 55.9559 70.5714C56.1583 70.6928 55.9559 70.1261 55.9559 70.1261Z" fill="#1C1C1C"/>
<path d="M57.2914 70.8348C57.2914 70.8348 57.089 71.1586 57.2914 71.28C57.4937 71.4015 57.2914 70.8348 57.2914 70.8348Z" fill="#1C1C1C"/>
<path d="M58.1824 71.9879C58.1824 71.9879 57.98 72.3117 58.1824 72.4332C58.3847 72.5546 58.1824 71.9879 58.1824 71.9879Z" fill="#1C1C1C"/>
<path d="M57.7975 70.8754C57.7975 70.8754 57.5951 71.1991 57.7975 71.3206C57.9998 71.442 57.7975 70.8754 57.7975 70.8754Z" fill="#1C1C1C"/>
<path d="M56.6641 70.2073C56.6641 70.2073 56.4617 70.5311 56.6641 70.6525C56.8665 70.7739 56.6641 70.2073 56.6641 70.2073Z" fill="#1C1C1C"/>
<path d="M55.3893 69.4785C55.3893 69.4785 55.1869 69.8023 55.3893 69.9238C55.5916 70.0452 55.3893 69.4785 55.3893 69.4785Z" fill="#1C1C1C"/>
<path d="M74.372 65.2492L70.1424 62.8005V59.684L74.372 62.1125V65.2492Z" fill="white"/>
<path d="M93.6176 80.7302L89.2463 114.466L109.544 102.748L105.436 73.9102L93.6176 80.7302Z" fill="#D29900"/>
<path d="M93.6173 80.7305L90.4401 78.8687L86.0688 112.604L89.2461 114.466L93.6173 80.7305Z" fill="#ECAC00"/>
<path d="M105.436 73.9103L102.259 72.0484L90.4401 78.8684L93.6173 80.7302L105.436 73.9103Z" fill="#BD8E00"/>
<path d="M98.5554 108.233C98.5554 108.233 98.6768 108.314 98.7375 108.334C102.239 110.378 106.549 111.187 108.37 110.135C110.172 109.083 108.816 106.594 105.294 104.55C105.234 104.509 105.173 104.469 105.112 104.448L98.5554 108.233Z" fill="#BBBED6"/>
<path d="M98.7378 108.334C98.8592 108.415 99.0009 108.476 99.1223 108.557C99.1628 108.577 99.2032 108.597 99.2437 108.617C99.3247 108.678 99.4259 108.718 99.5068 108.759C99.5473 108.759 99.608 108.799 99.6485 108.82C99.7496 108.86 99.8508 108.921 99.9318 108.961C99.9723 108.961 100.013 109.002 100.033 109.022C100.154 109.083 100.296 109.143 100.438 109.204C100.478 109.204 100.498 109.224 100.539 109.245C100.64 109.285 100.741 109.326 100.842 109.386C100.883 109.386 100.923 109.427 100.984 109.447C101.085 109.487 101.166 109.528 101.267 109.548C101.308 109.548 101.348 109.589 101.409 109.609C101.531 109.649 101.632 109.69 101.753 109.73C101.773 109.73 101.794 109.73 101.814 109.751C101.935 109.791 102.077 109.852 102.219 109.892C102.259 109.892 102.279 109.892 102.32 109.933C102.441 109.973 102.583 110.014 102.704 110.054C102.745 110.054 102.765 110.074 102.805 110.074C102.947 110.115 103.109 110.155 103.251 110.196C103.291 110.196 103.311 110.196 103.332 110.216C103.453 110.256 103.595 110.277 103.716 110.297C103.736 110.297 103.777 110.297 103.817 110.297C103.959 110.337 104.101 110.358 104.242 110.378C104.283 110.378 104.303 110.378 104.323 110.378C104.445 110.378 104.586 110.418 104.708 110.439C104.728 110.439 104.748 110.439 104.789 110.439C104.93 110.439 105.072 110.479 105.214 110.479C105.254 110.479 105.295 110.479 105.335 110.479C105.396 110.479 105.457 110.479 105.517 110.479C105.558 110.479 105.618 110.479 105.659 110.479C105.72 110.479 105.76 110.479 105.821 110.479C105.861 110.479 105.882 110.479 105.922 110.479C106.064 110.479 106.205 110.479 106.347 110.479H106.408C106.509 110.479 106.61 110.479 106.711 110.479C106.732 110.479 106.772 110.479 106.792 110.479C106.893 110.479 106.995 110.479 107.096 110.439C107.096 110.439 107.278 110.398 107.379 110.398C107.399 110.398 107.44 110.398 107.46 110.398C107.521 110.398 107.581 110.358 107.662 110.358C107.683 110.358 107.723 110.358 107.743 110.337C107.845 110.317 107.926 110.277 108.027 110.236C108.067 110.236 108.108 110.196 108.148 110.196C108.168 110.196 108.189 110.196 108.209 110.176C108.27 110.155 108.33 110.115 108.371 110.074C108.917 109.771 109.16 109.326 109.16 108.799V109.751C109.16 110.277 108.917 110.722 108.371 111.025C108.31 111.066 108.249 111.086 108.189 111.106C108.168 111.106 108.148 111.127 108.128 111.127C108.087 111.127 108.047 111.167 108.027 111.167C107.946 111.208 107.845 111.228 107.743 111.268C107.743 111.268 107.743 111.268 107.723 111.268H107.683C107.622 111.268 107.561 111.309 107.48 111.309H107.44C107.44 111.309 107.42 111.309 107.399 111.309C107.318 111.309 107.217 111.349 107.116 111.349C107.116 111.349 106.914 111.369 106.812 111.39C106.812 111.39 106.792 111.39 106.772 111.39H106.732C106.63 111.39 106.529 111.39 106.428 111.39C106.428 111.39 106.408 111.39 106.387 111.39C106.246 111.39 106.104 111.39 105.963 111.39H105.922C105.922 111.39 105.882 111.39 105.861 111.39C105.801 111.39 105.74 111.39 105.699 111.39C105.659 111.39 105.618 111.39 105.558 111.39C105.497 111.39 105.436 111.39 105.396 111.39C105.355 111.39 105.335 111.39 105.295 111.39C105.295 111.39 105.274 111.39 105.254 111.39C105.113 111.39 104.971 111.349 104.849 111.329C104.809 111.329 104.789 111.329 104.768 111.329C104.647 111.329 104.526 111.289 104.384 111.268C104.384 111.268 104.344 111.268 104.323 111.268C104.323 111.268 104.323 111.268 104.303 111.268C104.161 111.248 104.02 111.208 103.878 111.187C103.838 111.187 103.817 111.187 103.777 111.187C103.655 111.167 103.534 111.127 103.392 111.106C103.372 111.106 103.332 111.106 103.311 111.086C103.17 111.046 103.008 111.005 102.866 110.965C102.826 110.965 102.805 110.965 102.765 110.944C102.644 110.904 102.502 110.864 102.381 110.823C102.36 110.823 102.34 110.823 102.32 110.823C102.32 110.823 102.32 110.823 102.279 110.823C102.138 110.783 102.016 110.742 101.875 110.681C101.875 110.681 101.834 110.681 101.814 110.681C101.692 110.641 101.591 110.6 101.47 110.56C101.429 110.56 101.389 110.52 101.348 110.499C101.247 110.459 101.166 110.418 101.065 110.398C101.025 110.398 100.984 110.358 100.923 110.337C100.822 110.297 100.721 110.256 100.62 110.216C100.6 110.216 100.559 110.196 100.519 110.176C100.377 110.115 100.256 110.054 100.114 109.993C100.073 109.993 100.033 109.953 100.013 109.933C99.9116 109.892 99.8306 109.852 99.7294 109.791C99.689 109.791 99.6485 109.751 99.5878 109.73C99.5068 109.69 99.4056 109.629 99.3247 109.589C99.2842 109.568 99.2437 109.548 99.2032 109.528C99.0818 109.447 98.9402 109.386 98.8188 109.305C98.758 109.265 98.6973 109.245 98.6366 109.204V108.273C98.6366 108.273 98.758 108.354 98.8188 108.374L98.7378 108.334Z" fill="#9DA4BE"/>
<path d="M103.858 108.395C104.445 108.395 104.91 108.011 104.91 107.545V97.6088C104.91 97.1434 104.445 96.7589 103.858 96.7589C103.271 96.7589 102.805 97.1434 102.805 97.6088V107.545C102.805 108.011 103.271 108.395 103.858 108.395Z" fill="#9DA4BE"/>
<path d="M98.7377 89.7162C98.7377 89.7162 98.7377 89.8174 98.7377 89.8781C98.7377 89.9186 98.758 89.9591 98.7782 89.9995C98.7782 90.0602 98.7985 90.1007 98.8187 90.1614C98.8592 90.2424 98.8794 90.3031 98.9199 90.384C98.9199 90.384 98.9199 90.4043 98.9199 90.4245C98.9603 90.5054 99.0008 90.5864 99.0615 90.6674C99.0615 90.6674 99.0615 90.6876 99.0818 90.7078C99.1425 90.7888 99.183 90.8495 99.2437 90.9102C99.2437 90.9102 99.2639 90.9304 99.2841 90.9507C99.3449 91.0114 99.4258 91.0923 99.5068 91.153C99.5472 91.1935 99.6079 91.234 99.6687 91.2745C99.7091 91.3149 99.7698 91.3554 99.8103 91.3959C99.871 91.4364 99.9317 91.4769 99.9924 91.5173C100.053 91.5578 100.114 91.5983 100.195 91.6387C100.296 91.6995 100.417 91.7602 100.539 91.8209C100.559 91.8209 100.6 91.8614 100.64 91.8614C100.741 91.9221 100.863 91.9625 100.964 92.003C100.964 92.003 100.984 92.003 101.004 92.003C101.126 92.0435 101.247 92.084 101.369 92.1244C101.45 92.1447 101.551 92.1851 101.632 92.2054C101.692 92.2054 101.773 92.2459 101.834 92.2661C101.915 92.2863 102.016 92.3066 102.117 92.3268C102.178 92.3268 102.239 92.3673 102.32 92.3673C102.502 92.4078 102.704 92.428 102.907 92.4482C102.967 92.4482 103.028 92.4482 103.089 92.4482C103.21 92.4482 103.311 92.4482 103.433 92.4685C103.514 92.4685 103.574 92.4685 103.655 92.4685H103.918C103.918 92.4685 104.08 92.4685 104.161 92.4685C104.242 92.4685 104.343 92.4685 104.424 92.4685C104.505 92.4685 104.586 92.4685 104.667 92.4685C104.748 92.4685 104.829 92.4685 104.91 92.428C104.991 92.428 105.072 92.428 105.133 92.3875C105.214 92.3875 105.315 92.3673 105.396 92.347C105.477 92.347 105.537 92.3066 105.618 92.3066C105.72 92.2863 105.821 92.2458 105.942 92.2256C106.003 92.2256 106.084 92.1851 106.145 92.1649C106.185 92.1649 106.205 92.1447 106.246 92.1244C106.347 92.084 106.448 92.0637 106.549 92.0233C106.57 92.0233 106.61 92.0232 106.63 92.003C106.731 91.9625 106.812 91.9221 106.914 91.8816C106.954 91.8816 106.995 91.8411 107.035 91.8209C107.177 91.7602 107.298 91.6792 107.42 91.6185C108.431 91.0316 108.937 90.2626 108.937 89.5138L108.978 100.037C108.978 100.806 108.472 101.555 107.46 102.142C107.339 102.203 107.217 102.284 107.075 102.344C107.035 102.344 106.995 102.385 106.954 102.405C106.873 102.445 106.792 102.486 106.711 102.506H106.671C106.651 102.506 106.61 102.506 106.59 102.526C106.489 102.567 106.387 102.607 106.266 102.628C106.226 102.628 106.205 102.648 106.165 102.668C106.145 102.668 106.124 102.668 106.084 102.688C106.043 102.688 106.003 102.709 105.962 102.729C105.861 102.749 105.76 102.789 105.639 102.81C105.598 102.81 105.578 102.81 105.558 102.81C105.517 102.81 105.477 102.81 105.436 102.83C105.355 102.83 105.254 102.87 105.173 102.87C105.133 102.87 105.092 102.87 105.072 102.87C105.032 102.87 104.991 102.87 104.951 102.87C104.87 102.87 104.789 102.891 104.708 102.891C104.667 102.891 104.627 102.891 104.586 102.891C104.546 102.891 104.505 102.891 104.465 102.891C104.384 102.891 104.303 102.891 104.202 102.891C104.161 102.891 104.121 102.891 104.08 102.891C104.04 102.891 103.999 102.891 103.979 102.891C103.878 102.891 103.797 102.891 103.696 102.891H103.554C103.554 102.891 103.493 102.891 103.473 102.891C103.352 102.891 103.23 102.891 103.129 102.891C103.089 102.891 103.048 102.891 102.988 102.891C102.988 102.891 102.967 102.891 102.947 102.891C102.745 102.87 102.563 102.85 102.36 102.81C102.36 102.81 102.36 102.81 102.34 102.81C102.279 102.81 102.239 102.789 102.178 102.769C102.077 102.749 101.996 102.729 101.895 102.709C101.834 102.709 101.773 102.668 101.692 102.648C101.591 102.628 101.51 102.607 101.429 102.567C101.429 102.567 101.389 102.567 101.369 102.567C101.267 102.526 101.166 102.506 101.065 102.466C101.065 102.466 101.045 102.466 101.025 102.445C100.903 102.405 100.802 102.344 100.701 102.304C100.66 102.304 100.64 102.284 100.6 102.263C100.478 102.203 100.357 102.142 100.256 102.081C100.256 102.081 100.215 102.061 100.195 102.041C100.154 102.02 100.114 101.98 100.073 101.96C100.013 101.919 99.952 101.879 99.8913 101.838C99.8508 101.798 99.7901 101.757 99.7496 101.717C99.6889 101.676 99.6484 101.636 99.5877 101.595C99.5877 101.595 99.5675 101.595 99.5472 101.575C99.4865 101.515 99.4258 101.454 99.3651 101.393C99.3651 101.393 99.3449 101.373 99.3246 101.353C99.2842 101.312 99.2437 101.272 99.2234 101.231C99.2032 101.211 99.183 101.171 99.1627 101.13C99.1627 101.13 99.1627 101.13 99.1425 101.11C99.102 101.049 99.0615 100.988 99.0211 100.928C99.0211 100.928 99.0211 100.887 99.0008 100.867C99.0008 100.867 99.0008 100.847 99.0008 100.826C98.9604 100.766 98.9401 100.705 98.9199 100.644C98.9199 100.644 98.9199 100.644 98.9199 100.604C98.9199 100.563 98.8794 100.503 98.8794 100.462C98.8794 100.422 98.8592 100.401 98.8592 100.361C98.8592 100.361 98.8592 100.361 98.8592 100.341C98.8592 100.28 98.8592 100.24 98.8592 100.179C98.8592 100.138 98.8592 100.098 98.8592 100.078V89.5138C98.8592 89.5138 98.8389 89.615 98.8592 89.6757L98.7377 89.7162Z" fill="#B9BCCE"/>
<path d="M100.235 87.4495C98.2319 88.603 98.2319 90.4851 100.215 91.6386C102.198 92.7921 105.436 92.7921 107.44 91.6386C109.443 90.4851 109.443 88.603 107.44 87.4495C105.457 86.2959 102.219 86.2959 100.215 87.4495H100.235Z" fill="#DADAE4"/>
<path d="M103.858 90.0198C104.445 90.0198 104.91 89.6353 104.91 89.1698V79.2333C104.91 78.7678 104.445 78.3833 103.858 78.3833C103.271 78.3833 102.805 78.7678 102.805 79.2333V89.1698C102.805 89.6353 103.271 90.0198 103.858 90.0198Z" fill="#9DA4BE"/>
<path d="M100.519 82.268L100.539 84.7572L112.135 78.0587V75.5695L100.519 82.268Z" fill="#ECAC00"/>
<path d="M100.519 82.2684L90.4202 76.3996V78.8888L100.539 84.7576L100.519 82.2684Z" fill="#ECAC00"/>
<path d="M112.135 75.57L102.037 69.6809L90.4203 76.3997L100.519 82.2685L112.135 75.57Z" fill="#FFB81D"/>
<path d="M140.427 36.3908C140.427 36.3908 140.467 36.4515 140.508 36.4718C140.548 36.5122 140.569 36.5325 140.609 36.5527C140.65 36.573 140.69 36.5932 140.71 36.6134C140.751 36.6337 140.791 36.6539 140.852 36.6741C140.892 36.6741 140.953 36.7146 140.994 36.7146C141.095 36.7551 141.236 36.7551 141.358 36.7753L148.34 37.2205C148.461 37.2205 148.603 37.2205 148.745 37.2205C148.886 37.2205 149.008 37.1801 149.149 37.1598C149.291 37.1396 149.433 37.0789 149.574 37.0384C149.716 36.9777 149.837 36.917 149.979 36.8563C150.1 36.7956 150.242 36.7146 150.363 36.6337C150.485 36.5527 150.606 36.4718 150.728 36.3706C150.849 36.2694 150.95 36.1884 151.031 36.0873C151.132 35.9861 151.213 35.8849 151.294 35.7635L152.893 33.3552C152.954 33.254 153.015 33.1326 153.055 33.0314C153.096 32.9302 153.116 32.8291 153.136 32.7279C153.136 32.7279 153.136 32.566 153.136 32.485C153.136 32.4648 153.136 32.4445 153.136 32.4041C153.136 32.3231 153.096 32.2422 153.075 32.1815L154.006 34.0838C154.006 34.0838 154.067 34.2254 154.067 34.3064C154.067 34.3266 154.067 34.3671 154.067 34.3873C154.067 34.4278 154.067 34.448 154.067 34.4885C154.067 34.529 154.067 34.5695 154.067 34.6099C154.067 34.6099 154.067 34.6706 154.067 34.7111C154.067 34.7314 154.067 34.7718 154.047 34.7921C154.047 34.8123 154.047 34.8528 154.006 34.873C154.006 34.873 154.006 34.873 154.006 34.9135C154.006 34.9135 154.006 34.9337 154.006 34.954C154.006 34.9742 154.006 34.9944 153.966 35.0349C153.966 35.0552 153.945 35.0754 153.925 35.1159C153.925 35.1361 153.905 35.1563 153.885 35.1766C153.885 35.1968 153.844 35.2171 153.844 35.2373L152.246 37.6658C152.246 37.6658 152.225 37.7062 152.205 37.7265C152.205 37.7467 152.165 37.767 152.165 37.7872C152.165 37.8074 152.124 37.8277 152.124 37.8479C152.124 37.8681 152.084 37.8884 152.084 37.9086C152.063 37.9288 152.043 37.9491 152.023 37.9693C152.023 37.9896 151.982 38.0098 151.962 38.03C151.962 38.03 151.922 38.0705 151.902 38.0908C151.881 38.0908 151.861 38.1312 151.841 38.1515C151.821 38.1717 151.8 38.1919 151.78 38.2122C151.76 38.2122 151.74 38.2324 151.719 38.2526C151.699 38.2526 151.679 38.2931 151.659 38.3134C151.638 38.3336 151.618 38.3538 151.578 38.3741C151.557 38.3741 151.537 38.4145 151.497 38.4348C151.477 38.4348 151.456 38.4753 151.416 38.4753C151.416 38.4753 151.375 38.4955 151.355 38.5157C151.335 38.5157 151.315 38.5562 151.274 38.5562C151.254 38.5562 151.213 38.5967 151.193 38.6169C151.153 38.6169 151.132 38.6574 151.092 38.6776C151.052 38.6776 151.031 38.7181 150.991 38.7383C150.991 38.7383 150.991 38.7383 150.971 38.7383C150.89 38.7788 150.829 38.799 150.748 38.8395C150.687 38.8598 150.647 38.88 150.586 38.9002C150.586 38.9002 150.505 38.9205 150.465 38.9407C150.424 38.9407 150.404 38.961 150.363 38.961C150.323 38.961 150.303 38.9609 150.262 38.9812C150.222 38.9812 150.202 38.9812 150.161 39.0014C150.141 39.0014 150.121 39.0014 150.1 39.0014C150.06 39.0014 150.04 39.0014 149.999 39.0014C149.959 39.0014 149.939 39.0014 149.898 39.0014C149.858 39.0014 149.837 39.0014 149.797 39.0014H149.756C149.756 39.0014 149.756 39.0014 149.736 39.0014C149.736 39.0014 149.736 39.0014 149.696 39.0014C149.655 39.0014 149.635 39.0014 149.594 39.0014C149.574 39.0014 149.534 39.0014 149.514 39.0014H149.433C149.433 39.0014 149.372 39.0014 149.352 39.0014L142.37 38.5562C142.37 38.5562 142.329 38.5562 142.309 38.5562C142.289 38.5562 142.269 38.5562 142.228 38.5562H142.188C142.167 38.5562 142.127 38.5562 142.107 38.5562C142.086 38.5562 142.066 38.5562 142.026 38.5562C142.026 38.5562 142.026 38.5562 142.006 38.5562C142.006 38.5562 141.985 38.5562 141.965 38.5562C141.945 38.5562 141.925 38.5562 141.884 38.536C141.884 38.536 141.884 38.536 141.844 38.536C141.823 38.536 141.803 38.5157 141.783 38.4955C141.783 38.4955 141.763 38.4955 141.742 38.4753C141.722 38.4753 141.702 38.455 141.682 38.4348C141.682 38.4348 141.682 38.4348 141.641 38.4145C141.641 38.4145 141.641 38.4145 141.621 38.4145C141.601 38.4145 141.581 38.3741 141.54 38.3538C141.52 38.3336 141.5 38.2931 141.459 38.2729C141.439 38.2324 141.398 38.1919 141.378 38.1515C141.338 38.0503 141.277 37.9693 141.236 37.8681C141.236 37.8479 141.196 37.8074 141.196 37.7669C141.075 37.5039 140.953 37.261 140.812 36.9979C140.69 36.7349 140.569 36.492 140.427 36.2289C140.427 36.2694 140.467 36.3099 140.488 36.3503L140.427 36.3908Z" fill="#2C2A41"/>
<path d="M140.083 32.4241C140.083 32.4241 140.144 32.3431 140.184 32.2824C140.184 32.2824 140.204 32.242 140.225 32.2217C140.225 32.2217 140.225 32.2015 140.245 32.1812C140.245 32.1812 140.265 32.161 140.285 32.1408C140.326 32.1003 140.366 32.0598 140.407 31.9991C140.447 31.9586 140.488 31.9182 140.528 31.8777C140.569 31.8372 140.609 31.7967 140.629 31.7563C140.67 31.7158 140.71 31.6753 140.771 31.6146C140.771 31.6146 140.811 31.5944 140.811 31.5741C140.811 31.5741 140.832 31.5539 140.852 31.5337C140.852 31.5337 140.892 31.4932 140.913 31.4729C140.953 31.4325 141.014 31.392 141.054 31.3313C141.095 31.311 141.135 31.2706 141.176 31.2301C141.216 31.1896 141.277 31.1491 141.338 31.1087C141.378 31.0682 141.439 31.0277 141.479 30.9873C141.479 30.9873 141.5 30.9872 141.52 30.967C141.56 30.9468 141.58 30.9265 141.621 30.8861C141.661 30.8456 141.722 30.8051 141.783 30.7849C141.823 30.7646 141.864 30.7444 141.884 30.7039C141.884 30.7039 141.884 30.7039 141.904 30.7039C141.965 30.6635 142.005 30.6432 142.066 30.6027C142.127 30.5623 142.188 30.542 142.248 30.5016C142.248 30.5016 142.248 30.5016 142.269 30.5016C142.269 30.5016 142.289 30.5016 142.309 30.4813C142.349 30.4611 142.41 30.4206 142.451 30.4004C142.511 30.3599 142.572 30.3397 142.633 30.2992C142.653 30.2992 142.694 30.2789 142.714 30.2587C142.714 30.2587 142.734 30.2587 142.754 30.2385C142.815 30.2182 142.855 30.198 142.916 30.1575C142.997 30.117 143.078 30.0766 143.159 30.0563C143.159 30.0563 143.179 30.0563 143.199 30.0563C143.301 30.0159 143.422 29.9754 143.523 29.9349C143.523 29.9349 143.543 29.9349 143.564 29.9349C143.564 29.9349 143.726 29.8742 143.807 29.854C143.867 29.854 143.928 29.8135 144.009 29.7932C144.07 29.7932 144.151 29.7528 144.211 29.7325C144.272 29.7325 144.353 29.6921 144.414 29.6718C144.414 29.6718 144.434 29.6718 144.454 29.6718C144.515 29.6718 144.555 29.6516 144.616 29.6314C144.677 29.6314 144.758 29.6111 144.818 29.5909C144.839 29.5909 144.859 29.5909 144.879 29.5909H144.899C144.94 29.5909 144.98 29.5909 145.021 29.5909C145.082 29.5909 145.162 29.5909 145.223 29.5706C145.264 29.5706 145.284 29.5706 145.324 29.5706C145.324 29.5706 145.324 29.5706 145.345 29.5706C145.365 29.5706 145.385 29.5706 145.426 29.5706C145.486 29.5706 145.547 29.5706 145.608 29.5706C145.648 29.5706 145.709 29.5706 145.749 29.5706C145.749 29.5706 145.749 29.5706 145.77 29.5706C145.77 29.5706 145.77 29.5706 145.79 29.5706C145.851 29.5706 145.911 29.5706 145.972 29.5706C146.033 29.5706 146.093 29.5706 146.154 29.5706C146.154 29.5706 146.174 29.5706 146.195 29.5706L153.176 30.0159C153.176 30.0159 153.257 30.0159 153.298 30.0159C153.359 30.0159 153.399 30.0159 153.46 30.0159C153.5 30.0159 153.541 30.0159 153.581 30.0159C153.581 30.0159 153.601 30.0159 153.622 30.0159C153.662 30.0159 153.723 30.0159 153.763 30.0361C153.804 30.0361 153.864 30.0563 153.905 30.0766C153.905 30.0766 153.905 30.0766 153.925 30.0766C153.925 30.0766 153.925 30.0766 153.945 30.0766C153.986 30.0766 154.006 30.0766 154.047 30.0968C154.087 30.0968 154.148 30.1373 154.188 30.1373C154.209 30.1373 154.229 30.1373 154.249 30.1575C154.249 30.1575 154.249 30.1575 154.269 30.1575C154.269 30.1575 154.289 30.1575 154.31 30.1575C154.35 30.1778 154.411 30.198 154.451 30.2182C154.472 30.2182 154.512 30.2385 154.532 30.2587H154.553H154.573C154.613 30.2789 154.674 30.3194 154.714 30.3397C154.735 30.3397 154.755 30.3599 154.775 30.3801C154.775 30.3801 154.816 30.4004 154.816 30.4206C154.816 30.4206 154.856 30.4408 154.856 30.4611C154.917 30.5016 154.957 30.542 154.998 30.6027C154.998 30.6027 155.018 30.623 155.038 30.6432C155.079 30.6837 155.139 30.7444 155.16 30.7849C155.22 30.8658 155.281 30.9468 155.322 31.048C155.625 31.6956 155.949 32.3229 156.273 32.9705C156.232 32.8895 156.172 32.7884 156.111 32.7074C156.07 32.6467 156.03 32.6062 155.969 32.5455C155.969 32.5455 155.949 32.5253 155.929 32.505C155.868 32.4443 155.807 32.3836 155.726 32.3431C155.726 32.3431 155.686 32.3229 155.686 32.3027C155.605 32.242 155.544 32.2015 155.463 32.161C155.463 32.161 155.463 32.161 155.423 32.161C155.342 32.1205 155.241 32.0801 155.16 32.0396C155.16 32.0396 155.16 32.0396 155.139 32.0396C155.038 31.9991 154.937 31.9586 154.836 31.9384C154.836 31.9384 154.836 31.9384 154.816 31.9384C154.694 31.9182 154.573 31.8777 154.451 31.8575C154.33 31.8575 154.188 31.817 154.047 31.817L147.065 31.3718C146.923 31.3718 146.781 31.3718 146.64 31.3718H146.62C146.478 31.3718 146.356 31.3718 146.215 31.392H146.174C146.053 31.392 145.911 31.4122 145.79 31.4527C145.79 31.4527 145.749 31.4527 145.729 31.4527C145.587 31.4729 145.466 31.4932 145.324 31.5337C145.324 31.5337 145.324 31.5337 145.284 31.5337C145.142 31.5741 145.001 31.6146 144.839 31.6551C144.697 31.6956 144.535 31.7563 144.393 31.7967C144.252 31.8372 144.13 31.8979 143.989 31.9586C143.908 31.9991 143.827 32.0193 143.766 32.0598C143.685 32.1003 143.624 32.1205 143.543 32.161C143.523 32.161 143.483 32.1812 143.463 32.2015C143.341 32.2622 143.24 32.3229 143.119 32.3836C143.119 32.3836 143.118 32.3836 143.098 32.3836C142.957 32.4646 142.835 32.5455 142.694 32.6265C142.572 32.7074 142.451 32.7884 142.329 32.8693C142.329 32.8693 142.329 32.8693 142.309 32.8693C142.188 32.9503 142.066 33.0515 141.965 33.1526C141.844 33.2336 141.742 33.3348 141.641 33.436C141.641 33.436 141.621 33.436 141.601 33.4562C141.5 33.5574 141.398 33.6586 141.297 33.7598C141.196 33.8609 141.115 33.9621 141.034 34.0836C141.034 34.0836 141.034 34.0836 141.014 34.124C140.933 34.2252 140.852 34.3466 140.771 34.4478L139.172 36.8561C139.091 36.9775 139.031 37.0787 138.97 37.2001C138.97 37.2001 138.97 37.2001 138.97 37.2406C138.909 37.3417 138.869 37.4429 138.828 37.5441C138.828 37.5441 138.828 37.5644 138.828 37.5846C138.788 37.6858 138.747 37.7667 138.727 37.8679C138.727 37.8882 138.727 37.9084 138.727 37.9286C138.707 38.0298 138.687 38.1108 138.666 38.1917C138.666 38.2929 138.646 38.3941 138.646 38.4953C138.646 38.4953 138.646 38.5155 138.646 38.5357C138.646 38.6167 138.646 38.6976 138.646 38.7584C138.646 38.7786 138.646 38.7988 138.646 38.8393C138.646 38.9 138.666 38.9607 138.687 39.0215C138.687 39.0417 138.687 39.0619 138.687 39.1024C138.707 39.1834 138.747 39.2643 138.767 39.3452C138.646 39.1024 138.525 38.8393 138.383 38.5762C138.363 38.5155 138.322 38.4346 138.282 38.3941C138.12 38.0703 137.978 37.7465 137.816 37.4429C137.776 37.362 137.756 37.281 137.735 37.2001C137.735 37.1799 137.735 37.1596 137.715 37.1191C137.715 37.0584 137.695 36.9977 137.675 36.937C137.675 36.9168 137.675 36.8763 137.675 36.8561C137.675 36.7751 137.675 36.7144 137.675 36.6335V36.593C137.675 36.512 137.675 36.4108 137.695 36.3096V36.2894C137.695 36.2287 137.695 36.168 137.735 36.1073C137.735 36.1073 137.735 36.0466 137.756 36.0263C137.756 36.0263 137.756 35.9859 137.756 35.9656V35.9252C137.756 35.8644 137.796 35.8037 137.816 35.743C137.816 35.743 137.816 35.7025 137.837 35.6823C137.837 35.6823 137.837 35.6621 137.837 35.6418C137.837 35.6216 137.837 35.6013 137.857 35.5811C137.857 35.5204 137.897 35.4799 137.918 35.4192C137.918 35.399 137.958 35.3585 137.958 35.3383C137.958 35.3383 137.958 35.3383 137.958 35.318C137.958 35.318 137.958 35.2978 137.958 35.2776C137.978 35.2371 138.019 35.1764 138.039 35.1359C138.059 35.0954 138.1 35.0347 138.12 34.9942L139.719 32.586C139.719 32.586 139.779 32.505 139.8 32.4443L140.083 32.4241Z" fill="#2C2A41"/>
<path d="M104.323 96.1107C104.323 96.1107 104.323 96.0703 104.323 96.05C104.323 96.0298 104.323 95.9893 104.323 95.9691C104.323 95.9691 104.323 95.9286 104.323 95.9084C104.323 95.9084 104.323 95.8679 104.323 95.8477C104.323 95.8477 104.323 95.8072 104.323 95.787C104.323 95.787 104.323 95.7869 104.323 95.7667C104.323 95.7667 104.323 95.7465 104.323 95.7263L104.344 95.6858C104.344 95.6858 104.344 95.6655 104.364 95.6453C104.364 95.6453 104.364 95.625 104.384 95.6048L142.005 38.7786L142.936 40.7011L105.315 97.5274C105.315 97.5274 105.234 97.669 105.214 97.7297C105.193 97.7904 105.173 97.8511 105.153 97.9119C105.153 97.9523 105.153 98.0131 105.153 98.0535V98.094C105.153 98.1345 105.173 98.1952 105.193 98.2357L104.263 96.3334C104.263 96.3334 104.222 96.2524 104.222 96.1917C104.222 96.1917 104.222 96.1715 104.222 96.1512L104.323 96.1107Z" fill="#2C2A41"/>
<path d="M154.249 31.7967C156.495 31.9384 157.325 33.5776 156.09 35.4596L154.492 37.8679C153.257 39.7297 150.404 41.1463 148.157 41.0046L146.255 40.8832L108.634 97.7095C108.27 98.2357 107.48 98.6404 106.873 98.5999L105.942 98.5392C105.315 98.4987 105.113 98.0333 105.457 97.5071L143.078 40.6809L141.175 40.5594C138.929 40.4178 138.099 38.7785 139.334 36.8965L140.933 34.4882C142.167 32.6062 145.02 31.2098 147.267 31.3515L154.249 31.7967Z" fill="#0B0B27"/>
<path d="M11.8184 89.3312V95.3417L12.4255 95.706V89.6955L11.8184 89.3312Z" fill="#88571B"/>
<path d="M25.6405 97.3656V103.376L26.2476 103.74V97.7298L25.6405 97.3656Z" fill="#88571B"/>
<path d="M38.9365 105.096V111.127L39.5639 111.471V105.461L38.9365 105.096Z" fill="#88571B"/>
<path d="M52.0504 112.726V118.736L52.6777 119.1V113.09L52.0504 112.726Z" fill="#88571B"/>
<path d="M70.6282 45.2952L92.788 32.4243L91.1083 31.4529L68.9485 44.3238L70.6282 45.2952Z" fill="#A58566"/>
<path d="M69.009 19.1486L91.1891 6.25747L81.0704 0.429138L58.8904 13.3L69.009 19.1486Z" fill="#D7AE82"/>
<path d="M68.9485 44.3235L91.1083 31.4526L91.1893 6.2572L69.0092 19.1483L68.9485 44.3235Z" fill="#6A5640"/>
<path d="M70.709 20.1197L92.8688 7.2286L91.1891 6.2572L69.009 19.1483L70.709 20.1197Z" fill="#AC7941"/>
<path d="M69.0092 19.1487L68.9485 44.3238L70.6282 45.2952L70.7091 20.1201L69.0092 19.1487Z" fill="#885628"/>
<path d="M70.6282 45.2951L92.788 32.4242L92.869 7.22882L70.7092 20.12L70.6282 45.2951Z" fill="#5F4123"/>
<path d="M58.8906 13.3003L58.8298 38.4957L80.7468 51.144L80.8075 25.9688L70.7091 20.1203L70.6282 45.2954L68.9485 44.324L69.0092 19.1489L58.8906 13.3003Z" fill="#C19B77"/>
<path d="M80.8075 25.9685L102.988 13.0774L92.8689 7.22882L70.7091 20.12L80.8075 25.9685Z" fill="#D7AE82"/>
<path d="M80.7469 51.1435L102.907 38.2523L102.988 13.0772L80.8076 25.9683L80.7469 51.1435Z" fill="#AA8057"/>
<path d="M77.1444 30.4409C75.9909 29.7731 75.0397 28.1339 75.0397 26.7982C75.0397 25.4625 75.9909 24.9161 77.1444 25.584C78.2979 26.2518 79.2491 27.891 79.2491 29.2267C79.2491 30.5623 78.2979 31.1087 77.1444 30.4409ZM77.1444 29.5909C77.8932 30.0159 78.5205 29.6719 78.5205 28.8017C78.5205 27.9315 77.9134 26.8589 77.1444 26.4339C76.3956 25.9887 75.7683 26.353 75.7683 27.2232C75.7683 28.0934 76.3754 29.166 77.1444 29.5909Z" fill="#513B29"/>
<path d="M91.2902 43.271V39.5474C91.2902 39.2843 91.5128 38.9605 91.7557 38.7986L95.4793 36.6535C95.7424 36.4916 95.9448 36.5928 95.9448 36.8558V40.5795C95.9448 40.8426 95.7424 41.1664 95.4793 41.3283L91.7557 43.4734C91.4926 43.6151 91.2902 43.5341 91.2902 43.271ZM91.7557 38.9403C91.5735 39.0415 91.4116 39.2843 91.4116 39.4664V43.1901C91.4116 43.3722 91.5735 43.4329 91.7557 43.3318L95.4793 41.1866C95.6615 41.0854 95.8234 40.8426 95.8234 40.6604V36.9368C95.8234 36.7547 95.6615 36.6939 95.4793 36.7951L91.7557 38.9403Z" fill="#1C1C1C"/>
<path d="M94.427 37.564L95.1353 38.0902L94.6294 38.3735V40.7817L94.2449 40.9841V38.5961L93.739 38.8997L94.427 37.564Z" fill="#1C1C1C"/>
<path d="M92.8687 38.4748L93.5567 39.0009L93.0508 39.2843V41.6925L92.6663 41.8949V39.5069L92.1603 39.8104L92.8687 38.4748Z" fill="#1C1C1C"/>
<path d="M92.1603 42.8461L95.1352 41.126V40.7212L92.1603 42.4414V42.8461Z" fill="#1C1C1C"/>
<path d="M85.5024 46.5903V42.8666C85.5024 42.6035 85.7048 42.2797 85.9679 42.1178L89.6916 39.9727C89.9546 39.8108 90.157 39.912 90.157 40.1751V43.8785C90.157 44.1416 89.9546 44.4653 89.6916 44.6272L85.9679 46.7724C85.7048 46.9141 85.5024 46.8331 85.5024 46.57V46.5903ZM85.9881 42.2797C85.806 42.3809 85.6441 42.6238 85.6441 42.8059V46.5296C85.6441 46.7117 85.806 46.7724 85.9881 46.6712L89.7118 44.5261C89.8939 44.4249 90.0558 44.182 90.0558 43.9999V40.2762C90.0558 40.0941 89.9142 40.0334 89.7118 40.1346L85.9881 42.2797Z" fill="#1C1C1C"/>
<path d="M87.2833 45.4368L87.7286 45.1737V43.7167C86.9393 44.1012 87.2429 41.7132 87.2429 41.7132L88.4774 41.0049C88.4774 41.0049 88.619 42.9072 87.931 43.575V45.0725L88.3762 44.8095C88.3762 44.8095 88.4774 44.8095 88.4774 44.8499C88.4774 44.8904 88.4369 44.9916 88.3762 45.0118L87.2631 45.6392C87.2631 45.6392 87.1619 45.6392 87.1619 45.5785C87.1619 45.5178 87.2024 45.4368 87.2631 45.4166L87.2833 45.4368Z" fill="#1C1C1C"/>
<path d="M96.8557 40.0537V36.3301C96.8557 36.067 97.058 35.723 97.3211 35.5813L101.045 33.4362C101.308 33.2945 101.51 33.3754 101.51 33.6385V37.3622C101.51 37.6253 101.288 37.9491 101.045 38.111L97.3211 40.2561C97.058 40.418 96.8557 40.3168 96.8557 40.0537ZM97.3211 35.723C97.139 35.8242 96.9771 36.067 96.9771 36.2491V39.9728C96.9771 40.1549 97.1187 40.2157 97.3211 40.1145L101.045 37.9693C101.227 37.8681 101.389 37.6253 101.389 37.4431V33.7195C101.389 33.5373 101.227 33.4766 101.045 33.5778L97.3211 35.723Z" fill="#1C1C1C"/>
<path d="M100.782 35.8847L97.5643 37.7263C97.5643 37.7263 98.1916 36.2287 99.2035 35.6418C100.215 35.0549 100.762 35.8847 100.762 35.8847H100.782Z" fill="#1C1C1C"/>
<path d="M99.2032 38.7785C99.3044 38.7178 99.3854 38.6368 99.4461 38.5356C99.5878 38.2928 99.5878 38.0297 99.5878 38.0297C99.5878 37.9892 99.5675 37.9892 99.527 38.0297C99.5068 38.0297 99.4663 38.0904 99.4663 38.1309C99.4663 38.1309 99.4663 38.3535 99.3651 38.5356C99.3247 38.6166 99.264 38.6571 99.2032 38.6975C99.1223 38.7583 99.0414 38.7583 99.0009 38.738C98.8795 38.6773 98.8997 38.394 98.8997 38.394V36.9976C98.8997 36.9976 98.8795 36.9571 98.839 36.9774C98.8187 36.9774 98.7783 37.0381 98.7783 37.0583V38.4547C98.7783 38.4547 98.758 38.7785 98.9199 38.8594C99.0009 38.8999 99.0818 38.8797 99.2032 38.819V38.7785Z" fill="#1C1C1C"/>
<path d="M100.782 34.812C100.782 34.812 100.984 35.1357 100.782 35.2572C100.579 35.3786 100.782 34.812 100.782 34.812Z" fill="#1C1C1C"/>
<path d="M99.952 34.7108C99.952 34.7108 100.154 35.0346 99.952 35.156C99.7496 35.2774 99.952 34.7108 99.952 34.7108Z" fill="#1C1C1C"/>
<path d="M98.6161 35.3992C98.6161 35.3992 98.8184 35.723 98.6161 35.8444C98.4137 35.9658 98.6161 35.3992 98.6161 35.3992Z" fill="#1C1C1C"/>
<path d="M97.7459 36.5726C97.7459 36.5726 97.9483 36.8964 97.7459 37.0178C97.5435 37.1392 97.7459 36.5726 97.7459 36.5726Z" fill="#1C1C1C"/>
<path d="M98.11 35.4398C98.11 35.4398 98.3123 35.7636 98.11 35.885C97.9076 36.0064 98.11 35.4398 98.11 35.4398Z" fill="#1C1C1C"/>
<path d="M99.2639 34.7919C99.2639 34.7919 99.4663 35.1157 99.2639 35.2372C99.0615 35.3586 99.2639 34.7919 99.2639 34.7919Z" fill="#1C1C1C"/>
<path d="M100.519 34.0632C100.519 34.0632 100.721 34.387 100.519 34.5084C100.316 34.6298 100.519 34.0632 100.519 34.0632Z" fill="#1C1C1C"/>
<path d="M81.5356 29.8338L85.7652 27.3851V24.2483L81.5356 26.697V29.8338Z" fill="white"/>
</svg>
