<svg width="190" height="137" viewBox="0 0 190 137" fill="none" xmlns="http://www.w3.org/2000/svg">
<g clip-path="url(#clip0_1_3797)">
<path d="M139 72.7442L78.7977 107.476V74.7734L139 40.0414V72.7442Z" fill="#DE2D2D"/>
<path d="M139 41.5126L78.7977 76.2445V74.7734L139 40.0414V41.5126Z" fill="#C21B1B"/>
<path d="M78.7977 103.621L139.017 68.8889V72.7273L78.7977 107.476V103.621Z" fill="#EA4545"/>
<path d="M98.82 93.5428L91.2037 97.9392V100.323L98.82 95.927V93.5428Z" fill="#C21B1B"/>
<path d="M126.272 77.7156L118.656 82.112V84.4793L126.272 80.0829V77.7156Z" fill="#C21B1B"/>
<path d="M81.6073 101.997L80.8625 102.42V75.0439L81.6073 74.6042V101.997Z" fill="#C21B1B"/>
<path d="M80.8626 102.42L80.5071 102.64V75.2468L80.8626 75.0439V102.42Z" fill="#FF4D4D"/>
<path d="M84.4676 100.34L83.7399 100.763V73.3868L84.4676 72.9641V100.34Z" fill="#C21B1B"/>
<path d="M83.7398 100.763L83.3675 100.983V73.5897L83.7398 73.3868V100.763Z" fill="#FF4D4D"/>
<path d="M87.3449 98.6833L86.6002 99.106V71.7297L87.3449 71.3069V98.6833Z" fill="#C21B1B"/>
<path d="M86.6002 99.106L86.2448 99.3258V71.9326L86.6002 71.7297V99.106Z" fill="#FF4D4D"/>
<path d="M90.2052 97.043L89.4774 97.4658V70.0725L90.2052 69.6498V97.043Z" fill="#C21B1B"/>
<path d="M89.4774 97.4657L89.105 97.6687V70.2923L89.4774 70.0725V97.4657Z" fill="#FF4D4D"/>
<path d="M93.0824 95.3859L92.3377 95.8086V68.4154L93.0824 67.9927V95.3859Z" fill="#C21B1B"/>
<path d="M92.3377 95.8086L91.9823 96.0285V68.6352L92.3377 68.4154V95.8086Z" fill="#FF4D4D"/>
<path d="M95.9597 93.7288L95.215 94.1515V66.7583L95.9597 66.3356V93.7288Z" fill="#C21B1B"/>
<path d="M95.215 94.1515L94.8427 94.3714V66.9781L95.215 66.7583V94.1515Z" fill="#FF4D4D"/>
<path d="M98.8199 92.0717L98.0922 92.4944V65.1012L98.8199 64.6785V92.0717Z" fill="#C21B1B"/>
<path d="M98.0922 92.4944L97.7198 92.7143V65.321L98.0922 65.1012V92.4944Z" fill="#FF4D4D"/>
<path d="M101.68 90.4145L100.953 90.8373V63.444L101.68 63.0213V90.4145Z" fill="#C21B1B"/>
<path d="M100.953 90.8373L100.58 91.0571V63.6639L100.953 63.444V90.8373Z" fill="#FF4D4D"/>
<path d="M104.558 88.7574L103.813 89.1802V61.7869L104.558 61.3642V88.7574Z" fill="#C21B1B"/>
<path d="M103.813 89.1802L103.457 89.4V62.0067L103.813 61.7869V89.1802Z" fill="#FF4D4D"/>
<path d="M107.418 87.1003L106.69 87.5231V60.1467L107.418 59.724V87.1003Z" fill="#C21B1B"/>
<path d="M106.69 87.5231L106.318 87.7429V60.3496L106.69 60.1467V87.5231Z" fill="#FF4D4D"/>
<path d="M110.295 85.4601L109.55 85.8829V58.4896L110.295 58.0669V85.4601Z" fill="#C21B1B"/>
<path d="M109.55 85.8829L109.195 86.0858V58.6925L109.55 58.4896V85.8829Z" fill="#FF4D4D"/>
<path d="M113.172 83.803L112.428 84.2257V56.8325L113.172 56.4097V83.803Z" fill="#C21B1B"/>
<path d="M112.428 84.2257L112.055 84.4286V57.0523L112.428 56.8325V84.2257Z" fill="#FF4D4D"/>
<path d="M116.033 82.1459L115.305 82.5686V55.1754L116.033 54.7526V82.1459Z" fill="#C21B1B"/>
<path d="M115.305 82.5686L114.933 82.7884V55.3952L115.305 55.1754V82.5686Z" fill="#FF4D4D"/>
<path d="M118.91 80.4888L118.165 80.9115V53.5183L118.91 53.0955V80.4888Z" fill="#C21B1B"/>
<path d="M118.165 80.9115L117.793 81.1313V53.7381L118.165 53.5182V80.9115Z" fill="#FF4D4D"/>
<path d="M121.77 78.8316L121.042 79.2543V51.8611L121.77 51.4384V78.8316Z" fill="#C21B1B"/>
<path d="M121.043 79.2543L120.67 79.4741V52.0809L121.043 51.8611V79.2543Z" fill="#FF4D4D"/>
<path d="M124.648 77.1745L123.903 77.6141V50.2209L124.648 49.7812V77.1745Z" fill="#C21B1B"/>
<path d="M123.903 77.6141L123.531 77.817V50.4238L123.903 50.2209V77.6141Z" fill="#FF4D4D"/>
<path d="M127.508 75.5174L126.78 75.957V48.5638L127.508 48.1411V75.5174Z" fill="#C21B1B"/>
<path d="M126.78 75.957L126.408 76.1599V48.7667L126.78 48.5638V75.957Z" fill="#FF4D4D"/>
<path d="M130.385 73.8772L129.64 74.2999V46.9067L130.385 46.4839V73.8772Z" fill="#C21B1B"/>
<path d="M129.64 74.2999L129.268 74.5028V47.1096L129.64 46.9067V74.2999Z" fill="#FF4D4D"/>
<path d="M133.245 72.22L132.518 72.6428V45.2495L133.245 44.8268V72.22Z" fill="#C21B1B"/>
<path d="M132.518 72.6427L132.145 72.8626V45.4693L132.518 45.2495V72.6427Z" fill="#FF4D4D"/>
<path d="M136.123 70.5629L135.378 70.9856V43.5924L136.123 43.1697V70.5629Z" fill="#C21B1B"/>
<path d="M135.378 70.9856L135.006 71.2055V43.8122L135.378 43.5924V70.9856Z" fill="#FF4D4D"/>
<path d="M78.7977 74.7734V107.476L53.1733 92.6974V59.9946L78.7977 74.7734Z" fill="#DE2D2D"/>
<path d="M78.7977 77.4789V76.6672L53.1733 61.9053V62.7001L78.7977 77.4789Z" fill="#A80404"/>
<path d="M78.7977 105.802V105.041L53.1733 90.2624V91.0402L78.7977 105.802Z" fill="#A80404"/>
<path d="M66.3409 98.6325L65.6301 98.2098V69.0749L66.3409 69.4976V98.6325Z" fill="#9B0000"/>
<path d="M77.6468 83.7354L67.1533 77.6818V75.6019L77.6468 81.6386V83.7354Z" fill="#C21111"/>
<path d="M77.6468 82.1459L67.1533 76.0923V75.6019L77.6468 81.6386V82.1459Z" fill="#9B0000"/>
<path d="M77.6468 83.8537L67.1533 77.8001V77.3098L77.6468 83.3633V83.8537Z" fill="#FF4D4D"/>
<path d="M77.6468 90.905L67.1533 84.8514V82.7715L77.6468 88.8251V90.905Z" fill="#C21111"/>
<path d="M77.6468 89.3155L67.1533 83.2619V82.7715L77.6468 88.8251V89.3155Z" fill="#9B0000"/>
<path d="M77.6468 91.0233L67.1533 84.9866V84.4963L77.6468 90.5329V91.0233Z" fill="#FF4D4D"/>
<path d="M77.6468 98.0745L67.1533 92.021V89.9411L77.6468 95.9947V98.0745Z" fill="#C21111"/>
<path d="M77.6468 96.485L67.1533 90.4315V89.9411L77.6468 95.9947V96.485Z" fill="#9B0000"/>
<path d="M77.6468 98.2098L67.1533 92.1562V91.6658L77.6468 97.7194V98.2098Z" fill="#FF4D4D"/>
<path d="M64.5299 76.0923L54.0364 70.0557V67.9758L64.5299 74.0125V76.0923Z" fill="#C21111"/>
<path d="M64.5299 74.5029L54.0364 68.4493V67.9758L64.5299 74.0125V74.5029Z" fill="#9B0000"/>
<path d="M64.5299 76.2276L54.0364 70.174V69.6837L64.5299 75.7372V76.2276Z" fill="#FF4D4D"/>
<path d="M64.5299 83.2788L54.0364 77.2252V75.1454L64.5299 81.182V83.2788Z" fill="#C21111"/>
<path d="M64.5299 81.6893L54.0364 75.6358V75.1454L64.5299 81.182V81.6893Z" fill="#9B0000"/>
<path d="M64.5299 83.3971L54.0364 77.3605V76.8532L64.5299 82.9237V83.3971Z" fill="#FF4D4D"/>
<path d="M64.5299 90.4484L54.0364 84.3949V82.315L64.5299 88.3686V90.4484Z" fill="#C21111"/>
<path d="M64.5299 88.8589L54.0364 82.8054V82.315L64.5299 88.3686V88.8589Z" fill="#9B0000"/>
<path d="M64.5299 90.5837L54.0364 84.5301V84.0397L64.5299 90.0933V90.5837Z" fill="#FF4D4D"/>
<path d="M57.2861 93.9148C57.2861 94.0501 57.1507 94.0839 56.9814 93.9825C56.8122 93.881 56.6768 93.695 56.6768 93.5597V62.7339C56.6768 62.5986 56.8122 62.5648 56.9814 62.6662C57.1507 62.7677 57.2861 62.9537 57.2861 63.089V93.9148Z" fill="#BCB4B4"/>
<path d="M61.8219 96.5358C61.8219 96.6711 61.6865 96.7049 61.5173 96.6034C61.348 96.502 61.2126 96.316 61.2126 96.1807V65.3548C61.2126 65.2196 61.348 65.1857 61.5173 65.2872C61.6865 65.3887 61.8219 65.5747 61.8219 65.7099V96.5358Z" fill="#BCB4B4"/>
<path d="M70.4367 101.507C70.4367 101.642 70.3013 101.676 70.1321 101.575C69.9628 101.49 69.8275 101.287 69.8275 101.152V70.3262C69.8275 70.1909 69.9628 70.1571 70.1321 70.2586C70.3013 70.36 70.4367 70.546 70.4367 70.6813V101.507Z" fill="#BCB4B4"/>
<path d="M74.9726 104.111C74.9726 104.246 74.8372 104.28 74.668 104.179C74.4987 104.077 74.3633 103.891 74.3633 103.756V72.9303C74.3633 72.795 74.4987 72.7612 74.668 72.8626C74.8372 72.9641 74.9726 73.1501 74.9726 73.2854V104.111Z" fill="#BCB4B4"/>
<path d="M61.5173 90.7866L56.6768 87.9966V87.3371L61.5173 90.1271V90.7866Z" fill="#BCB4B4"/>
<path d="M74.8203 98.4634L69.9798 95.6734V95.0139L74.8203 97.804V98.4634Z" fill="#BCB4B4"/>
<path d="M72.9247 99.8331L69.9798 98.1253V97.4658L72.9247 99.1737V99.8331Z" fill="#BCB4B4"/>
<path d="M59.5202 89.9749C59.5202 90.1609 59.3678 90.2286 59.1986 90.1102C59.0124 90.0087 58.877 89.772 58.877 89.586V88.4362C58.877 88.2502 59.0293 88.1825 59.1986 88.3009C59.3848 88.4023 59.5202 88.6391 59.5202 88.8251V89.9749Z" fill="#BCB4B4"/>
<path d="M72.7216 97.4996C72.7216 97.6856 72.5693 97.7364 72.4001 97.6349C72.2139 97.5335 72.0785 97.2967 72.0785 97.1276V95.9778C72.0785 95.7918 72.2308 95.7411 72.4001 95.8425C72.5862 95.944 72.7216 96.1807 72.7216 96.3667V97.5165V97.4996Z" fill="#BCB4B4"/>
<path d="M72.7216 100.036C72.7216 100.222 72.5693 100.29 72.4001 100.171C72.2139 100.07 72.0785 99.8331 72.0785 99.6471V98.4973C72.0785 98.3113 72.2308 98.2605 72.4001 98.362C72.5862 98.4634 72.7216 98.7002 72.7216 98.8862V100.036Z" fill="#BCB4B4"/>
<path d="M58.0985 66.7245L57.2861 66.268V64.2726L58.0985 64.7292V66.7245Z" fill="#BCB4B4"/>
<path d="M62.6174 69.3286L61.822 68.872V66.8936L62.6174 67.3502V69.3286Z" fill="#BCB4B4"/>
<path d="M71.2322 74.3169L70.4368 73.8434V71.8481L71.2322 72.3215V74.3169Z" fill="#BCB4B4"/>
<path d="M75.7681 76.9209L74.9727 76.4643V74.469L75.7681 74.9255V76.9209Z" fill="#BCB4B4"/>
<path d="M75.7681 104.399L74.9727 103.942V101.947L75.7681 102.403V104.399Z" fill="#BCB4B4"/>
<path d="M71.2322 101.795L70.4368 101.321V99.3259L71.2322 99.7993V101.795Z" fill="#BCB4B4"/>
<path d="M62.6174 96.8233L61.822 96.3498V94.3714L62.6174 94.828V96.8233Z" fill="#BCB4B4"/>
<path d="M58.0985 94.2023L57.2861 93.7457V91.7504L58.0985 92.207V94.2023Z" fill="#BCB4B4"/>
<path d="M75.7681 104.99L77.6468 106.073V106.8L75.7681 105.718V104.99Z" fill="#A80404"/>
<path d="M53.1733 59.9945L113.359 25.2795L139 40.0584L78.7977 74.7903L53.1733 59.9945Z" fill="#FF4D4D"/>
<path d="M87.2264 60.3158L78.3746 65.4224L69.5228 60.3158L78.3746 55.2092L87.2264 60.3158Z" fill="#DE2D2D"/>
<path d="M113.223 45.3172L104.371 50.4239L95.5366 45.3172L104.371 40.2106L113.223 45.3172Z" fill="#DE2D2D"/>
<path d="M164.675 87.5061L104.456 122.221V89.5184L164.675 54.8033V87.5061Z" fill="#036A91"/>
<path d="M164.675 56.2576L104.456 90.9895V89.5184L164.675 54.8033V56.2576Z" fill="#002F56"/>
<path d="M104.456 118.383L164.692 83.6339V87.4893L104.456 122.221V118.383Z" fill="#1299CB"/>
<path d="M124.495 108.305L116.862 112.701V115.068L124.495 110.672V108.305Z" fill="#002F56"/>
<path d="M151.948 92.4775L144.331 96.857V99.2412L151.948 94.8448V92.4775Z" fill="#002F56"/>
<path d="M107.283 116.759L106.538 117.182V89.7889L107.283 89.3661V116.759Z" fill="#002F56"/>
<path d="M106.538 117.182L106.165 117.402V90.0087L106.538 89.7889V117.182Z" fill="#1299CB"/>
<path d="M110.143 115.102L109.415 115.525V88.1318L110.143 87.709V115.102Z" fill="#002F56"/>
<path d="M109.415 115.525L109.043 115.745V88.3516L109.415 88.1318V115.525Z" fill="#1299CB"/>
<path d="M113.02 113.445L112.275 113.868V86.4916L113.02 86.0519V113.445Z" fill="#002F56"/>
<path d="M112.275 113.868L111.903 114.088V86.6945L112.275 86.4916V113.868Z" fill="#1299CB"/>
<path d="M115.88 111.788L115.153 112.228V84.8344L115.88 84.4117V111.788Z" fill="#002F56"/>
<path d="M115.153 112.228L114.78 112.431V85.0373L115.153 84.8344V112.228Z" fill="#1299CB"/>
<path d="M118.758 110.131L118.013 110.571V83.1773L118.758 82.7546V110.131Z" fill="#002F56"/>
<path d="M118.013 110.571L117.641 110.773V83.3802L118.013 83.1773V110.571Z" fill="#1299CB"/>
<path d="M121.618 108.491L120.89 108.913V81.5202L121.618 81.0975V108.491Z" fill="#002F56"/>
<path d="M120.89 108.913L120.518 109.116V81.74L120.89 81.5202V108.913Z" fill="#1299CB"/>
<path d="M124.495 106.834L123.751 107.256V79.8631L124.495 79.4404V106.834Z" fill="#002F56"/>
<path d="M123.751 107.256L123.395 107.459V80.0829L123.751 79.8631V107.256Z" fill="#1299CB"/>
<path d="M127.356 105.176L126.628 105.599V78.2059L127.356 77.7832V105.176Z" fill="#002F56"/>
<path d="M126.628 105.599L126.255 105.819V78.4258L126.628 78.2059V105.599Z" fill="#1299CB"/>
<path d="M130.233 103.519L129.488 103.942V76.5488L130.233 76.1261V103.519Z" fill="#002F56"/>
<path d="M129.488 103.942L129.116 104.162V76.7687L129.488 76.5488V103.942Z" fill="#1299CB"/>
<path d="M133.093 101.862L132.365 102.302V74.8917L133.093 74.469V101.862Z" fill="#002F56"/>
<path d="M132.365 102.302L131.993 102.505V75.1115L132.365 74.8917V102.302Z" fill="#1299CB"/>
<path d="M135.97 100.205L135.226 100.628V73.2346L135.97 72.8119V100.205Z" fill="#002F56"/>
<path d="M135.226 100.628L134.853 100.848V73.4544L135.226 73.2346V100.628Z" fill="#1299CB"/>
<path d="M138.831 98.5649L138.103 98.9876V71.5944L138.831 71.1547V98.5649Z" fill="#002F56"/>
<path d="M138.103 98.9876L137.731 99.1905V71.7973L138.103 71.5944V98.9876Z" fill="#1299CB"/>
<path d="M141.708 96.9078L140.963 97.3305V69.9373L141.708 69.4976V96.9078Z" fill="#002F56"/>
<path d="M140.963 97.3305L140.591 97.5334V70.1402L140.963 69.9373V97.3305Z" fill="#1299CB"/>
<path d="M144.568 95.2507L143.841 95.6734V68.2802L144.568 67.8574V95.2507Z" fill="#002F56"/>
<path d="M143.84 95.6734L143.468 95.8932V68.5L143.84 68.2802V95.6734Z" fill="#1299CB"/>
<path d="M147.446 93.5935L146.701 94.0163V66.6231L147.446 66.2003V93.5935Z" fill="#002F56"/>
<path d="M146.701 94.0163L146.328 94.2361V66.8429L146.701 66.623V94.0163Z" fill="#1299CB"/>
<path d="M150.306 91.9364L149.578 92.3591V64.9659L150.306 64.5432V91.9364Z" fill="#002F56"/>
<path d="M149.578 92.3591L149.206 92.5789V65.1857L149.578 64.9659V92.3591Z" fill="#1299CB"/>
<path d="M153.183 90.2793L152.438 90.702V63.3088L153.183 62.886V90.2793Z" fill="#002F56"/>
<path d="M152.438 90.702L152.066 90.9218V63.5286L152.438 63.3088V90.702Z" fill="#1299CB"/>
<path d="M156.043 88.6222L155.316 89.0449V61.6686L156.043 61.2289V88.6222Z" fill="#002F56"/>
<path d="M155.316 89.0449L154.943 89.2647V61.8715L155.316 61.6686V89.0449Z" fill="#1299CB"/>
<path d="M158.921 86.9819L158.176 87.4047V60.0114L158.921 59.5887V86.9819Z" fill="#002F56"/>
<path d="M158.176 87.4046L157.821 87.6076V60.2143L158.176 60.0114V87.4046Z" fill="#1299CB"/>
<path d="M161.781 85.3248L161.053 85.7476V58.3543L161.781 57.9316V85.3248Z" fill="#002F56"/>
<path d="M161.053 85.7475L160.681 85.9505V58.5741L161.053 58.3543V85.7475Z" fill="#1299CB"/>
<path d="M104.456 89.5015V122.221L78.8485 107.442V74.7396L104.456 89.5015Z" fill="#036A91"/>
<path d="M104.456 92.2239V91.4291L78.8485 76.6503V77.4451L104.456 92.2239Z" fill="#002F56"/>
<path d="M104.456 120.564V119.786L78.8485 105.007V105.785L104.456 120.564Z" fill="#002F56"/>
<path d="M92.0162 113.378L91.2884 112.972V83.8199L92.0162 84.2426V113.378Z" fill="#002F56"/>
<path d="M103.305 98.4804L92.8116 92.4268V90.3469L103.305 96.4005V98.4804Z" fill="#036A91"/>
<path d="M103.305 96.8909L92.8116 90.8373V90.3469L103.305 96.4005V96.8909Z" fill="#002F56"/>
<path d="M103.305 98.6156L92.8116 92.5451V92.0547L103.305 98.1083V98.6156Z" fill="#1299CB"/>
<path d="M103.305 105.65L92.8116 99.5964V97.5165L103.305 103.57V105.65Z" fill="#036A91"/>
<path d="M103.305 104.06L92.8116 98.0069V97.5165L103.305 103.57V104.06Z" fill="#002F56"/>
<path d="M103.305 105.768L92.8116 99.7316V99.2413L103.305 105.295V105.768Z" fill="#1299CB"/>
<path d="M103.305 112.836L92.8116 106.783V104.703L103.305 110.74V112.836Z" fill="#036A91"/>
<path d="M103.305 111.23L92.8116 105.176V104.703L103.305 110.74V111.23Z" fill="#002F56"/>
<path d="M103.305 112.955L92.8116 106.901V106.411L103.305 112.464V112.955Z" fill="#1299CB"/>
<path d="M90.1883 90.8543L79.6948 84.8007V82.7208L90.1883 88.7744V90.8543Z" fill="#036A91"/>
<path d="M90.1883 89.2648L79.6948 83.2112V82.7208L90.1883 88.7744V89.2648Z" fill="#002F56"/>
<path d="M90.1883 90.9726L79.6948 84.919V84.4286L90.1883 90.4822V90.9726Z" fill="#1299CB"/>
<path d="M90.1883 98.0238L79.6948 91.9702V89.8904L90.1883 95.944V98.0238Z" fill="#036A91"/>
<path d="M90.1883 96.4343L79.6948 90.3808V89.8904L90.1883 95.944V96.4343Z" fill="#002F56"/>
<path d="M90.1883 98.1421L79.6948 92.0886V91.6151L90.1883 97.6518V98.1421Z" fill="#1299CB"/>
<path d="M90.1883 105.193L79.6948 99.1399V97.06L90.1883 103.114V105.193Z" fill="#036A91"/>
<path d="M90.1883 103.604L79.6948 97.5504V97.06L90.1883 103.114V103.604Z" fill="#002F56"/>
<path d="M90.1883 105.329L79.6948 99.2751V98.7847L90.1883 104.838V105.329Z" fill="#1299CB"/>
<path d="M82.9613 108.66C82.9613 108.795 82.8259 108.829 82.6566 108.727C82.4874 108.626 82.352 108.44 82.352 108.305V77.4789C82.352 77.3436 82.4874 77.3098 82.6566 77.4112C82.8259 77.5127 82.9613 77.6987 82.9613 77.834V108.66Z" fill="#BCB4B4"/>
<path d="M87.4972 111.281C87.4972 111.416 87.3618 111.45 87.1925 111.348C87.0233 111.247 86.8879 111.061 86.8879 110.926V80.0998C86.8879 79.9646 87.0233 79.9307 87.1925 80.0322C87.3618 80.1337 87.4972 80.3197 87.4972 80.4549V111.281Z" fill="#BCB4B4"/>
<path d="M96.112 116.252C96.112 116.387 95.9766 116.421 95.8073 116.32C95.6381 116.218 95.5027 116.032 95.5027 115.897V85.0712C95.5027 84.9359 95.6381 84.9021 95.8073 85.0036C95.9766 85.105 96.112 85.291 96.112 85.4263V116.252Z" fill="#BCB4B4"/>
<path d="M100.631 118.856C100.631 118.991 100.496 119.025 100.326 118.924C100.157 118.822 100.022 118.636 100.022 118.501V87.6753C100.022 87.54 100.157 87.5062 100.326 87.6076C100.496 87.7091 100.631 87.8951 100.631 88.0304V118.856Z" fill="#BCB4B4"/>
<path d="M87.1756 105.532L82.352 102.742V102.099L87.1756 104.889V105.532Z" fill="#BCB4B4"/>
<path d="M100.479 113.208L95.6381 110.418V109.759L100.479 112.549V113.208Z" fill="#BCB4B4"/>
<path d="M98.6 114.578L95.6381 112.87V112.228L98.6 113.919V114.578Z" fill="#BCB4B4"/>
<path d="M85.1954 104.72C85.1954 104.906 85.06 104.957 84.8738 104.855C84.6877 104.754 84.5522 104.517 84.5522 104.331V103.181C84.5522 102.995 84.6877 102.944 84.8738 103.046C85.06 103.147 85.1954 103.384 85.1954 103.57V104.72Z" fill="#BCB4B4"/>
<path d="M98.3969 112.245C98.3969 112.431 98.2445 112.498 98.0753 112.38C97.8891 112.278 97.7537 112.042 97.7537 111.856V110.723C97.7537 110.537 97.8891 110.469 98.0753 110.571C98.2615 110.672 98.3969 110.909 98.3969 111.095V112.228V112.245Z" fill="#BCB4B4"/>
<path d="M98.3969 114.781C98.3969 114.967 98.2445 115.018 98.0753 114.916C97.8891 114.815 97.7537 114.578 97.7537 114.392V113.242C97.7537 113.073 97.8891 113.006 98.0753 113.107C98.2615 113.208 98.3969 113.445 98.3969 113.631V114.781Z" fill="#BCB4B4"/>
<path d="M83.7568 81.4695L82.9613 81.0129V79.0176L83.7568 79.4742V81.4695Z" fill="#BCB4B4"/>
<path d="M88.2927 84.0905L87.4972 83.6339V81.6386L88.2927 82.0952V84.0905Z" fill="#BCB4B4"/>
<path d="M96.9075 89.0619L96.112 88.5884V86.5931L96.9075 87.0665V89.0619Z" fill="#BCB4B4"/>
<path d="M101.426 91.6659L100.631 91.2093V89.214L101.426 89.6705V91.6659Z" fill="#BCB4B4"/>
<path d="M101.426 119.144L100.631 118.687V116.692L101.426 117.148V119.144Z" fill="#BCB4B4"/>
<path d="M96.9075 116.54L96.112 116.066V114.071L96.9075 114.544V116.54Z" fill="#BCB4B4"/>
<path d="M88.2927 111.568L87.4972 111.095V109.116L88.2927 109.573V111.568Z" fill="#BCB4B4"/>
<path d="M83.7568 108.947L82.9613 108.491V106.495L83.7568 106.952V108.947Z" fill="#BCB4B4"/>
<path d="M101.426 119.735L103.305 120.818V121.562L101.426 120.479V119.735Z" fill="#002F68"/>
<path d="M78.8485 74.7395L139.051 40.0245L164.692 54.8203L104.473 89.5353L78.8485 74.7395Z" fill="#1299CB"/>
<path d="M112.902 75.0777L104.067 80.1674L95.215 75.0608L104.05 69.9542L112.902 75.0777Z" fill="#036A91"/>
<path d="M138.898 60.0622L130.064 65.1688L121.212 60.0622L130.047 54.9725L138.898 60.0622Z" fill="#036A91"/>
<path d="M151.829 47.4985L91.6269 82.2135V49.5107L151.829 14.7788V47.4985Z" fill="#ECAC00"/>
<path d="M151.829 16.2499L91.6269 50.9818V49.5107L151.829 14.7788V16.2499Z" fill="#D29900"/>
<path d="M91.6269 78.3582L151.829 43.6263V47.4985L91.6269 82.2135V78.3582Z" fill="#FFB81D"/>
<path d="M111.649 68.2802L104.033 72.6935V75.0608L111.649 70.6644V68.2802Z" fill="#D29900"/>
<path d="M139.118 52.4529L131.485 56.8494V59.2336L139.118 54.8203V52.4529Z" fill="#D29900"/>
<path d="M94.4365 76.7518L93.7087 77.1745V49.7813L94.4365 49.3585V76.7518Z" fill="#D29900"/>
<path d="M93.7086 77.1745L93.3363 77.3774V49.9842L93.7086 49.7812V77.1745Z" fill="#FFB81D"/>
<path d="M97.3137 75.0947L96.569 75.5174V48.1242L97.3137 47.7014V75.0947Z" fill="#D29900"/>
<path d="M96.569 75.5174L96.1967 75.7372V48.344L96.569 48.1241V75.5174Z" fill="#FFB81D"/>
<path d="M100.174 73.4375L99.4463 73.8603V46.467L100.174 46.0443V73.4375Z" fill="#D29900"/>
<path d="M99.4463 73.8603L99.0739 74.0801V46.6869L99.4463 46.467V73.8603Z" fill="#FFB81D"/>
<path d="M103.034 71.7804L102.307 72.2032V44.8099L103.034 44.3872V71.7804Z" fill="#D29900"/>
<path d="M102.307 72.2032L101.934 72.423V45.0298L102.307 44.8099V72.2032Z" fill="#FFB81D"/>
<path d="M105.912 70.1233L105.167 70.546V43.1697L105.912 42.73V70.1233Z" fill="#D29900"/>
<path d="M105.167 70.546L104.811 70.7658V43.3726L105.167 43.1697V70.546Z" fill="#FFB81D"/>
<path d="M108.772 68.4662L108.044 68.9058V41.4957L108.772 41.0729V68.4662Z" fill="#D29900"/>
<path d="M108.044 68.9058L107.672 69.1087V41.7155L108.044 41.4957V68.9058Z" fill="#FFB81D"/>
<path d="M111.649 66.826L110.904 67.2487V39.8555L111.649 39.4327V66.826Z" fill="#D29900"/>
<path d="M110.904 67.2487L110.549 67.4516V40.0584L110.904 39.8555V67.2487Z" fill="#FFB81D"/>
<path d="M114.526 65.1688L113.782 65.5915V38.1983L114.526 37.7756V65.1688Z" fill="#D29900"/>
<path d="M113.782 65.5915L113.409 65.7945V38.4012L113.782 38.1983V65.5915Z" fill="#FFB81D"/>
<path d="M117.387 63.5117L116.659 63.9344V36.5412L117.387 36.1185V63.5117Z" fill="#D29900"/>
<path d="M116.659 63.9344L116.287 64.1543V36.761L116.659 36.5412V63.9344Z" fill="#FFB81D"/>
<path d="M120.264 61.8546L119.519 62.2773V34.8841L120.264 34.4614V61.8546Z" fill="#D29900"/>
<path d="M119.519 62.2773L119.147 62.4972V35.1039L119.519 34.8841V62.2773Z" fill="#FFB81D"/>
<path d="M123.124 60.1975L122.397 60.6202V33.227L123.124 32.8043V60.1975Z" fill="#D29900"/>
<path d="M122.397 60.6202L122.024 60.84V33.4468L122.397 33.227V60.6202Z" fill="#FFB81D"/>
<path d="M125.985 58.5403L125.257 58.9631V31.5698L125.985 31.1471V58.5403Z" fill="#D29900"/>
<path d="M125.257 58.9631L124.885 59.1829V31.7896L125.257 31.5698V58.9631Z" fill="#FFB81D"/>
<path d="M128.862 56.8832L128.117 57.3229V29.9296L128.862 29.49V56.8832Z" fill="#D29900"/>
<path d="M128.117 57.3229L127.762 57.5258V30.1325L128.117 29.9296V57.3229Z" fill="#FFB81D"/>
<path d="M131.739 55.2261L130.994 55.6658V28.2725L131.739 27.8329V55.2261Z" fill="#D29900"/>
<path d="M130.994 55.6658L130.622 55.8687V28.4754L130.994 28.2725V55.6658Z" fill="#FFB81D"/>
<path d="M134.6 53.5859L133.855 54.0086V26.6154L134.6 26.1926V53.5859Z" fill="#D29900"/>
<path d="M133.855 54.0087L133.5 54.2116V26.8184L133.855 26.6155V54.0087Z" fill="#FFB81D"/>
<path d="M137.477 51.9288L136.732 52.3515V24.9583L137.477 24.5355V51.9288Z" fill="#D29900"/>
<path d="M136.732 52.3515L136.36 52.5544V25.1612L136.732 24.9583V52.3515Z" fill="#FFB81D"/>
<path d="M140.337 50.2717L139.592 50.6944V23.3012L140.337 22.8784V50.2717Z" fill="#D29900"/>
<path d="M139.592 50.6944L139.237 50.8973V23.521L139.592 23.3011V50.6944Z" fill="#FFB81D"/>
<path d="M143.214 48.6146L142.47 49.0373V21.644L143.214 21.2213V48.6146Z" fill="#D29900"/>
<path d="M142.47 49.0373L142.097 49.2571V21.8639L142.47 21.644V49.0373Z" fill="#FFB81D"/>
<path d="M146.075 46.9574L145.347 47.3801V20.0038L146.075 19.5641V46.9574Z" fill="#D29900"/>
<path d="M145.347 47.3801L144.958 47.5999V20.2067L145.347 20.0038V47.3801Z" fill="#FFB81D"/>
<path d="M148.952 45.3003L148.207 45.7399V18.3467L148.952 17.924V45.3003Z" fill="#D29900"/>
<path d="M148.207 45.7399L147.835 45.9428V18.5496L148.207 18.3467V45.7399Z" fill="#FFB81D"/>
<path d="M91.6269 49.4938V82.2135L66.0024 67.4347V34.7319L91.6269 49.4938Z" fill="#ECAC00"/>
<path d="M91.6269 52.2163V51.4046L66.0024 36.6427V37.4374L91.6269 52.2163Z" fill="#D29900"/>
<path d="M91.6269 80.5395V79.7786L66.0024 64.9998V65.7776L91.6269 80.5395Z" fill="#D29900"/>
<path d="M79.1701 73.3699L78.4592 72.9472V43.8123L79.1701 44.235V73.3699Z" fill="#D29900"/>
<path d="M90.476 58.4558L79.9825 52.4192V50.3224L90.476 56.376V58.4558Z" fill="#ECAC00"/>
<path d="M90.476 56.8663L79.9825 50.8128V50.3224L90.476 56.376V56.8663Z" fill="#D29900"/>
<path d="M90.476 58.5911L79.9825 52.5375V52.0471L90.476 58.1007V58.5911Z" fill="#FFB81D"/>
<path d="M90.476 65.6423L79.9825 59.5888V57.5089L90.476 63.5625V65.6423Z" fill="#ECAC00"/>
<path d="M90.476 64.0529L79.9825 57.9993V57.5089L90.476 63.5625V64.0529Z" fill="#D29900"/>
<path d="M90.476 65.7607L79.9825 59.724V59.2336L90.476 65.2703V65.7607Z" fill="#FFB81D"/>
<path d="M90.476 72.8119L79.9825 66.7583V64.6785L90.476 70.732V72.8119Z" fill="#ECAC00"/>
<path d="M90.476 71.2224L79.9825 65.1688V64.6785L90.476 70.732V71.2224Z" fill="#D29900"/>
<path d="M90.476 72.9471L79.9825 66.8936V66.4032L90.476 72.4568V72.9471Z" fill="#FFB81D"/>
<path d="M77.3591 50.8297L66.8656 44.7931V42.6963L77.3591 48.7499V50.8297Z" fill="#ECAC00"/>
<path d="M77.3591 49.2402L66.8656 43.1867V42.6963L77.3591 48.7499V49.2402Z" fill="#D29900"/>
<path d="M77.3591 50.965L66.8656 44.9114V44.421L77.3591 50.4746V50.965Z" fill="#FFB81D"/>
<path d="M77.3591 58.0162L66.8656 51.9626V49.8658L77.3591 55.9363V58.0162Z" fill="#ECAC00"/>
<path d="M77.3591 56.4267L66.8656 50.3562V49.8658L77.3591 55.9363V56.4267Z" fill="#D29900"/>
<path d="M77.3591 58.1345L66.8656 52.0809V51.5906L77.3591 57.6441V58.1345Z" fill="#FFB81D"/>
<path d="M77.3591 65.1858L66.8656 59.1322V57.0524L77.3591 63.1059V65.1858Z" fill="#ECAC00"/>
<path d="M77.3591 63.5963L66.8656 57.5427V57.0524L77.3591 63.1059V63.5963Z" fill="#D29900"/>
<path d="M77.3591 65.3041L66.8656 59.2675V58.7602L77.3591 64.8138V65.3041Z" fill="#FFB81D"/>
<path d="M70.1152 68.6522C70.1152 68.7875 69.9798 68.8213 69.8106 68.7198C69.6413 68.6184 69.5059 68.4324 69.5059 68.2971V37.4712C69.5059 37.336 69.6413 37.3021 69.8106 37.4036C69.9798 37.5051 70.1152 37.6911 70.1152 37.8263V68.6522Z" fill="#BCB4B4"/>
<path d="M74.6511 71.2732C74.6511 71.4084 74.5157 71.4422 74.3465 71.3408C74.1772 71.2393 74.0418 71.0533 74.0418 70.9181V40.0922C74.0418 39.9569 74.1772 39.9231 74.3465 40.0246C74.5157 40.126 74.6511 40.312 74.6511 40.4473V71.2732Z" fill="#BCB4B4"/>
<path d="M83.2659 76.2445C83.2659 76.3798 83.1305 76.4136 82.9613 76.3122C82.792 76.2107 82.6566 76.0247 82.6566 75.8894V45.0636C82.6566 44.9283 82.792 44.8945 82.9613 44.9959C83.1305 45.0974 83.2659 45.2834 83.2659 45.4187V76.2445Z" fill="#BCB4B4"/>
<path d="M87.8018 78.8486C87.8018 78.9839 87.6664 79.0177 87.4972 78.9162C87.3279 78.8148 87.1925 78.6288 87.1925 78.4935V47.6676C87.1925 47.5324 87.3279 47.4985 87.4972 47.6C87.6664 47.7015 87.8018 47.8875 87.8018 48.0227V78.8486Z" fill="#BCB4B4"/>
<path d="M74.3465 65.524L69.5059 62.7339V62.0745L74.3465 64.8645V65.524Z" fill="#BCB4B4"/>
<path d="M87.6326 73.2008L82.809 70.4107V69.7513L87.6326 72.5413V73.2008Z" fill="#BCB4B4"/>
<path d="M85.7539 74.5536L82.809 72.8627V72.2032L85.7539 73.8941V74.5536Z" fill="#BCB4B4"/>
<path d="M72.3493 64.7123C72.3493 64.8814 72.197 64.9491 72.0278 64.8476C71.8416 64.7462 71.7062 64.5094 71.7062 64.3403V63.1905C71.7062 63.0045 71.8416 62.9538 72.0278 63.0552C72.197 63.1567 72.3493 63.3934 72.3493 63.5625V64.7123Z" fill="#BCB4B4"/>
<path d="M85.5508 72.237C85.5508 72.423 85.3985 72.4737 85.2292 72.3723C85.0431 72.2708 84.9077 72.0341 84.9077 71.865V70.7152C84.9077 70.5461 85.06 70.4784 85.2292 70.5799C85.4154 70.6814 85.5508 70.9181 85.5508 71.0872V72.237Z" fill="#BCB4B4"/>
<path d="M85.5508 74.7734C85.5508 74.9594 85.3985 75.0101 85.2292 74.9087C85.0431 74.8072 84.9077 74.5705 84.9077 74.4014V73.2515C84.9077 73.0825 85.06 73.0148 85.2292 73.1163C85.4154 73.2177 85.5508 73.4545 85.5508 73.6236V74.7734Z" fill="#BCB4B4"/>
<path d="M70.9107 41.4619L70.1152 41.0053V39.01L70.9107 39.4666V41.4619Z" fill="#BCB4B4"/>
<path d="M75.4466 44.0659L74.6511 43.6094V41.6141L75.4466 42.0706V44.0659Z" fill="#BCB4B4"/>
<path d="M84.0614 49.0373L83.2659 48.5808V46.5854L84.0614 47.0589V49.0373Z" fill="#BCB4B4"/>
<path d="M88.5973 51.6582L87.8018 51.1848V49.2064L88.5973 49.6629V51.6582Z" fill="#BCB4B4"/>
<path d="M88.5973 79.136L87.8018 78.6625V76.6841L88.5973 77.1407V79.136Z" fill="#BCB4B4"/>
<path d="M84.0614 76.5151L83.2659 76.0585V74.0632L84.0614 74.5198V76.5151Z" fill="#BCB4B4"/>
<path d="M75.4466 71.5437L74.6511 71.0872V69.0919L75.4466 69.5484V71.5437Z" fill="#BCB4B4"/>
<path d="M70.9107 68.9397L70.1152 68.4831V66.4878L70.9107 66.9443V68.9397Z" fill="#BCB4B4"/>
<path d="M88.5973 79.7109L90.476 80.7931V81.5372L88.5973 80.455V79.7109Z" fill="#D29900"/>
<path d="M66.0024 34.7319L126.222 0L151.846 14.7957L91.6438 49.5277L66.0024 34.7319Z" fill="#FFB81D"/>
<path d="M100.072 35.0532L91.2207 40.1598L82.3689 35.0532L91.2037 29.9465L100.072 35.0532Z" fill="#ECAC00"/>
<path d="M126.052 20.0546L117.218 25.1612L108.366 20.0546L117.218 14.9479L126.052 20.0546Z" fill="#ECAC00"/>
<path d="M190.283 102.285L130.081 137V104.297L190.283 69.5653V102.285Z" fill="#391B83"/>
<path d="M190.283 71.0364L130.081 105.768V104.297L190.283 69.5653V71.0364Z" fill="#492F94"/>
<path d="M130.081 133.162L190.283 98.4297V102.285L130.081 137V133.162Z" fill="#735AB6"/>
<path d="M150.103 123.067L142.487 127.48V129.847L150.103 125.451V123.067Z" fill="#492F94"/>
<path d="M177.572 107.239L169.956 111.636V114.02L177.572 109.607V107.239Z" fill="#492F94"/>
<path d="M132.907 131.538L132.162 131.961V104.568L132.907 104.145V131.538Z" fill="#735AB6"/>
<path d="M132.162 131.961L131.79 132.164V104.771L132.162 104.568V131.961Z" fill="#492F94"/>
<path d="M135.767 129.881L135.04 130.304V102.911L135.767 102.488V129.881Z" fill="#735AB6"/>
<path d="M135.04 130.304L134.667 130.507V103.13L135.04 102.911V130.304Z" fill="#492F94"/>
<path d="M138.628 128.224L137.9 128.647V101.254L138.628 100.831V128.224Z" fill="#735AB6"/>
<path d="M137.9 128.647L137.528 128.867V101.473L137.9 101.254V128.647Z" fill="#492F94"/>
<path d="M141.505 126.567L140.76 126.99V99.5964L141.505 99.1737V126.567Z" fill="#735AB6"/>
<path d="M140.76 126.99L140.405 127.209V99.8163L140.76 99.5964V126.99Z" fill="#492F94"/>
<path d="M144.382 124.91L143.637 125.333V97.9562L144.382 97.5165V124.91Z" fill="#735AB6"/>
<path d="M143.637 125.333L143.265 125.552V98.1591L143.637 97.9562V125.333Z" fill="#492F94"/>
<path d="M147.242 123.27L146.515 123.692V96.2991L147.242 95.8763V123.27Z" fill="#735AB6"/>
<path d="M146.515 123.692L146.142 123.895V96.502L146.515 96.2991V123.692Z" fill="#492F94"/>
<path d="M150.103 121.612L149.375 122.035V94.642L150.103 94.2192V121.612Z" fill="#735AB6"/>
<path d="M149.375 122.035L149.003 122.238V94.8449L149.375 94.642V122.035Z" fill="#492F94"/>
<path d="M152.98 119.938L152.252 120.378V92.9849L152.98 92.5621V119.938Z" fill="#735AB6"/>
<path d="M152.252 120.378L151.88 120.581V93.2047L152.252 92.9849V120.378Z" fill="#492F94"/>
<path d="M155.857 118.298L155.113 118.721V91.3277L155.857 90.905V118.298Z" fill="#735AB6"/>
<path d="M155.113 118.721L154.74 118.941V91.5306L155.113 91.3277V118.721Z" fill="#492F94"/>
<path d="M158.718 116.641L157.973 117.064V89.6706L158.718 89.2479V116.641Z" fill="#735AB6"/>
<path d="M157.973 117.064L157.617 117.284V89.8904L157.973 89.6706V117.064Z" fill="#492F94"/>
<path d="M161.578 114.984L160.85 115.407V88.0135L161.578 87.5908V114.984Z" fill="#735AB6"/>
<path d="M160.85 115.407L160.478 115.627V88.2333L160.85 88.0135V115.407Z" fill="#492F94"/>
<path d="M164.455 113.327L163.711 113.75V86.3732L164.455 85.9336V113.327Z" fill="#735AB6"/>
<path d="M163.71 113.75L163.338 113.969V86.5761L163.71 86.3732V113.75Z" fill="#492F94"/>
<path d="M167.332 111.67L166.588 112.109V84.7161L167.332 84.2765V111.67Z" fill="#735AB6"/>
<path d="M166.588 112.109L166.215 112.312V84.919L166.588 84.7161V112.109Z" fill="#492F94"/>
<path d="M170.193 110.013L169.465 110.452V83.059L170.193 82.6363V110.013Z" fill="#735AB6"/>
<path d="M169.465 110.452L169.093 110.655V83.2619L169.465 83.059V110.452Z" fill="#492F94"/>
<path d="M173.07 108.372L172.325 108.778V81.4017L173.07 80.979V108.372Z" fill="#735AB6"/>
<path d="M172.325 108.778L171.953 108.998V81.6048L172.325 81.4019V108.778Z" fill="#492F94"/>
<path d="M175.93 106.715L175.203 107.138V79.7448L175.93 79.322V106.715Z" fill="#735AB6"/>
<path d="M175.203 107.138L174.83 107.358V79.9646L175.203 79.7448V107.138Z" fill="#492F94"/>
<path d="M178.808 105.058L178.063 105.481V78.0877L178.808 77.6649V105.058Z" fill="#735AB6"/>
<path d="M178.063 105.481L177.69 105.701V78.3075L178.063 78.0876V105.481Z" fill="#492F94"/>
<path d="M181.668 103.401L180.923 103.824V76.4305L181.668 76.0078V103.401Z" fill="#735AB6"/>
<path d="M180.923 103.824L180.568 104.044V76.6504L180.923 76.4305V103.824Z" fill="#492F94"/>
<path d="M184.545 101.744L183.8 102.167V74.7734L184.545 74.3506V101.744Z" fill="#735AB6"/>
<path d="M183.8 102.167L183.428 102.386V74.9932L183.8 74.7734V102.167Z" fill="#492F94"/>
<path d="M187.406 100.087L186.678 100.51V73.1332L187.406 72.7104V100.087Z" fill="#735AB6"/>
<path d="M186.678 100.51L186.305 100.729V73.3361L186.678 73.1332V100.51Z" fill="#492F94"/>
<path d="M130.08 104.28V137L104.473 122.221V89.5015L130.08 104.28Z" fill="#492F94"/>
<path d="M130.08 107.003V106.191L104.473 91.4292V92.2239L130.08 107.003Z" fill="#735AB6"/>
<path d="M130.08 135.343V134.565L104.473 119.786V120.564L130.08 135.343Z" fill="#735AB6"/>
<path d="M117.641 128.156L116.93 127.734V98.5988L117.641 99.0046V128.156Z" fill="#735AB6"/>
<path d="M128.93 113.242L118.436 107.206V105.109L128.93 111.162V113.242Z" fill="#492F94"/>
<path d="M128.93 111.653L118.436 105.616V105.109L128.93 111.162V111.653Z" fill="#735AB6"/>
<path d="M128.93 113.378L118.436 107.324V106.834L128.93 112.887V113.378Z" fill="#735AB6"/>
<path d="M128.93 120.429L118.436 114.375V112.295L128.93 118.349V120.429Z" fill="#492F94"/>
<path d="M128.93 118.839L118.436 112.786V112.295L128.93 118.349V118.839Z" fill="#735AB6"/>
<path d="M128.93 120.547L118.436 114.494V114.003L128.93 120.057V120.547Z" fill="#735AB6"/>
<path d="M128.93 127.598L118.436 121.545V119.465L128.93 125.519V127.598Z" fill="#492F94"/>
<path d="M128.93 126.009L118.436 119.955V119.465L128.93 125.519V126.009Z" fill="#735AB6"/>
<path d="M128.93 127.734L118.436 121.68V121.19L128.93 127.243V127.734Z" fill="#735AB6"/>
<path d="M115.813 105.616L105.319 99.5796V97.4828L115.813 103.536V105.616Z" fill="#492F94"/>
<path d="M115.813 104.027L105.319 97.9732V97.4828L115.813 103.536V104.027Z" fill="#735AB6"/>
<path d="M115.813 105.751L105.319 99.6979V99.2075L115.813 105.261V105.751Z" fill="#735AB6"/>
<path d="M115.813 112.803L105.319 106.749V104.669L115.813 110.706V112.803Z" fill="#492F94"/>
<path d="M115.813 111.213L105.319 105.143V104.669L115.813 110.706V111.213Z" fill="#735AB6"/>
<path d="M115.813 112.921L105.319 106.867V106.377L115.813 112.431V112.921Z" fill="#735AB6"/>
<path d="M115.813 119.972L105.319 113.919V111.839L115.813 117.892V119.972Z" fill="#492F94"/>
<path d="M115.813 118.383L105.319 112.329V111.839L115.813 117.892V118.383Z" fill="#735AB6"/>
<path d="M115.813 120.108L105.319 114.054V113.564L115.813 119.6V120.108Z" fill="#735AB6"/>
<path d="M108.586 123.439C108.586 123.574 108.45 123.608 108.281 123.506C108.112 123.405 107.976 123.219 107.976 123.084V92.2577C107.976 92.1225 108.112 92.0886 108.281 92.1901C108.45 92.2916 108.586 92.4776 108.586 92.6128V123.439Z" fill="#BCB4B4"/>
<path d="M113.105 126.06C113.105 126.195 112.969 126.229 112.8 126.127C112.631 126.026 112.495 125.84 112.495 125.705V94.8787C112.495 94.7434 112.631 94.7096 112.8 94.8111C112.969 94.9125 113.105 95.0985 113.105 95.2338V126.06Z" fill="#BCB4B4"/>
<path d="M121.72 131.014C121.72 131.149 121.584 131.183 121.415 131.082C121.246 130.98 121.11 130.794 121.11 130.659V99.8332C121.11 99.6979 121.246 99.6641 121.415 99.7655C121.584 99.867 121.72 100.053 121.72 100.188V131.014Z" fill="#BCB4B4"/>
<path d="M126.255 133.635C126.255 133.77 126.12 133.804 125.951 133.703C125.782 133.601 125.646 133.415 125.646 133.28V102.454C125.646 102.319 125.782 102.285 125.951 102.387C126.12 102.488 126.255 102.674 126.255 102.809V133.635Z" fill="#BCB4B4"/>
<path d="M112.8 120.31L107.976 117.52V116.861L112.8 119.651V120.31Z" fill="#BCB4B4"/>
<path d="M126.103 127.987L121.263 125.197V124.538L126.103 127.328V127.987Z" fill="#BCB4B4"/>
<path d="M124.208 129.357L121.263 127.649V126.99L124.208 128.698V129.357Z" fill="#BCB4B4"/>
<path d="M110.82 119.499C110.82 119.685 110.668 119.736 110.498 119.634C110.312 119.533 110.177 119.296 110.177 119.11V117.96C110.177 117.774 110.329 117.723 110.498 117.825C110.668 117.926 110.82 118.163 110.82 118.349V119.499Z" fill="#BCB4B4"/>
<path d="M124.021 127.023C124.021 127.209 123.869 127.26 123.7 127.159C123.514 127.057 123.361 126.821 123.361 126.651V125.502C123.361 125.316 123.514 125.248 123.7 125.349C123.886 125.451 124.021 125.688 124.021 125.874V127.023Z" fill="#BCB4B4"/>
<path d="M124.021 129.56C124.021 129.746 123.869 129.797 123.7 129.695C123.514 129.594 123.361 129.357 123.361 129.188V128.038C123.361 127.852 123.514 127.801 123.7 127.903C123.886 128.004 124.021 128.241 124.021 128.427V129.577V129.56Z" fill="#BCB4B4"/>
<path d="M109.381 96.2484L108.586 95.7918V93.7965L109.381 94.2531V96.2484Z" fill="#BCB4B4"/>
<path d="M113.9 98.8524L113.105 98.3959V96.4006L113.9 96.874V98.8524Z" fill="#BCB4B4"/>
<path d="M122.532 103.824L121.72 103.367V101.372L122.532 101.829V103.824Z" fill="#BCB4B4"/>
<path d="M127.051 106.445L126.255 105.988V103.993L127.051 104.449V106.445Z" fill="#BCB4B4"/>
<path d="M127.051 133.923L126.255 133.466V131.471L127.051 131.927V133.923Z" fill="#BCB4B4"/>
<path d="M122.532 131.302L121.72 130.845V128.85L122.532 129.323V131.302Z" fill="#BCB4B4"/>
<path d="M113.9 126.347L113.105 125.874V123.895L113.9 124.352V126.347Z" fill="#BCB4B4"/>
<path d="M109.381 123.726L108.586 123.27V121.274L109.381 121.731V123.726Z" fill="#BCB4B4"/>
<path d="M127.051 134.497L128.93 135.597V136.324L127.051 135.241V134.497Z" fill="#735AB6"/>
<path d="M104.473 89.5015L164.658 54.8034L190.3 69.5822L130.097 104.314L104.473 89.5015Z" fill="#735AB6"/>
<path d="M138.526 89.8397L129.674 94.9463L120.839 89.8397L129.674 84.733L138.526 89.8397Z" fill="#492F94"/>
<path d="M164.523 74.8411L155.688 79.9477L146.836 74.8411L155.671 69.7344L164.523 74.8411Z" fill="#492F94"/>
<path d="M177.487 62.2604L117.285 96.9754V64.2726L177.487 29.5407V62.2604Z" fill="#9DA4BE"/>
<path d="M177.487 31.0118L117.285 65.7438V64.2726L177.487 29.5407V31.0118Z" fill="#828BA3"/>
<path d="M117.285 93.1201L177.487 58.4051V62.2604L117.285 96.9754V93.1201Z" fill="#B9BCCE"/>
<path d="M137.307 83.0421L129.691 87.4385V89.8227L137.307 85.4263V83.0421Z" fill="#828BA3"/>
<path d="M164.76 67.2148L157.143 71.6113V73.9786L164.76 69.5822V67.2148Z" fill="#828BA3"/>
<path d="M120.095 91.4968L119.35 91.9364V64.5432L120.095 64.1204V91.4968Z" fill="#828BA3"/>
<path d="M119.35 91.9364L118.995 92.1393V64.7461L119.35 64.5432V91.9364Z" fill="#DADAE4"/>
<path d="M122.972 89.8566L122.227 90.2793V62.8861L122.972 62.4633V89.8566Z" fill="#828BA3"/>
<path d="M122.227 90.2793L121.855 90.4822V63.1059L122.227 62.886V90.2793Z" fill="#DADAE4"/>
<path d="M125.832 88.1995L125.104 88.6222V61.2289L125.832 60.8062V88.1995Z" fill="#828BA3"/>
<path d="M125.104 88.6222L124.732 88.8251V61.4319L125.104 61.2289V88.6222Z" fill="#DADAE4"/>
<path d="M128.71 86.5423L127.965 86.9651V59.5718L128.71 59.1491V86.5423Z" fill="#828BA3"/>
<path d="M127.965 86.9651L127.592 87.1849V59.7917L127.965 59.5718V86.9651Z" fill="#DADAE4"/>
<path d="M131.57 84.8852L130.825 85.3079V57.9147L131.57 57.4919V84.8852Z" fill="#828BA3"/>
<path d="M130.825 85.3079L130.47 85.5277V58.1345L130.825 57.9147V85.3079Z" fill="#DADAE4"/>
<path d="M134.447 83.2281L133.702 83.6508V56.2576L134.447 55.8348V83.2281Z" fill="#828BA3"/>
<path d="M133.702 83.6508L133.33 83.8706V56.4774L133.702 56.2576V83.6508Z" fill="#DADAE4"/>
<path d="M137.307 81.571L136.563 82.0106V54.6005L137.307 54.1777V81.571Z" fill="#828BA3"/>
<path d="M136.563 82.0106L136.207 82.2135V54.8203L136.563 54.6005V82.0106Z" fill="#DADAE4"/>
<path d="M140.185 79.9138L139.44 80.3365V52.9602L140.185 52.5375V79.9138Z" fill="#828BA3"/>
<path d="M139.44 80.3365L139.068 80.5564V53.1631L139.44 52.9602V80.3365Z" fill="#DADAE4"/>
<path d="M143.045 78.2736L142.317 78.6794V51.3031L143.045 50.8804V78.2736Z" fill="#828BA3"/>
<path d="M142.317 78.6794L141.945 78.8993V51.506L142.317 51.3031V78.6794Z" fill="#DADAE4"/>
<path d="M145.922 76.6165L145.178 77.0392V49.646L145.922 49.2233V76.6165Z" fill="#828BA3"/>
<path d="M145.178 77.0392L144.805 77.2421V49.8489L145.178 49.646V77.0392Z" fill="#DADAE4"/>
<path d="M148.783 74.9594L148.055 75.3821V47.9889L148.783 47.5662V74.9594Z" fill="#828BA3"/>
<path d="M148.055 75.3821L147.682 75.602V48.2087L148.055 47.9889V75.3821Z" fill="#DADAE4"/>
<path d="M151.66 73.3022L150.915 73.725V46.3317L151.66 45.909V73.3022Z" fill="#828BA3"/>
<path d="M150.915 73.725L150.543 73.9448V46.5516L150.915 46.3317V73.725Z" fill="#DADAE4"/>
<path d="M154.52 71.6451L153.792 72.0679V44.6746L154.52 44.2519V71.6451Z" fill="#828BA3"/>
<path d="M153.792 72.0679L153.42 72.2877V44.8944L153.792 44.6746V72.0679Z" fill="#DADAE4"/>
<path d="M157.397 69.988L156.653 70.4108V43.0175L157.397 42.6117V69.988Z" fill="#828BA3"/>
<path d="M156.653 70.4108L156.28 70.6306V43.2373L156.653 43.0175V70.4108Z" fill="#DADAE4"/>
<path d="M160.258 68.3309L159.53 68.7536V41.3773L160.258 40.9376V68.3309Z" fill="#828BA3"/>
<path d="M159.53 68.7536L159.158 68.9734V41.5802L159.53 41.3773V68.7536Z" fill="#DADAE4"/>
<path d="M163.135 66.6907L162.39 67.1134V39.7202L163.135 39.2974V66.6907Z" fill="#828BA3"/>
<path d="M162.39 67.1134L162.035 67.3163V39.9231L162.39 39.7202V67.1134Z" fill="#DADAE4"/>
<path d="M165.995 65.0336L165.268 65.4563V38.0631L165.995 37.6403V65.0336Z" fill="#828BA3"/>
<path d="M165.267 65.4563L164.895 65.6592V38.2829L165.267 38.063V65.4563Z" fill="#DADAE4"/>
<path d="M168.873 63.3762L168.128 63.7989V36.4057L168.873 35.983V63.3762Z" fill="#828BA3"/>
<path d="M168.128 63.7989L167.756 64.0188V36.6255L168.128 36.4057V63.7989Z" fill="#DADAE4"/>
<path d="M171.733 61.7193L171.005 62.142V34.7488L171.733 34.326V61.7193Z" fill="#828BA3"/>
<path d="M171.005 62.142L170.633 62.3618V34.9686L171.005 34.7488V62.142Z" fill="#DADAE4"/>
<path d="M174.61 60.0622L173.865 60.4849V33.0917L174.61 32.6689V60.0622Z" fill="#828BA3"/>
<path d="M173.865 60.4849L173.493 60.7047V33.3115L173.865 33.0917V60.4849Z" fill="#DADAE4"/>
<path d="M117.285 64.2557V96.9754L91.6607 82.1966V49.4769L117.285 64.2557Z" fill="#B9BCCE"/>
<path d="M117.285 66.9782V66.1665L91.6607 51.4046V52.1993L117.285 66.9782Z" fill="#828BA3"/>
<path d="M117.285 95.3014V94.5405L91.6607 79.7617V80.5226L117.285 95.3014Z" fill="#828BA3"/>
<path d="M104.845 88.1318L104.117 87.7091V58.5742L104.845 58.98V88.1318Z" fill="#828BA3"/>
<path d="M116.134 73.2177L105.641 67.1641V65.0843L116.134 71.1379V73.2177Z" fill="#9DA4BE"/>
<path d="M116.134 71.6282L105.641 65.5747V65.0843L116.134 71.1379V71.6282Z" fill="#828BA3"/>
<path d="M116.134 73.353L105.641 67.2994V66.809L116.134 72.8626V73.353Z" fill="#DADAE4"/>
<path d="M116.134 80.4042L105.641 74.3507V72.2708L116.134 78.3244V80.4042Z" fill="#9DA4BE"/>
<path d="M116.134 78.7978L105.641 72.7612V72.2708L116.134 78.3244V78.7978Z" fill="#828BA3"/>
<path d="M116.134 80.5226L105.641 74.469V73.9786L116.134 80.0322V80.5226Z" fill="#DADAE4"/>
<path d="M116.134 87.5738L105.641 81.5202V79.4404L116.134 85.4939V87.5738Z" fill="#9DA4BE"/>
<path d="M116.134 85.9843L105.641 79.9307V79.4404L116.134 85.4939V85.9843Z" fill="#828BA3"/>
<path d="M116.134 87.709L105.641 81.6386V81.1482L116.134 87.2018V87.709Z" fill="#DADAE4"/>
<path d="M103.017 65.5916L92.5239 59.538V57.4582L103.017 63.5118V65.5916Z" fill="#9DA4BE"/>
<path d="M103.017 64.0021L92.5239 57.9486V57.4582L103.017 63.5118V64.0021Z" fill="#828BA3"/>
<path d="M103.017 65.7269L92.5239 59.6733V59.1829L103.017 65.2365V65.7269Z" fill="#DADAE4"/>
<path d="M103.017 72.7612L92.5239 66.7245V64.6277L103.017 70.6813V72.7612Z" fill="#9DA4BE"/>
<path d="M103.017 71.1717L92.5239 65.1181V64.6277L103.017 70.6813V71.1717Z" fill="#828BA3"/>
<path d="M103.017 72.8964L92.5239 66.8428V66.3525L103.017 72.406V72.8964Z" fill="#DADAE4"/>
<path d="M103.017 79.9477L92.5239 73.8941V71.8143L103.017 77.8509V79.9477Z" fill="#9DA4BE"/>
<path d="M103.017 78.3582L92.5239 72.3046V71.8143L103.017 77.8509V78.3582Z" fill="#828BA3"/>
<path d="M103.017 80.066L92.5239 74.0125V73.539L103.017 79.5757V80.066Z" fill="#DADAE4"/>
<path d="M95.7735 83.4141C95.7735 83.5494 95.6381 83.5832 95.4688 83.4817C95.2996 83.3803 95.1642 83.1943 95.1642 83.059V52.2331C95.1642 52.0979 95.2996 52.081 95.4688 52.1655C95.6381 52.267 95.7735 52.453 95.7735 52.5882V83.4141Z" fill="#DADAE4"/>
<path d="M100.309 86.0351C100.309 86.1703 100.174 86.2041 100.005 86.1027C99.8355 86.0012 99.7001 85.8152 99.7001 85.68V54.8541C99.7001 54.7188 99.8355 54.685 100.005 54.7865C100.174 54.8879 100.309 55.0739 100.309 55.2092V86.0351Z" fill="#DADAE4"/>
<path d="M108.924 90.9895C108.924 91.1248 108.789 91.1586 108.62 91.0572C108.45 90.9726 108.315 90.7697 108.315 90.6344V59.8086C108.315 59.6733 108.45 59.6395 108.62 59.7409C108.789 59.8424 108.924 60.0284 108.924 60.1637V90.9895Z" fill="#DADAE4"/>
<path d="M113.46 93.6105C113.46 93.7458 113.325 93.7796 113.155 93.6781C112.986 93.5767 112.851 93.3907 112.851 93.2554V62.4295C112.851 62.2943 112.986 62.2605 113.155 62.3619C113.325 62.4634 113.46 62.6494 113.46 62.7846V93.6105Z" fill="#DADAE4"/>
<path d="M100.005 80.2859L95.1642 77.4958V76.8364L100.005 79.6264V80.2859Z" fill="#DADAE4"/>
<path d="M113.291 87.9459L108.467 85.1558V84.5132L113.291 87.3033V87.9459Z" fill="#DADAE4"/>
<path d="M111.412 89.3155L108.467 87.6246V86.9651L111.412 88.656V89.3155Z" fill="#DADAE4"/>
<path d="M98.0076 79.4573C98.0076 79.6433 97.8553 79.694 97.686 79.5926C97.4998 79.4911 97.3644 79.2544 97.3644 79.0853V77.9354C97.3644 77.7494 97.5168 77.6987 97.686 77.8002C97.8722 77.9016 98.0076 78.1383 98.0076 78.3243V79.4742V79.4573Z" fill="#DADAE4"/>
<path d="M111.209 86.9989C111.209 87.1849 111.057 87.2356 110.888 87.1342C110.701 87.0327 110.549 86.796 110.549 86.6269V85.4771C110.549 85.308 110.701 85.2403 110.888 85.3418C111.057 85.4433 111.209 85.68 111.209 85.866V87.0158V86.9989Z" fill="#DADAE4"/>
<path d="M111.209 89.5353C111.209 89.7213 111.057 89.7889 110.888 89.6706C110.701 89.5691 110.549 89.3324 110.549 89.1464V87.9966C110.549 87.8105 110.701 87.7429 110.888 87.8444C111.057 87.9627 111.209 88.1826 111.209 88.3686V89.5184V89.5353Z" fill="#DADAE4"/>
<path d="M96.5859 56.2238L95.7735 55.7672V53.7719L96.5859 54.2285V56.2238Z" fill="#DADAE4"/>
<path d="M101.105 58.8278L100.309 58.3713V56.376L101.105 56.8325V58.8278Z" fill="#DADAE4"/>
<path d="M109.72 63.7992L108.924 63.3427V61.3474L109.72 61.8039V63.7992Z" fill="#DADAE4"/>
<path d="M114.256 66.4201L113.46 65.9467V63.9514L114.256 64.4248V66.4201Z" fill="#DADAE4"/>
<path d="M114.256 93.8979L113.46 93.4244V91.446L114.256 91.9026V93.8979Z" fill="#DADAE4"/>
<path d="M109.72 91.277L108.924 90.8204V88.8251L109.72 89.2817V91.277Z" fill="#DADAE4"/>
<path d="M101.105 86.3056L100.309 85.8491V83.8538L101.105 84.3103V86.3056Z" fill="#DADAE4"/>
<path d="M96.5859 83.7016L95.7735 83.245V81.2497L96.5859 81.7062V83.7016Z" fill="#DADAE4"/>
<path d="M114.256 94.4897L116.134 95.555V96.2991L114.256 95.2169V94.4897Z" fill="#828BA3"/>
<path d="M91.6607 49.4769L151.846 14.7619L177.504 29.5576L117.302 64.2896L91.6607 49.4769Z" fill="#DADAE4"/>
<path d="M125.731 49.8151L116.879 54.9217L108.027 49.8151L116.879 44.7084L125.731 49.8151Z" fill="#B9BCCE"/>
<path d="M151.728 34.8165L142.876 39.9231L134.024 34.8165L142.876 29.7098L151.728 34.8165Z" fill="#B9BCCE"/>
<g style="mix-blend-mode:multiply" opacity="0.5">
<path d="M117.454 96.9586H142.69L190.283 69.5315L177.504 62.159L117.454 96.9586Z" fill="#735AB6"/>
</g>
<path d="M25.9799 63.5794L25.9291 80.4719L6.53308 69.2779L6.58386 52.3854L25.9799 63.5794Z" fill="#AA8057"/>
<path d="M25.9799 63.5794L37.5397 56.8664L37.4889 73.7589L25.9291 80.4719L25.9799 63.5794Z" fill="#C19B77"/>
<path d="M6.58386 52.3854L18.1436 45.6724L37.5397 56.8664L25.9799 63.5794L6.58386 52.3854Z" fill="#D7AE82"/>
<path d="M13.6246 48.2932L33.0376 59.4703L31.6159 60.2989L12.2198 49.1049L13.6246 48.2932Z" fill="#AC7941"/>
<path d="M17.6697 74.486L13.7601 72.2371C13.4893 72.0849 13.2692 71.7298 13.2692 71.4592V67.5532C13.2692 67.2826 13.4893 67.1812 13.7601 67.3502L17.6697 69.5992C17.9405 69.7514 18.1605 70.1065 18.1605 70.377V74.2662C18.1605 74.5367 17.9405 74.6382 17.6697 74.4691V74.486ZM13.7601 67.4855C13.557 67.3672 13.4046 67.4348 13.4046 67.6377V71.5269C13.4046 71.7298 13.557 71.9665 13.7601 72.0849L17.6697 74.3338C17.8728 74.4522 18.0251 74.3846 18.0251 74.1816V70.2756C18.0251 70.0727 17.8728 69.8359 17.6697 69.7176L13.7601 67.4686V67.4855Z" fill="#1C1C1C"/>
<path d="M14.8601 68.2971L14.1154 68.8382L14.657 69.1426V71.6621L15.0463 71.8988V69.3793L15.571 69.6837L14.8601 68.2971Z" fill="#1C1C1C"/>
<path d="M16.5018 69.244L15.774 69.802L16.2987 70.1064V72.609L16.7049 72.8457V70.3431L17.2296 70.6475L16.5018 69.244Z" fill="#1C1C1C"/>
<path d="M17.2296 73.8265L14.1154 72.0341V71.6114L17.2296 73.4038V73.8265Z" fill="#1C1C1C"/>
<path d="M23.7289 77.9863L19.8362 75.7373C19.5654 75.5682 19.3453 75.23 19.3453 74.9595V71.0534C19.3453 70.7829 19.5654 70.6814 19.8362 70.8505L23.7289 73.0994C23.9997 73.2516 24.2197 73.6067 24.2197 73.8773V77.7833C24.2197 78.0539 23.9997 78.1384 23.7289 77.9863ZM19.8362 70.9858C19.6331 70.8674 19.4807 70.935 19.4807 71.1379V75.044C19.4807 75.2469 19.6331 75.4837 19.8362 75.602L23.7289 77.851C23.932 77.9693 24.0843 77.9017 24.0843 77.6988V73.8096C24.0843 73.6067 23.932 73.37 23.7289 73.2516L19.8362 71.0027V70.9858Z" fill="#1C1C1C"/>
<path d="M22.358 76.5492L21.8841 76.2786V74.7399C22.7303 75.1457 22.3918 72.6431 22.3918 72.6431L21.0886 71.8991C21.0886 71.8991 20.9532 73.8775 21.6471 74.5877V76.1603L21.1732 75.8897C21.1732 75.8897 21.0717 75.8897 21.0717 75.9405C21.0717 75.9912 21.1224 76.0757 21.1732 76.1095L22.341 76.7859C22.341 76.7859 22.4426 76.7859 22.4426 76.7352C22.4426 76.6845 22.3918 76.5999 22.341 76.5661L22.358 76.5492Z" fill="#1C1C1C"/>
<path d="M11.8137 71.1041L7.92094 68.8552C7.65014 68.703 7.43011 68.3479 7.43011 68.0773V64.1882C7.43011 63.9176 7.65014 63.8162 7.92094 63.9853L11.8137 66.2342C12.0845 66.3864 12.3045 66.7415 12.3045 67.012V70.9012C12.3045 71.1718 12.0845 71.2732 11.8137 71.1041ZM7.92094 64.1036C7.71784 63.9853 7.56551 64.0529 7.56551 64.2558V68.145C7.56551 68.3479 7.71784 68.5846 7.92094 68.703L11.8137 70.9519C12.0168 71.0703 12.1691 71.0027 12.1691 70.7997V66.8937C12.1691 66.6908 11.9999 66.454 11.8137 66.3357L7.92094 64.0867V64.1036Z" fill="#1C1C1C"/>
<path d="M8.19171 66.5216L11.5598 68.4662C11.5598 68.4662 10.8997 66.8767 9.83344 66.268C8.76716 65.6424 8.19171 66.5216 8.19171 66.5216Z" fill="#1C1C1C"/>
<path d="M9.85036 69.5823C9.74881 69.5146 9.64726 69.4301 9.57956 69.3117C9.42724 69.0581 9.44416 68.7875 9.44416 68.7706C9.44416 68.7368 9.47801 68.7199 9.51186 68.7537C9.54571 68.7706 9.56264 68.8213 9.56264 68.8551C9.56264 68.8551 9.56264 69.0919 9.66419 69.2779C9.71496 69.3455 9.76574 69.4132 9.83344 69.447C9.91806 69.4977 10.0027 69.5146 10.0535 69.4808C10.1889 69.4132 10.155 69.1257 10.155 69.1257V67.6546C10.155 67.6546 10.1719 67.6039 10.2058 67.6208C10.2396 67.6377 10.2735 67.6884 10.2735 67.7222V69.1764C10.2735 69.1764 10.3073 69.5146 10.1381 69.5992C10.0704 69.633 9.96884 69.6161 9.83344 69.5484L9.85036 69.5823Z" fill="#1C1C1C"/>
<path d="M8.19172 65.4056C8.19172 65.4056 7.9717 65.7438 8.19172 65.8791C8.41175 65.9975 8.19172 65.4056 8.19172 65.4056Z" fill="#1C1C1C"/>
<path d="M9.07185 65.2873C9.07185 65.2873 8.85182 65.6255 9.07185 65.7438C9.29187 65.8622 9.07185 65.2873 9.07185 65.2873Z" fill="#1C1C1C"/>
<path d="M10.4597 66.0313C10.4597 66.0313 10.2396 66.3695 10.4597 66.4879C10.6797 66.6231 10.4597 66.0313 10.4597 66.0313Z" fill="#1C1C1C"/>
<path d="M11.3906 67.2488C11.3906 67.2488 11.1705 67.587 11.3906 67.7053C11.6106 67.8237 11.3906 67.2488 11.3906 67.2488Z" fill="#1C1C1C"/>
<path d="M11.0013 66.082C11.0013 66.082 10.7813 66.4202 11.0013 66.5386C11.2213 66.6569 11.0013 66.082 11.0013 66.082Z" fill="#1C1C1C"/>
<path d="M9.78266 65.3718C9.78266 65.3718 9.56264 65.71 9.78266 65.8284C10.0027 65.9467 9.78266 65.3718 9.78266 65.3718Z" fill="#1C1C1C"/>
<path d="M8.46253 64.6109C8.46253 64.6109 8.24251 64.9491 8.46253 65.0844C8.68256 65.2027 8.46253 64.6109 8.46253 64.6109Z" fill="#1C1C1C"/>
<path d="M17.4835 63.8669L13.6754 61.6687V58.8279L17.4835 61.043V63.8669Z" fill="white"/>
<path d="M33.0376 59.4707V76.3463L31.6159 77.1749V60.2993L33.0376 59.4707Z" fill="#96612E"/>
<path d="M27.5708 65.575C26.8938 65.9639 26.3522 65.7272 26.3522 65.0677C26.3522 64.4082 26.8938 63.5289 27.5708 63.14C28.2478 62.7511 28.7894 62.9878 28.7894 63.6473C28.7894 64.3068 28.2478 65.186 27.5708 65.575ZM27.5708 63.5627C27.1308 63.8164 26.7754 64.3744 26.7754 64.814C26.7754 65.2537 27.1308 65.4059 27.5708 65.1522C28.0109 64.8986 28.3663 64.3406 28.3663 63.9009C28.3663 63.4613 28.0109 63.3091 27.5708 63.5627Z" fill="#513B29"/>
<path d="M25.2859 71.0702C25.2521 75.4328 25.1844 78.8316 25.0998 81.1482C25.0151 83.4648 24.9474 84.6823 24.9474 84.6823C24.9305 84.6823 23.2888 84.9021 20.9701 84.8683C20.1746 84.8683 19.2776 84.8175 18.3467 84.7161C18.0928 84.6992 17.822 84.6653 17.5681 84.6315C17.1281 84.5639 16.6711 84.4962 16.2311 84.4117C13.8785 83.9721 11.949 83.0082 10.6289 82.1797C10.3919 82.0275 10.1719 81.8922 9.98574 81.7569C9.56261 81.4695 9.25796 81.2158 9.03794 81.0467C8.81791 80.8776 8.71636 80.7593 8.71636 80.7593C8.71636 80.7593 8.76714 80.2013 9.00409 79.7109C9.32566 79.0345 9.78264 78.0876 10.0365 77.073C10.2227 76.329 10.3073 75.5681 10.1211 74.841C9.78264 73.4544 9.02101 71.6958 8.29324 69.9203C8.19169 69.6498 8.07321 69.3792 7.97166 69.1256C7.54854 68.0941 7.15927 67.0627 6.88847 66.1326C5.88989 62.7 5.80527 57.2214 7.39621 55.8348C7.48084 55.7672 7.54854 55.6995 7.63317 55.6488C8.27631 55.1922 9.12256 55.0062 10.1888 55.1077C10.4258 55.1246 10.6797 55.1584 10.9335 55.2261C12.406 55.5304 14.2339 56.3252 16.4342 57.6948C17.2127 58.1683 17.9743 58.6249 18.7021 59.0645C18.9221 59.1998 19.1252 59.335 19.3453 59.4703C21.7317 61.0091 23.7119 62.7169 24.6597 65.9466C25.0659 67.3501 25.3029 69.0241 25.2859 71.0871V71.0702Z" fill="#735AB6"/>
<path style="mix-blend-mode:multiply" opacity="0.3" d="M25.286 71.0701C25.2521 75.4327 25.1844 78.8315 25.0998 81.1481C25.0152 83.4647 24.9475 84.6822 24.9475 84.6822C24.9305 84.6822 23.2888 84.902 20.9701 84.8682C21.3932 82.7545 21.6979 81.6723 21.207 76.8531C20.8008 72.8794 22.8995 66.7582 24.6597 65.9465C25.0659 67.35 25.3029 69.024 25.286 71.087V71.0701Z" fill="url(#paint0_linear_1_3797)"/>
<path d="M10.0535 76.9546C10.0535 76.9546 10.0365 77.0392 10.0196 77.0899C6.41459 76.329 5.29754 71.7127 4.78979 69.6836C4.87442 69.8696 4.95905 69.9711 5.00982 69.988C5.31447 70.1401 6.16072 70.1232 6.90542 70.0725C7.63319 70.0218 8.27634 69.9372 8.27634 69.9372C9.00412 71.7127 9.76574 73.4713 10.1042 74.8579C10.2735 75.5343 10.2058 76.2614 10.0365 76.9546H10.0535Z" fill="url(#paint1_linear_1_3797)"/>
<path d="M5.00976 69.971C5.60214 70.2753 8.29321 69.9371 8.29321 69.9371C8.19166 69.6666 8.07319 69.396 7.97164 69.1255H4.67126C4.72204 69.2777 4.75589 69.4637 4.80666 69.6666C4.90821 69.8526 4.97591 69.954 5.02669 69.971H5.00976Z" fill="url(#paint2_linear_1_3797)"/>
<path d="M8.29322 69.9371C8.29322 69.9371 7.65007 70.0217 6.9223 70.0724C6.1776 70.1231 5.33135 70.1231 5.0267 69.9879C4.99285 69.9709 4.90822 69.8864 4.80667 69.6835C4.51895 69.0917 4.1466 67.536 4.56972 63.9343C5.07747 59.69 5.94065 57.0014 7.15925 55.97C7.27772 55.8685 7.3962 55.784 7.51467 55.7163C7.54852 55.6994 7.5993 55.6656 7.63315 55.6487C7.58237 55.6825 7.54852 55.7163 7.51467 55.7501C7.4639 55.767 7.43005 55.8178 7.3962 55.8516C5.80525 57.2382 5.88987 62.7168 6.88845 66.1494C7.15925 67.0794 7.54852 68.1109 7.97165 69.1424C8.0732 69.4129 8.19167 69.6666 8.29322 69.9371Z" fill="url(#paint3_linear_1_3797)"/>
<path d="M9.29178 87.8105C9.29178 87.8105 9.12253 87.0665 8.95328 86.0012C9.29178 88.9096 12.2875 100.679 11.7121 101.845C11.1366 103.012 4.28198 108.947 2.87721 111.399C1.47244 113.851 2.03096 116.878 3.94348 115.576C5.85601 114.291 15.0971 108.491 16.8911 106.225C18.8883 103.722 18.4651 96.4512 18.0928 92.7142C16.5695 91.0402 11.7628 89.0787 9.29178 87.8105Z" fill="#060F1E"/>
<path d="M13.5907 56.1392C14.217 55.0401 13.4046 53.4337 13.3199 53.2815C13.8446 54.0931 14.6739 55.2092 15.9941 55.801C16.5188 56.0377 17.145 56.2068 17.8389 56.2237L17.8728 57.9147V58.5572C16.1972 57.5088 13.5907 56.1223 13.5907 56.1223V56.1392Z" fill="url(#paint4_linear_1_3797)"/>
<path d="M0.643127 114.105C1.25243 113.564 2.62335 112.989 3.1311 113.902C3.65578 114.815 3.50345 118.535 3.50345 118.535C3.50345 118.535 2.53873 116.252 2.08175 115.356C1.62478 114.46 0.643127 114.105 0.643127 114.105Z" fill="#036A91"/>
<path d="M25.489 71.0871L24.0673 71.8987L19.2098 74.7057C18.6682 73.0486 17.6527 66.251 20.4284 63.9344C20.8685 63.5624 21.2916 63.3257 21.6809 63.2073C24.0842 62.4464 25.3536 66.251 25.489 71.0871Z" fill="url(#paint5_linear_1_3797)"/>
<path d="M38.1658 68.8382C38.0474 68.7029 37.8781 69.1594 37.7935 69.3793C37.9966 68.7367 38.0304 67.5869 37.7427 67.2318C37.5227 66.9612 37.4042 67.925 37.3365 68.3309C37.3704 67.925 37.3704 66.8767 37.0319 66.623C36.5749 66.2679 36.6595 67.5023 36.2872 68.5169C36.0502 69.1425 35.7794 69.6329 35.4748 69.9034C35.2886 70.0725 35.1024 70.1571 34.9332 70.174C34.7808 70.174 34.7131 70.0556 34.6793 69.8865C34.5947 69.4638 34.7131 68.7536 34.4254 68.686C34.0869 68.6014 33.9177 70.0725 33.7146 70.9518C33.6638 71.0871 33.6299 71.2224 33.5961 71.3577C33.5961 71.4591 33.5792 71.5437 33.5792 71.6451C33.5792 71.6451 30.8881 73.4037 28.6201 75.027C26.3691 76.6334 25.8614 76.9885 25.6075 76.7179C25.3536 76.4474 25.4382 71.104 25.4382 71.104C25.4382 71.104 24.8966 71.4253 23.9827 71.9495C23.4749 72.2369 22.8487 72.609 22.1379 73.0148C20.1746 74.1477 19.1422 74.7395 19.1422 74.7395C19.5484 77.2083 21.5793 82.7884 23.678 82.7377C25.7767 82.687 26.9107 81.8584 29.6018 79.2882C32.2929 76.7179 34.9501 73.5221 35.9487 72.2031C35.9825 72.1524 36.0164 72.1186 36.0333 72.0679C37.8781 70.7489 38.3859 69.1933 38.0981 68.8889L38.1658 68.8382Z" fill="url(#paint6_linear_1_3797)"/>
<path d="M14.4878 67.6714C14.4878 66.8428 14.4878 65.7099 14.4539 64.949C14.4539 64.949 14.4878 64.949 14.5047 64.9321C15.334 64.1373 18.1097 61.026 19.3283 59.4703C19.1252 59.3351 18.9052 59.1998 18.6852 59.0645C17.5851 60.4342 15.2663 63.0551 14.2508 64.1035C13.8108 63.7822 12.1014 62.8691 11.1366 62.3788C10.5781 58.6587 10.612 55.7165 10.8997 55.2599C10.8997 55.2599 10.8997 55.2599 10.9166 55.2599C10.6627 55.2092 10.4089 55.1754 10.1719 55.1415C9.64724 56.7141 10.1888 61.0429 10.4427 62.7C10.3919 63.8161 10.4089 65.9974 10.5443 66.4539C10.5781 67.2994 10.6627 68.4323 10.7474 69.6667C10.8997 71.8311 11.0689 74.283 11.0689 76.0923C11.0689 78.4089 10.3919 80.6578 9.98574 81.8077C10.1719 81.9429 10.3919 82.0782 10.6289 82.2304C11.052 81.0975 11.8136 78.6625 11.8306 76.0923C11.8306 74.2492 11.6613 71.7804 11.509 69.616C11.4413 68.686 11.3736 67.8067 11.3397 67.0796C12.1014 67.5361 13.2184 68.1111 13.9123 68.4492C14.4709 70.7658 15.7064 76.0077 16.5019 79.6095C17.1112 82.298 17.4327 83.8875 17.5851 84.6823C17.8389 84.7161 18.1097 84.7499 18.3636 84.7668C18.2282 84.0735 17.9236 82.4671 17.2296 79.4573C16.3495 75.5174 14.9448 69.616 14.4878 67.7221V67.6714Z" fill="#0B162D"/>
<path d="M32.2252 104.568C31.9375 99.7992 24.9475 84.6991 24.9475 84.6991C24.9475 84.6991 21.9687 85.1049 18.3467 84.7329C18.0928 84.716 17.822 84.6822 17.5682 84.6484C17.1281 84.5807 16.6711 84.5131 16.2311 84.4286C13.8785 83.9889 11.9491 83.0251 10.6289 82.1965C10.392 82.0443 10.1719 81.9091 9.98577 81.7738C9.15645 81.1989 8.7164 80.7761 8.7164 80.7761C8.49638 82.3994 8.73333 84.5131 8.97028 86.018C9.13953 87.0833 9.30877 87.8273 9.30877 87.8273C11.7798 89.1125 16.6034 91.057 18.1098 92.7311C18.2282 92.8663 18.3467 93.0016 18.4144 93.1369C19.7853 95.5042 25.6414 104.838 25.9291 106.242C26.2168 107.645 25.5398 118.028 25.4552 121.528C25.4552 121.528 25.3537 122.475 25.5398 123.371C25.7429 124.369 26.2845 125.299 27.6893 124.757C28.0278 124.622 28.434 123.827 28.8741 122.61C30.4819 118.214 32.4622 108.305 32.2421 104.568H32.2252Z" fill="#0B162D"/>
<path d="M34.7131 123.151C34.1546 124.318 27.5708 128.275 26.386 127.429C26.2676 127.345 26.1491 127.176 26.0475 126.973C25.6075 126.06 25.3198 124.267 25.5059 123.422C25.5059 123.405 25.5059 123.388 25.5229 123.354C25.726 124.352 26.2676 125.282 27.6723 124.741C28.0108 124.605 28.417 123.811 28.8571 122.593C29.771 122.576 30.6173 122.593 31.0743 122.543C31.9374 122.475 33.6638 122.221 34.4085 122.475C34.7131 122.593 34.8655 122.779 34.6962 123.134L34.7131 123.151Z" fill="#1299CB"/>
<path d="M34.7131 123.151C34.1546 124.318 27.5708 128.275 26.386 127.43C26.2676 127.345 26.1491 127.176 26.0475 126.973C27.2492 126.956 28.3493 126.5 30.905 125.198C32.8006 124.234 33.9177 123.118 34.4254 122.509C34.7301 122.627 34.8824 122.813 34.7131 123.168V123.151Z" fill="#C4DDFF"/>
<path d="M3.53731 122.356C3.41884 122.508 3.26651 122.627 3.08034 122.711C1.60786 123.439 -0.812411 117.655 0.270789 114.781C0.355414 114.527 0.473889 114.307 0.626214 114.105C1.16781 113.377 1.99714 114.612 2.65721 116.184C3.62194 118.518 4.46819 121.206 3.53731 122.339V122.356Z" fill="#1299CB"/>
<path d="M3.53734 122.356C3.53734 121.646 3.65581 120.902 3.24961 119.363C2.80956 117.655 2.40336 116.692 1.69251 115.474C1.13399 114.51 0.643163 114.46 0.270813 114.781C0.355438 114.527 0.473913 114.307 0.626238 114.105C1.16784 113.377 1.99716 114.612 2.65724 116.184C3.62196 118.518 4.46821 121.206 3.53734 122.339V122.356Z" fill="#C4DDFF"/>
<path style="mix-blend-mode:multiply" opacity="0.4" d="M25.489 71.087L24.0673 71.8986C23.6442 67.5698 23.4749 66.4538 21.6639 63.1903C24.0673 62.4294 25.3367 66.234 25.4721 71.0701L25.489 71.087Z" fill="url(#paint7_linear_1_3797)"/>
<path style="mix-blend-mode:multiply" opacity="0.4" d="M8.2932 69.9372C8.2932 69.9372 7.65005 70.0218 6.92227 70.0725C6.51607 68.8381 6.00832 66.9443 5.80522 64.6615C5.4498 60.8569 5.83907 58.3543 7.15922 55.9701C7.26077 55.7671 7.37925 55.5642 7.51465 55.3613V55.7164V55.7333C7.46387 55.7502 7.43002 55.801 7.39617 55.8348C5.80522 57.2214 5.88985 62.7 6.88842 66.1326C7.15922 67.0626 7.5485 68.0941 7.97162 69.1256C8.07317 69.3961 8.19165 69.6498 8.2932 69.9203V69.9372Z" fill="url(#paint8_linear_1_3797)"/>
<path style="mix-blend-mode:multiply" opacity="0.4" d="M33.6299 71.6281C33.6299 71.6281 32.496 72.8625 30.9896 74.0969C29.4833 75.3312 25.6075 78.3073 24.9813 77.986C24.4058 77.6816 23.9996 73.6234 24.0335 71.9155C24.9474 71.3913 25.489 71.0701 25.489 71.0701C25.489 71.0701 25.4044 76.4134 25.6583 76.684C25.9121 76.9545 26.403 76.5994 28.6709 74.9931C30.9219 73.3867 33.6299 71.6112 33.6299 71.6112V71.6281Z" fill="url(#paint9_linear_1_3797)"/>
<path style="mix-blend-mode:multiply" opacity="0.4" d="M10.0534 76.9547C8.98715 76.9039 7.56545 72.0171 6.9223 70.0725C7.65008 70.0218 8.29323 69.9373 8.29323 69.9373C9.021 71.7127 9.78263 73.4713 10.1211 74.8579C10.2904 75.5343 10.2227 76.2614 10.0534 76.9547Z" fill="url(#paint10_linear_1_3797)"/>
<path style="mix-blend-mode:multiply" opacity="0.4" d="M17.8728 57.9146C17.4496 57.3397 16.7896 56.5281 15.9941 55.801C16.5188 56.0377 17.145 56.2068 17.8389 56.2237L17.8728 57.9146Z" fill="url(#paint11_linear_1_3797)"/>
<path d="M21.444 50.6604C21.207 53.0784 20.3777 55.5134 19.1422 55.953C18.3636 56.2236 17.6866 56.3251 17.0773 56.3081C14.9279 56.2405 13.7262 54.7018 13.083 53.7041C12.2537 52.419 10.3581 49.0033 12.7445 45.9765C15.131 42.9497 19.7007 43.9305 20.9532 46.264C21.1055 46.5514 21.224 46.9065 21.3255 47.3123C21.5286 48.2593 21.5625 49.4598 21.4609 50.6604H21.444Z" fill="url(#paint12_linear_1_3797)"/>
<path d="M11.5767 50.1363C11.8813 51.7427 12.2875 52.2331 12.8461 53.3153C13.4046 54.3975 13.9631 55.1077 15.0632 55.3106C16.1634 55.4966 17.4497 54.5666 17.0604 53.3153C16.6711 52.064 17.5343 51.4383 17.9913 51.8441C18.4482 52.25 18.3975 53.0109 18.6683 52.5205C18.9391 52.0302 18.4482 49.7643 19.2776 48.6652C20.1069 47.5492 21.2239 48.2424 21.444 47.6506C21.664 47.0588 20.5469 43.5078 17.0604 43.5078C12.7445 43.5078 10.8658 46.45 11.5767 50.1532V50.1363Z" fill="#0D1015"/>
<path d="M18.8713 44.1335C18.8713 44.1335 21.2577 43.4402 23.0348 45.0635C24.8289 46.6868 22.324 48.5806 19.8699 49.815C19.8699 49.815 21.5962 48.4792 21.1562 46.8051C20.7161 45.1311 18.8544 44.1335 18.8544 44.1335H18.8713Z" fill="#C21B1B"/>
<path style="mix-blend-mode:multiply" opacity="0.4" d="M21.444 50.6607C20.5131 50.0689 19.0575 50.238 18.2621 50.3564L16.8742 49.4095L21.3086 47.2958C21.5117 48.2427 21.5455 49.4433 21.444 50.6438V50.6607Z" fill="url(#paint13_linear_1_3797)"/>
<path d="M21.427 48.2425C21.1224 49.3247 18.3636 50.9818 16.1803 51.4384C15.0632 51.6751 13.8615 51.4214 12.9476 50.9818C12.0506 50.5591 11.4074 49.9672 11.3566 49.46C10.832 44.607 15.5033 42.4764 18.1266 43.4402C18.3636 43.5248 18.6005 43.6431 18.8206 43.7615C20.9193 44.9113 21.7147 47.2617 21.427 48.2425Z" fill="#FF4D4D"/>
<path style="mix-blend-mode:multiply" opacity="0.3" d="M21.427 48.2425C21.1223 49.3247 18.3636 50.9818 16.1802 51.4383C15.0632 51.6751 13.8615 51.4214 12.9476 50.9818C20.3946 50.1194 19.6837 46.2979 18.8205 43.7615C20.9192 44.9113 21.7147 47.2617 21.427 48.2425Z" fill="url(#paint14_linear_1_3797)"/>
</g>
<defs>
<linearGradient id="paint0_linear_1_3797" x1="20.987" y1="75.4158" x2="25.286" y2="75.4158" gradientUnits="userSpaceOnUse">
<stop stop-color="#F94414"/>
<stop offset="0.99" stop-color="#FF3D00"/>
</linearGradient>
<linearGradient id="paint1_linear_1_3797" x1="9.83344" y1="77.5634" x2="5.77764" y2="68.6324" gradientUnits="userSpaceOnUse">
<stop stop-color="#DEA595"/>
<stop offset="0.99" stop-color="#E2837A"/>
</linearGradient>
<linearGradient id="paint2_linear_1_3797" x1="10.0365" y1="77.4787" x2="5.9976" y2="68.5309" gradientUnits="userSpaceOnUse">
<stop stop-color="#DEA595"/>
<stop offset="0.99" stop-color="#E2837A"/>
</linearGradient>
<linearGradient id="paint3_linear_1_3797" x1="4.0789" y1="62.869" x2="8.29322" y2="62.869" gradientUnits="userSpaceOnUse">
<stop stop-color="#34239B"/>
<stop offset="0.99" stop-color="#3D2386"/>
</linearGradient>
<linearGradient id="paint4_linear_1_3797" x1="17.9066" y1="59.8762" x2="13.5797" y2="52.5678" gradientUnits="userSpaceOnUse">
<stop stop-color="#DEA595"/>
<stop offset="0.99" stop-color="#E2837A"/>
</linearGradient>
<linearGradient id="paint5_linear_1_3797" x1="18.5667" y1="68.9058" x2="25.489" y2="68.9058" gradientUnits="userSpaceOnUse">
<stop stop-color="#34239B"/>
<stop offset="0.99" stop-color="#3D2386"/>
</linearGradient>
<linearGradient id="paint6_linear_1_3797" x1="32.039" y1="79.4573" x2="27.7804" y2="70.0527" gradientUnits="userSpaceOnUse">
<stop stop-color="#DEA595"/>
<stop offset="0.99" stop-color="#E2837A"/>
</linearGradient>
<linearGradient id="paint7_linear_1_3797" x1="21.6809" y1="67.5022" x2="25.489" y2="67.5022" gradientUnits="userSpaceOnUse">
<stop stop-color="#34239B"/>
<stop offset="0.99" stop-color="#3D2386"/>
</linearGradient>
<linearGradient id="paint8_linear_1_3797" x1="5.66982" y1="62.7169" x2="8.2932" y2="62.7169" gradientUnits="userSpaceOnUse">
<stop stop-color="#34239B"/>
<stop offset="0.99" stop-color="#3D2386"/>
</linearGradient>
<linearGradient id="paint9_linear_1_3797" x1="22.341" y1="77.3265" x2="33.1309" y2="68.304" gradientUnits="userSpaceOnUse">
<stop stop-color="#DEA595"/>
<stop offset="0.99" stop-color="#E2837A"/>
</linearGradient>
<linearGradient id="paint10_linear_1_3797" x1="7.21003" y1="74.5873" x2="10.5417" y2="71.7943" gradientUnits="userSpaceOnUse">
<stop stop-color="#DEA595"/>
<stop offset="0.99" stop-color="#E2837A"/>
</linearGradient>
<linearGradient id="paint11_linear_1_3797" x1="16.7896" y1="57.0015" x2="17.9227" y2="56.0367" gradientUnits="userSpaceOnUse">
<stop stop-color="#DEA595"/>
<stop offset="0.99" stop-color="#E2837A"/>
</linearGradient>
<linearGradient id="paint12_linear_1_3797" x1="19.87" y1="56.6971" x2="16.7099" y2="49.4408" gradientUnits="userSpaceOnUse">
<stop stop-color="#DEA595"/>
<stop offset="0.99" stop-color="#E2837A"/>
</linearGradient>
<linearGradient id="paint13_linear_1_3797" x1="17.602" y1="51.3371" x2="22.3712" y2="47.3591" gradientUnits="userSpaceOnUse">
<stop stop-color="#DEA595"/>
<stop offset="0.99" stop-color="#E2837A"/>
</linearGradient>
<linearGradient id="paint14_linear_1_3797" x1="12.9476" y1="47.6337" x2="21.4778" y2="47.6337" gradientUnits="userSpaceOnUse">
<stop stop-color="#F94414"/>
<stop offset="0.99" stop-color="#FF3D00"/>
</linearGradient>
<clipPath id="clip0_1_3797">
<rect width="190" height="137" fill="white"/>
</clipPath>
</defs>
</svg>
