<svg width="41" height="29" viewBox="0 0 41 29" fill="none" xmlns="http://www.w3.org/2000/svg">
<path d="M20.8324 24.6231C23.2963 24.6231 25.2937 23.8136 25.2937 22.8151C25.2937 21.8165 23.2963 21.007 20.8324 21.007C18.3685 21.007 16.3711 21.8165 16.3711 22.8151C16.3711 23.8136 18.3685 24.6231 20.8324 24.6231Z" fill="#003164"/>
<path d="M16.9437 26.345C16.9437 26.345 21.9718 28.8935 24.9006 26.0279C22.5673 28.7557 20.9185 30.6671 16.9437 26.345Z" fill="#003164"/>
<path d="M18.4762 12.8892C17.255 10.9865 13.9403 10.9377 11.0703 12.7787C8.20042 14.6198 6.86447 17.6548 8.08419 19.5561C9.30391 21.4588 12.6201 21.5076 15.49 19.6666C18.36 17.8255 19.6959 14.7906 18.4762 12.8892ZM11.0933 16.7192C11.0933 16.7192 13.1037 14.5337 15.2217 16.7192C14.0608 17.187 13.4366 16.2514 11.0933 16.7192Z" fill="#003164"/>
<path d="M30.6275 12.7572C27.6743 11.0524 24.3653 11.2576 23.2345 13.2149C22.1038 15.1722 23.5818 18.1412 26.5349 19.8459C29.4881 21.5506 32.7971 21.3454 33.9279 19.3881C35.0572 17.4309 33.5806 14.4619 30.6275 12.7572ZM26.3957 16.7191C26.3957 16.7191 28.4061 14.5337 30.5241 16.7191C29.3633 17.1869 28.739 16.2513 26.3957 16.7191Z" fill="#003164"/>
<path d="M34.8707 7.7708C35.6384 7.60004 36.3157 7.19969 36.782 6.56831C37.9759 4.95541 37.3503 2.46718 35.3858 1.01213C33.4199 -0.442925 30.8585 -0.313778 29.6646 1.30056C29.1265 2.02808 28.9615 2.93211 29.1179 3.84044C26.6168 2.71112 23.8444 2.07831 20.9228 2.07831C18.0012 2.07831 15.2547 2.70538 12.7622 3.82466C12.8712 2.97516 12.6947 2.13857 12.1896 1.45697C10.9958 -0.155932 8.43434 -0.285079 6.46844 1.16854C4.50254 2.62359 3.8769 5.11038 5.07222 6.72472C5.51132 7.31736 6.1341 7.70767 6.8444 7.89421C3.21968 11.506 0.975403 16.5026 0.975403 22.0243C0.975403 22.4175 0.989749 22.8078 1.01271 23.1952C1.6197 12.7243 10.2998 4.41873 20.9228 4.41873C31.5459 4.41873 40.226 12.7243 40.8329 23.1952C40.8559 22.8078 40.8703 22.4175 40.8703 22.0243C40.8703 16.438 38.5714 11.3912 34.8707 7.76937V7.7708Z" fill="#003164"/>
</svg>
